<svg xmlns="http://www.w3.org/2000/svg" xmlns:xlink="http://www.w3.org/1999/xlink" width="500" zoomAndPan="magnify" viewBox="0 0 375 374.999991" height="500" preserveAspectRatio="xMidYMid meet" version="1.0"><defs><g/><clipPath id="dda265dcfb"><path d="M 107 300 L 116 300 L 116 302.722656 L 107 302.722656 Z M 107 300 " clip-rule="nonzero"/></clipPath><clipPath id="23c907a4cd"><path d="M 126 301 L 132 301 L 132 302.722656 L 126 302.722656 Z M 126 301 " clip-rule="nonzero"/></clipPath><clipPath id="999ce29d97"><path d="M 68 89.722656 L 75 89.722656 L 75 93 L 68 93 Z M 68 89.722656 " clip-rule="nonzero"/></clipPath><clipPath id="9c537ee941"><path d="M 177 241 L 179.96875 241 L 179.96875 244 L 177 244 Z M 177 241 " clip-rule="nonzero"/></clipPath></defs><path fill="#1f13ff" d="M 47.113281 271.761719 C 45.148438 269.738281 41.707031 266.40625 40.292969 265.511719 C 40.214844 265.472656 40.101562 265.441406 40.015625 265.441406 C 40.039062 266.398438 48.976562 275.058594 49.980469 275.09375 C 49.953125 274.742188 48.40625 273.089844 47.113281 271.761719 " fill-opacity="1" fill-rule="nonzero"/><path fill="#1f13ff" d="M 58.722656 280.144531 C 56.65625 278.382812 52.910156 275.496094 51.0625 274.777344 C 50.925781 274.742188 50.722656 274.6875 50.652344 274.75 C 50.292969 275.074219 52.640625 277.285156 55.058594 279.148438 C 58.160156 281.535156 60.984375 283.273438 61.492188 283.101562 C 61.65625 282.726562 59.828125 281.089844 58.722656 280.144531 " fill-opacity="1" fill-rule="nonzero"/><path fill="#1f13ff" d="M 20.082031 235.023438 C 20.035156 234.976562 19.957031 234.929688 19.890625 234.929688 C 19.875 236.179688 25.847656 247.601562 26.550781 247.65625 C 26.558594 247.148438 25.363281 244.648438 24.652344 243.203125 C 23.410156 240.679688 21.070312 236.226562 20.082031 235.023438 " fill-opacity="1" fill-rule="nonzero"/><path fill="#1f13ff" d="M 27.515625 247.277344 C 27.390625 247.21875 27.238281 247.144531 27.160156 247.222656 C 26.382812 248.011719 33.394531 258.375 35.054688 258.894531 C 35.699219 259.09375 35 257.375 33.355469 254.710938 C 31.816406 252.21875 28.992188 248.269531 27.515625 247.277344 " fill-opacity="1" fill-rule="nonzero"/><path fill="#1f13ff" d="M 43.839844 264.980469 C 42.140625 262.714844 38.871094 259.164062 36.90625 258.355469 C 36.742188 258.316406 36.519531 258.257812 36.390625 258.347656 C 35.042969 259.28125 42.945312 268.53125 45.386719 268.875 C 46.285156 269 45.648438 267.398438 43.839844 264.980469 " fill-opacity="1" fill-rule="nonzero"/><path fill="#1f13ff" d="M 14.816406 221.703125 C 14.894531 221.949219 15.015625 222.308594 15.164062 222.75 C 15.046875 222.394531 14.921875 222.035156 14.8125 221.695312 L 14.816406 221.703125 " fill-opacity="1" fill-rule="nonzero"/><path fill="#1f13ff" d="M 23.511719 239.242188 C 24.453125 239.769531 24.289062 237.660156 23.132812 234.328125 C 22.132812 231.453125 20.054688 226.925781 18.566406 225.867188 C 18.476562 225.828125 18.351562 225.765625 18.257812 225.785156 C 16.703125 226.082031 21.371094 238.027344 23.511719 239.242188 " fill-opacity="1" fill-rule="nonzero"/><path fill="#1f13ff" d="M 32.238281 250.964844 C 33.523438 251.390625 33.429688 249.371094 32.023438 246.269531 C 30.808594 243.585938 28.175781 239.410156 26.121094 238.523438 C 25.945312 238.480469 25.703125 238.425781 25.523438 238.539062 C 23.730469 239.664062 29.316406 250 32.238281 250.964844 " fill-opacity="1" fill-rule="nonzero"/><path fill="#1f13ff" d="M 42.488281 261.398438 C 44.359375 262.015625 44.503906 260.046875 42.8125 257.015625 C 41.214844 254.148438 38.054688 250.671875 35.746094 250.046875 C 35.523438 250.023438 35.214844 249.988281 34.980469 250.113281 C 32.773438 251.277344 38.667969 260.140625 42.488281 261.398438 " fill-opacity="1" fill-rule="nonzero"/><path fill="#1f13ff" d="M 13.308594 212.285156 C 13.261719 212.242188 13.1875 212.1875 13.125 212.171875 C 12.1875 212.753906 15.863281 226.152344 17.058594 226.503906 C 17.53125 226.210938 16.660156 222.441406 16.382812 221.292969 C 15.703125 218.476562 14.265625 213.539062 13.308594 212.285156 " fill-opacity="1" fill-rule="nonzero"/><path fill="#1f13ff" d="M 22.710938 229.808594 C 24.222656 230.644531 24.773438 228.230469 23.9375 224.429688 C 23.273438 221.40625 21.425781 216.734375 19.40625 215.816406 C 19.269531 215.789062 19.078125 215.75 18.945312 215.78125 C 16.34375 216.351562 19.476562 228.019531 22.710938 229.808594 " fill-opacity="1" fill-rule="nonzero"/><path fill="#1f13ff" d="M 31.222656 241.820312 C 33.382812 242.917969 34.234375 240.546875 33.042969 236.746094 C 32.140625 233.863281 29.691406 229.472656 27.0625 228.730469 C 26.886719 228.710938 26.648438 228.6875 26.472656 228.726562 C 23.394531 229.457031 27.125 239.738281 31.222656 241.820312 " fill-opacity="1" fill-rule="nonzero"/><path fill="#1f13ff" d="M 41.53125 252.660156 C 44.375 253.96875 45.5625 251.695312 44.027344 247.890625 C 42.941406 245.199219 40.023438 241.167969 36.929688 240.636719 C 36.648438 240.628906 36.261719 240.617188 35.917969 240.78125 C 33.035156 242.148438 37.019531 250.582031 41.53125 252.660156 " fill-opacity="1" fill-rule="nonzero"/><path fill="#1f13ff" d="M 16.082031 216.621094 C 17.152344 217.574219 17.640625 215.195312 17.171875 211.316406 C 16.804688 208.289062 15.648438 203.546875 14.230469 202.492188 C 14.136719 202.453125 14 202.398438 13.898438 202.414062 C 11.972656 202.761719 13.789062 214.574219 16.082031 216.621094 " fill-opacity="1" fill-rule="nonzero"/><path fill="#1f13ff" d="M 27.097656 213.738281 C 26.765625 210.691406 25.15625 206.0625 22.613281 205.316406 C 22.433594 205.296875 22.183594 205.277344 22.007812 205.320312 C 18.867188 206.054688 20.1875 216.382812 23.773438 219.136719 C 25.96875 220.820312 27.585938 218.195312 27.097656 213.738281 " fill-opacity="1" fill-rule="nonzero"/><path fill="#1f13ff" d="M 36.238281 226.09375 C 35.628906 223.050781 33.390625 218.511719 30.3125 217.953125 C 30.09375 217.949219 29.792969 217.945312 29.578125 218 C 26.003906 218.921875 27.886719 228.429688 32.230469 231.390625 C 35.1875 233.410156 37.175781 230.785156 36.238281 226.09375 " fill-opacity="1" fill-rule="nonzero"/><path fill="#1f13ff" d="M 47.199219 237.582031 C 46.386719 234.679688 43.667969 230.425781 40.167969 230.066406 C 39.921875 230.074219 39.582031 230.09375 39.34375 230.160156 C 35.425781 231.28125 37.996094 240.292969 42.960938 242.851562 C 46.332031 244.585938 48.429688 241.976562 47.199219 237.582031 " fill-opacity="1" fill-rule="nonzero"/><path fill="#1f13ff" d="M 17.570312 206.316406 C 19.085938 207.625 20.363281 205.113281 20.304688 200.949219 C 20.257812 197.917969 19.339844 193.246094 17.4375 192.355469 C 17.300781 192.328125 17.105469 192.292969 16.96875 192.320312 C 14.257812 192.886719 14.730469 203.871094 17.570312 206.316406 " fill-opacity="1" fill-rule="nonzero"/><path fill="#1f13ff" d="M 32.347656 202.578125 C 32.285156 199.519531 30.882812 194.960938 27.960938 194.414062 C 27.847656 194.410156 27.699219 194.398438 27.589844 194.40625 C 23.703125 194.683594 23.269531 204.003906 26.96875 207.703125 C 29.632812 210.367188 32.445312 207.683594 32.347656 202.578125 " fill-opacity="1" fill-rule="nonzero"/><path fill="#1f13ff" d="M 41.277344 214.574219 C 40.949219 211.5 38.953125 207.007812 35.542969 206.640625 C 35.417969 206.644531 35.246094 206.640625 35.121094 206.65625 C 30.726562 207.183594 31.078125 216.574219 35.621094 220.058594 C 38.863281 222.542969 41.824219 219.671875 41.277344 214.574219 " fill-opacity="1" fill-rule="nonzero"/><path fill="#1f13ff" d="M 52.097656 226.117188 C 51.527344 223.050781 49.011719 218.652344 45.1875 218.46875 C 45.046875 218.480469 44.859375 218.484375 44.71875 218.507812 C 40.203125 219.222656 40.859375 227.941406 45.695312 231.46875 C 49.605469 234.324219 53.074219 231.421875 52.097656 226.117188 " fill-opacity="1" fill-rule="nonzero"/><path fill="#1f13ff" d="M 20.941406 195.339844 C 22.871094 197.570312 25.207031 194.988281 25.566406 190.226562 C 25.792969 187.210938 25.0625 182.640625 22.714844 181.929688 C 22.625 181.921875 22.507812 181.898438 22.417969 181.902344 C 19.160156 181.957031 18.054688 192.003906 20.941406 195.339844 " fill-opacity="1" fill-rule="nonzero"/><path fill="#1f13ff" d="M 32.28125 196.351562 C 35.027344 199.460938 38.726562 196.65625 38.988281 191.265625 C 39.136719 188.21875 37.925781 183.761719 34.757812 183.402344 C 30.007812 183.605469 29.015625 192.65625 32.28125 196.351562 " fill-opacity="1" fill-rule="nonzero"/><path fill="#1f13ff" d="M 47.726562 202.847656 C 47.613281 199.765625 45.808594 195.34375 42.160156 195.152344 C 36.824219 195.617188 36.601562 204.785156 40.65625 208.328125 C 44.03125 211.28125 47.929688 208.257812 47.726562 202.847656 " fill-opacity="1" fill-rule="nonzero"/><path fill="#1f13ff" d="M 50.457031 219.488281 C 54.496094 222.96875 58.988281 219.875 58.335938 214.0625 C 57.988281 210.972656 55.671875 206.609375 51.605469 206.597656 C 46.074219 207.277344 46.109375 215.746094 50.457031 219.488281 " fill-opacity="1" fill-rule="nonzero"/><path fill="#1f13ff" d="M 32.382812 179.417969 C 32.816406 176.429688 32.246094 171.988281 29.605469 171.46875 C 25.402344 171.414062 23.679688 181.109375 26.386719 184.476562 C 28.507812 187.113281 31.644531 184.46875 32.382812 179.417969 " fill-opacity="1" fill-rule="nonzero"/><path fill="#1f13ff" d="M 66.652344 270.988281 C 69.964844 271.828125 71.28125 269.738281 69.464844 266.515625 C 68.179688 264.238281 64.734375 260.972656 61.097656 260.84375 C 60.601562 260.878906 60.089844 260.917969 59.59375 261.265625 C 56.78125 263.222656 61.464844 269.675781 66.652344 270.988281 " fill-opacity="1" fill-rule="nonzero"/><path fill="#1f13ff" d="M 72.703125 257.089844 C 71.671875 254.574219 68.402344 251.042969 64.351562 251.066406 C 63.976562 251.113281 63.464844 251.171875 62.980469 251.398438 C 59.285156 253.148438 62.195312 259.863281 67.5625 261.96875 C 71.691406 263.59375 74.335938 261.085938 72.703125 257.089844 " fill-opacity="1" fill-rule="nonzero"/><path fill="#1f13ff" d="M 77.59375 246.433594 C 76.785156 243.691406 73.667969 239.910156 69.269531 240.09375 C 69.109375 240.117188 68.890625 240.140625 68.730469 240.175781 C 63.890625 241.199219 64.78125 248.378906 70.132812 251.472656 C 74.875 254.214844 79.058594 251.386719 77.59375 246.433594 " fill-opacity="1" fill-rule="nonzero"/><path fill="#1f13ff" d="M 75.558594 227.976562 C 75.386719 228.007812 75.15625 228.039062 74.984375 228.082031 C 69.757812 229.34375 70.054688 237.128906 75.453125 240.332031 C 80.199219 243.152344 84.988281 239.882812 83.851562 234.597656 C 83.214844 231.648438 80.222656 227.644531 75.558594 227.976562 " fill-opacity="1" fill-rule="nonzero"/><path fill="#1f13ff" d="M 67.449219 278.585938 C 69.71875 278.878906 70 277.164062 68.085938 274.679688 C 66.523438 272.644531 62.890625 269.65625 59.71875 269.378906 C 59.296875 269.390625 58.859375 269.402344 58.496094 269.679688 C 56.253906 271.414062 62.863281 277.988281 67.449219 278.585938 " fill-opacity="1" fill-rule="nonzero"/><path fill="#1f13ff" d="M 69.929688 284.8125 C 71.195312 284.785156 70.707031 283.480469 68.710938 281.574219 C 66.972656 279.90625 63.167969 277.105469 60.367188 276.679688 C 60.019531 276.664062 59.660156 276.648438 59.4375 276.863281 C 57.960938 278.277344 66.6875 284.894531 69.929688 284.8125 " fill-opacity="1" fill-rule="nonzero"/><path fill="#1f13ff" d="M 54.621094 253.15625 C 58.890625 255.257812 61.675781 252.488281 60.039062 247.769531 C 59.011719 244.820312 55.691406 240.582031 51.53125 240.414062 C 51.234375 240.4375 50.839844 240.472656 50.554688 240.558594 C 46.167969 241.871094 48.902344 250.351562 54.621094 253.15625 " fill-opacity="1" fill-rule="nonzero"/><path fill="#1f13ff" d="M 53.851562 262.761719 C 57.214844 263.90625 58.609375 261.5 56.773438 257.710938 C 55.464844 255.003906 51.941406 251.027344 48.222656 250.683594 C 47.882812 250.691406 47.417969 250.707031 47.007812 250.898438 C 43.472656 252.546875 48.269531 260.859375 53.851562 262.761719 " fill-opacity="1" fill-rule="nonzero"/><path fill="#1f13ff" d="M 16.359375 188.058594 C 16.632812 184.816406 16.386719 179.765625 14.980469 178.683594 C 14.871094 178.644531 14.71875 178.59375 14.609375 178.613281 C 12.226562 179.027344 11.550781 191.671875 13.792969 193.816406 C 14.855469 194.832031 16.003906 192.25 16.359375 188.058594 " fill-opacity="1" fill-rule="nonzero"/><path fill="#1f13ff" d="M 11.636719 188.378906 C 11.574219 188.332031 11.484375 188.257812 11.40625 188.265625 C 9.976562 188.421875 10.625 202.179688 12.136719 203.761719 C 12.777344 204.429688 13.199219 201.976562 13.117188 198.058594 C 13.050781 194.792969 12.546875 189.632812 11.636719 188.378906 " fill-opacity="1" fill-rule="nonzero"/><path fill="#1f13ff" d="M 64.472656 236.628906 C 63.75 233.699219 60.863281 229.574219 56.695312 229.578125 C 56.394531 229.613281 55.988281 229.667969 55.699219 229.765625 C 51.300781 231.214844 52.628906 239 57.785156 242.015625 C 62.070312 244.519531 65.695312 241.597656 64.472656 236.628906 " fill-opacity="1" fill-rule="nonzero"/><path fill="#1f13ff" d="M 62.570312 230.082031 C 67.058594 233.277344 71.726562 230.027344 70.757812 224.378906 C 70.226562 221.292969 67.492188 217.023438 63.078125 217.1875 C 62.914062 217.214844 62.695312 217.238281 62.53125 217.273438 C 57.523438 218.367188 57.546875 226.507812 62.570312 230.082031 " fill-opacity="1" fill-rule="nonzero"/><path fill="#1f13ff" d="M 54.492188 270.546875 C 56.648438 271 56.886719 269.164062 55.039062 266.371094 C 53.542969 264.105469 50.101562 260.703125 47.144531 260.226562 C 46.753906 260.214844 46.347656 260.199219 46.011719 260.476562 C 43.996094 262.140625 50.335938 269.667969 54.492188 270.546875 " fill-opacity="1" fill-rule="nonzero"/><path fill="#1f13ff" d="M 57.097656 277.433594 C 58.222656 277.480469 57.675781 276.003906 55.761719 273.847656 C 53.964844 271.816406 50.347656 268.679688 47.945312 268.066406 C 47.628906 268.027344 47.328125 267.988281 47.160156 268.207031 C 46.015625 269.644531 54.285156 277.320312 57.097656 277.433594 " fill-opacity="1" fill-rule="nonzero"/><path fill="#1f13ff" d="M 11.324219 175.390625 C 11.3125 175.363281 11.292969 175.324219 11.28125 175.292969 C 11.253906 175.292969 11.214844 175.289062 11.183594 175.289062 C 10.4375 176.546875 9.71875 188.019531 10.296875 189.398438 C 10.328125 189.402344 10.367188 189.402344 10.398438 189.402344 C 10.722656 188.804688 10.996094 185.945312 11.132812 184.296875 C 11.355469 181.523438 11.609375 176.652344 11.324219 175.390625 " fill-opacity="1" fill-rule="nonzero"/><path fill="#1f13ff" d="M 14.34375 174.792969 C 14.894531 171.875 15.355469 167.285156 14.652344 166.21875 C 14.597656 166.175781 14.507812 166.117188 14.4375 166.125 C 12.894531 166.296875 10.921875 178.566406 12.214844 179.941406 C 12.761719 180.527344 13.679688 178.3125 14.34375 174.792969 " fill-opacity="1" fill-rule="nonzero"/><path fill="#1f13ff" d="M 19.554688 165.097656 C 20.375 162.230469 21.039062 157.792969 19.953125 156.890625 C 19.90625 156.875 19.84375 156.84375 19.796875 156.832031 C 17.675781 156.484375 14.535156 167.480469 16.019531 170.050781 C 16.785156 171.382812 18.402344 169.113281 19.554688 165.097656 " fill-opacity="1" fill-rule="nonzero"/><path fill="#1f13ff" d="M 21.75 160.128906 C 22.660156 161.792969 24.917969 159.472656 26.484375 155.261719 C 27.519531 152.46875 28.347656 148.207031 26.941406 147.476562 C 24.304688 147.007812 20.132812 157.175781 21.75 160.128906 " fill-opacity="1" fill-rule="nonzero"/><path fill="#1f13ff" d="M 21.371094 177.492188 C 21.898438 174.539062 21.875 170.007812 20.175781 169.183594 C 20.109375 169.171875 20.019531 169.144531 19.949219 169.140625 C 17.203125 168.996094 15.1875 179.527344 17.378906 182.558594 C 18.652344 184.316406 20.589844 181.855469 21.371094 177.492188 " fill-opacity="1" fill-rule="nonzero"/><path fill="#1f13ff" d="M 23.042969 172.019531 C 24.5 174.164062 27.191406 171.644531 28.371094 167.027344 C 29.113281 164.128906 29.238281 159.75 27.1875 159.105469 C 23.53125 158.8125 20.976562 168.980469 23.042969 172.019531 " fill-opacity="1" fill-rule="nonzero"/><path fill="#1f13ff" d="M 47.207031 179 C 47.515625 175.996094 46.453125 171.683594 43.128906 171.5 C 38.457031 171.925781 36.644531 180.261719 39.429688 183.972656 C 42.121094 187.5625 46.628906 184.683594 47.207031 179 " fill-opacity="1" fill-rule="nonzero"/><path fill="#1f13ff" d="M 55.753906 190.078125 C 55.796875 187.023438 54.148438 182.710938 50.335938 182.691406 C 44.992188 183.367188 43.890625 191.769531 47.515625 195.484375 C 50.894531 198.945312 55.667969 195.816406 55.753906 190.078125 " fill-opacity="1" fill-rule="nonzero"/><path fill="#1f13ff" d="M 57.546875 206.675781 C 61.511719 209.984375 66.503906 206.628906 66.164062 200.882812 C 65.980469 197.792969 63.816406 193.511719 59.585938 193.660156 C 53.761719 194.574219 53.246094 203.089844 57.546875 206.675781 " fill-opacity="1" fill-rule="nonzero"/><path fill="#1f13ff" d="M 70.597656 204.335938 C 64.796875 205.40625 64.394531 213.363281 68.675781 217.050781 C 73.109375 220.867188 78.855469 217.402344 78.132812 211.347656 C 77.761719 208.242188 75.179688 204.015625 70.597656 204.335938 " fill-opacity="1" fill-rule="nonzero"/><path fill="#1f13ff" d="M 38.164062 160.210938 C 33.863281 160.425781 31.421875 169.25 33.789062 172.699219 C 35.867188 175.734375 39.730469 173 40.792969 167.746094 C 41.386719 164.816406 40.960938 160.542969 38.164062 160.210938 " fill-opacity="1" fill-rule="nonzero"/><path fill="#1f13ff" d="M 30.316406 161.285156 C 31.824219 163.785156 35.148438 161.242188 36.671875 156.425781 C 37.566406 153.597656 37.820312 149.40625 35.570312 148.945312 C 31.707031 148.933594 28.414062 158.125 30.316406 161.285156 " fill-opacity="1" fill-rule="nonzero"/><path fill="#1f13ff" d="M 41.535156 219.511719 L 41.488281 219.589844 L 41.5 219.597656 Z M 41.535156 219.511719 " fill-opacity="1" fill-rule="nonzero"/><path fill="#1f13ff" d="M 44.390625 231.164062 L 44.476562 231.242188 L 44.398438 231.164062 C 44.398438 231.164062 44.394531 231.164062 44.390625 231.164062 " fill-opacity="1" fill-rule="nonzero"/><path fill="#1f13ff" d="M 80.550781 269.292969 C 84.820312 270.964844 87.769531 268.664062 86.09375 264.972656 C 85.101562 262.792969 81.933594 259.804688 77.988281 259.980469 C 77.578125 260.042969 77.066406 260.117188 76.578125 260.367188 C 73.285156 262.035156 75.660156 267.375 80.550781 269.292969 " fill-opacity="1" fill-rule="nonzero"/><path fill="#1f13ff" d="M 79.914062 277.894531 C 83.160156 278.523438 84.492188 276.578125 82.710938 273.816406 C 81.5625 272.03125 78.367188 269.21875 74.691406 269.257812 C 74.449219 269.273438 73.710938 269.324219 73.136719 269.742188 C 70.546875 271.605469 74.984375 276.941406 79.914062 277.894531 " fill-opacity="1" fill-rule="nonzero"/><path fill="#1f13ff" d="M 63.875 177.695312 C 64.03125 174.832031 62.59375 170.84375 58.902344 170.953125 C 54.402344 171.425781 52.195312 178.683594 55.375 182.546875 C 58.40625 186.222656 63.566406 183.277344 63.875 177.695312 " fill-opacity="1" fill-rule="nonzero"/><path fill="#1f13ff" d="M 51.832031 160.367188 C 47.386719 160.949219 45.320312 168.484375 47.753906 171.835938 C 50.148438 175.136719 54.640625 172.546875 55.503906 167.367188 C 55.980469 164.503906 55.15625 160.441406 51.832031 160.367188 " fill-opacity="1" fill-rule="nonzero"/><path fill="#1f13ff" d="M 13.222656 166.109375 C 13.726562 165.839844 14.617188 163.070312 15.101562 161.445312 C 15.292969 160.800781 16.96875 155.121094 16.71875 153.738281 C 16.699219 153.699219 16.65625 153.644531 16.613281 153.628906 C 16.589844 153.636719 16.558594 153.648438 16.535156 153.660156 C 15.386719 154.433594 12.351562 165.835938 13.222656 166.109375 " fill-opacity="1" fill-rule="nonzero"/><path fill="#1f13ff" d="M 90.882812 254.683594 C 90.09375 252.449219 87.339844 249.25 82.996094 249.585938 C 82.671875 249.648438 82.234375 249.726562 81.917969 249.839844 C 77.863281 251.28125 79.046875 257.144531 83.867188 259.488281 C 88.023438 261.507812 92.511719 259.28125 90.882812 254.683594 " fill-opacity="1" fill-rule="nonzero"/><path fill="#1f13ff" d="M 73.351562 289.425781 C 73.953125 289.328125 72.601562 288.179688 71.140625 287.136719 C 69.476562 285.953125 65.757812 283.574219 63.5625 283.035156 C 63.296875 282.996094 63.070312 282.964844 63.011719 283.113281 C 62.601562 284.152344 71.683594 289.695312 73.351562 289.425781 " fill-opacity="1" fill-rule="nonzero"/><path fill="#1f13ff" d="M 80.40625 284.789062 C 82.6875 284.945312 82.996094 283.539062 81.140625 281.445312 C 79.925781 280.070312 76.71875 277.445312 73.289062 277.339844 C 72.832031 277.371094 72.398438 277.402344 72.035156 277.671875 C 69.941406 279.238281 76.121094 284.492188 80.40625 284.789062 " fill-opacity="1" fill-rule="nonzero"/><path fill="#1f13ff" d="M 42.367188 161.035156 C 44.035156 163.488281 47.921875 161.609375 49.207031 156.671875 C 49.679688 154.859375 50.199219 150.113281 46.988281 149.882812 C 42.929688 150.265625 40.324219 158.023438 42.367188 161.035156 " fill-opacity="1" fill-rule="nonzero"/><path fill="#1f13ff" d="M 20.3125 152.464844 C 21.164062 150.363281 22.632812 146.125 22.0625 145.128906 C 22.035156 145.109375 22 145.074219 21.96875 145.066406 C 20.660156 144.613281 16.511719 155 17.296875 156.761719 C 17.679688 157.621094 18.949219 155.816406 20.3125 152.464844 " fill-opacity="1" fill-rule="nonzero"/><path fill="#1f13ff" d="M 68.027344 181.546875 C 62.542969 182.558594 62.039062 189.925781 65.082031 193.097656 C 68.347656 196.5 74.117188 194.105469 73.96875 188.058594 C 73.871094 184.089844 71.207031 181.167969 68.027344 181.546875 " fill-opacity="1" fill-rule="nonzero"/><path fill="#1f13ff" d="M 90.664062 221.410156 C 90.195312 218.707031 87.804688 214.847656 83.15625 215.308594 C 77.652344 216.179688 77.5625 223.792969 81.824219 226.957031 C 85.90625 229.988281 91.6875 227.28125 90.664062 221.410156 " fill-opacity="1" fill-rule="nonzero"/><path fill="#1f13ff" d="M 88.78125 248.265625 C 93.273438 251.082031 98.242188 248.171875 97.089844 243.398438 C 96.277344 240.050781 92.664062 237.539062 89.355469 238.03125 C 89.1875 238.066406 88.960938 238.101562 88.792969 238.148438 C 84.234375 239.363281 84.226562 245.414062 88.78125 248.265625 " fill-opacity="1" fill-rule="nonzero"/><path fill="#1f13ff" d="M 35.15625 138.476562 C 32.292969 138.296875 28.378906 146.828125 29.46875 149.328125 C 30.257812 151.140625 32.847656 149.121094 34.605469 145.328125 C 35.679688 143.007812 36.78125 139.09375 35.15625 138.476562 " fill-opacity="1" fill-rule="nonzero"/><path fill="#1f13ff" d="M 82.589844 290.316406 C 83.707031 290.222656 83.332031 289.1875 81.671875 287.796875 C 79.417969 285.90625 75.785156 284.179688 73.898438 284.097656 C 73.550781 284.105469 73.226562 284.113281 73.011719 284.3125 C 71.59375 285.644531 79.472656 290.585938 82.589844 290.316406 " fill-opacity="1" fill-rule="nonzero"/><path fill="#1f13ff" d="M 44.476562 139.464844 C 41.261719 139.675781 37.644531 146.710938 39.105469 149.917969 C 40.265625 152.476562 43.78125 150.097656 45.371094 145.675781 C 46.238281 143.269531 46.53125 139.753906 44.476562 139.464844 " fill-opacity="1" fill-rule="nonzero"/><path fill="#1f13ff" d="M 23.320312 147.417969 C 23.742188 148.539062 25.609375 146.546875 27.316406 143.144531 C 28.457031 140.875 29.796875 137.195312 29.054688 136.507812 C 29.050781 136.503906 29.046875 136.5 29.042969 136.5 C 27.320312 135.832031 22.453125 145.117188 23.320312 147.417969 " fill-opacity="1" fill-rule="nonzero"/><path fill="#1f13ff" d="M 78.914062 191.9375 C 73.980469 192.710938 72.570312 199.914062 76.660156 203.4375 C 80.667969 206.894531 86.105469 203.625 85.609375 198.058594 C 85.359375 195.277344 83.121094 191.539062 78.914062 191.9375 " fill-opacity="1" fill-rule="nonzero"/><path fill="#1f13ff" d="M 99.378906 272.140625 C 98.347656 269.648438 94.691406 267.621094 91.855469 267.964844 C 91.59375 268.011719 91.246094 268.074219 90.996094 268.164062 C 87.851562 269.285156 88.636719 273.527344 93.457031 275.570312 C 97.757812 277.390625 100.613281 275.117188 99.378906 272.140625 " fill-opacity="1" fill-rule="nonzero"/><path fill="#1f13ff" d="M 95.917969 280.304688 C 94.847656 278.664062 91.660156 276.476562 88.464844 276.625 C 87.890625 276.683594 87.421875 276.84375 87.066406 277.101562 C 84.8125 278.738281 88.265625 282.722656 92.75 283.664062 C 96.195312 284.386719 97.300781 282.417969 95.917969 280.304688 " fill-opacity="1" fill-rule="nonzero"/><path fill="#1f13ff" d="M 67.691406 159.304688 C 63.976562 159.792969 61.289062 166.105469 64.242188 169.726562 C 66.964844 173.066406 71.722656 170.445312 72.191406 165.339844 C 72.433594 162.6875 71.007812 159.117188 67.691406 159.304688 " fill-opacity="1" fill-rule="nonzero"/><path fill="#1f13ff" d="M 64.09375 155.316406 C 64.675781 151.996094 63.089844 149.152344 60.773438 149.34375 C 56.886719 149.996094 54.4375 156.472656 56.863281 159.6875 C 59.179688 162.757812 63.34375 159.621094 64.09375 155.316406 " fill-opacity="1" fill-rule="nonzero"/><path fill="#1f13ff" d="M 23.363281 140.421875 C 23.847656 139.527344 26.242188 135.023438 26.15625 133.898438 C 26.144531 133.878906 26.132812 133.84375 26.117188 133.832031 C 25.363281 133.277344 20.324219 142.839844 20.722656 144.066406 C 20.878906 144.546875 21.890625 143.152344 23.363281 140.421875 " fill-opacity="1" fill-rule="nonzero"/><path fill="#1f13ff" d="M 51.496094 149.300781 C 52.964844 151.855469 56.890625 149.910156 58.105469 145.085938 C 58.65625 142.894531 58.570312 139.617188 56.082031 139.570312 C 52.472656 140.058594 49.910156 146.535156 51.496094 149.300781 " fill-opacity="1" fill-rule="nonzero"/><path fill="#1f13ff" d="M 76.671875 169.328125 C 72.324219 170.007812 70.578125 176.765625 73.925781 179.960938 C 77.171875 183.058594 82.210938 179.980469 82.097656 174.96875 C 82.039062 172.59375 80.519531 168.960938 76.671875 169.328125 " fill-opacity="1" fill-rule="nonzero"/><path fill="#1f13ff" d="M 104.128906 262.191406 C 103.09375 259.519531 99.867188 257.695312 96.941406 258.128906 C 96.652344 258.1875 96.265625 258.265625 95.992188 258.367188 C 92.316406 259.683594 93.125 264.460938 97.363281 266.480469 C 101.613281 268.503906 105.59375 265.976562 104.128906 262.191406 " fill-opacity="1" fill-rule="nonzero"/><path fill="#1f13ff" d="M 94.226562 287.214844 C 92.421875 285.351562 89.183594 283.929688 87.015625 284.046875 C 86.652344 284.089844 86.046875 284.152344 85.707031 284.507812 C 84.257812 286.035156 89.648438 289.851562 93.394531 289.957031 C 95.476562 290.015625 95.828125 288.859375 94.226562 287.214844 " fill-opacity="1" fill-rule="nonzero"/><path fill="#1f13ff" d="M 44.25 129.5 C 41.867188 129.28125 37.425781 136.375 38.3125 138.992188 C 38.9375 140.824219 41.6875 139.328125 43.757812 135.234375 C 44.675781 133.414062 45.960938 129.875 44.25 129.5 " fill-opacity="1" fill-rule="nonzero"/><path fill="#1f13ff" d="M 86.035156 294.503906 C 86.566406 294.394531 85.769531 293.691406 83.910156 292.625 C 83.453125 292.359375 79.359375 290.042969 76.773438 289.671875 C 76.503906 289.65625 76.246094 289.644531 76.160156 289.773438 C 75.570312 290.652344 84.339844 294.847656 86.035156 294.503906 " fill-opacity="1" fill-rule="nonzero"/><path fill="#1f13ff" d="M 110.421875 251.511719 C 109.90625 249.425781 107.597656 246.523438 103.335938 247.082031 C 103.335938 247.082031 103.332031 247.082031 103.332031 247.082031 C 103.332031 247.082031 103.332031 247.082031 103.328125 247.082031 C 103.328125 247.082031 103.328125 247.085938 103.328125 247.085938 C 103.324219 247.085938 103.324219 247.085938 103.324219 247.085938 C 102.671875 247.234375 101.316406 247.546875 100.394531 248.789062 C 98.199219 251.757812 101.171875 257.441406 106.902344 256.683594 C 106.902344 256.683594 106.90625 256.683594 106.90625 256.683594 C 106.90625 256.679688 106.90625 256.679688 106.90625 256.679688 C 106.90625 256.679688 106.90625 256.679688 106.910156 256.679688 C 106.914062 256.679688 106.914062 256.679688 106.914062 256.679688 C 106.914062 256.679688 106.917969 256.679688 106.917969 256.679688 C 111.3125 255.667969 110.527344 251.9375 110.421875 251.511719 " fill-opacity="1" fill-rule="nonzero"/><path fill="#1f13ff" d="M 104.117188 230.988281 C 103.695312 228.59375 101.328125 225 96.746094 225.558594 C 91.410156 226.804688 91.4375 233.335938 95.601562 236.074219 C 99.871094 238.875 104.960938 235.835938 104.117188 230.988281 " fill-opacity="1" fill-rule="nonzero"/><path fill="#1f13ff" d="M 91.300781 202.234375 C 86.375 203.144531 85.335938 210.222656 89.667969 213.375 C 93.816406 216.394531 99.035156 212.992188 98.257812 207.773438 C 97.804688 204.726562 95.210938 201.746094 91.300781 202.234375 " fill-opacity="1" fill-rule="nonzero"/><path fill="#1f13ff" d="M 18.097656 148.703125 C 18.820312 146.976562 20.519531 142.851562 20.730469 141.824219 C 20.734375 141.800781 20.734375 141.765625 20.734375 141.738281 C 20.71875 141.738281 20.695312 141.738281 20.675781 141.738281 C 19.964844 142.617188 15.984375 152.03125 16.316406 152.613281 C 16.421875 152.464844 16.671875 152.121094 18.097656 148.703125 " fill-opacity="1" fill-rule="nonzero"/><path fill="#1f13ff" d="M 75.671875 291.433594 C 70.976562 289 69.636719 288.410156 68.945312 288.160156 C 68.945312 288.160156 68.941406 288.160156 68.941406 288.160156 C 68.941406 288.160156 68.9375 288.160156 68.9375 288.160156 C 68.9375 288.160156 68.9375 288.15625 68.9375 288.15625 C 68.871094 288.136719 68.777344 288.113281 68.710938 288.101562 C 68.707031 288.117188 68.699219 288.140625 68.695312 288.15625 C 69.671875 289.078125 77.878906 293.042969 78.847656 293.195312 C 78.808594 293.113281 78.78125 293.046875 75.671875 291.433594 " fill-opacity="1" fill-rule="nonzero"/><path fill="#1f13ff" d="M 31 137.792969 C 31.34375 139.011719 33.257812 137.808594 35.453125 134.128906 C 35.578125 133.917969 38.527344 128.941406 37.253906 128.152344 C 35.0625 127.808594 30.445312 135.832031 31 137.792969 " fill-opacity="1" fill-rule="nonzero"/><path fill="#1f13ff" d="M 95.085938 294.769531 C 95.085938 294.769531 95.089844 294.769531 95.089844 294.769531 C 95.09375 294.769531 95.09375 294.769531 95.09375 294.769531 C 95.167969 294.761719 95.269531 294.761719 95.34375 294.753906 C 96.394531 294.632812 96.109375 293.863281 94.617188 292.796875 C 92.503906 291.289062 89.335938 290.078125 87.546875 290.097656 C 87.230469 290.121094 86.898438 290.140625 86.691406 290.3125 C 85.554688 291.253906 91.339844 294.695312 95.085938 294.769531 " fill-opacity="1" fill-rule="nonzero"/><path fill="#1f13ff" d="M 53.742188 129.9375 C 53.382812 129.972656 52.839844 130.03125 51.925781 130.773438 C 48.648438 133.433594 46.804688 139.757812 49.902344 139.980469 C 49.902344 139.980469 49.902344 139.980469 49.90625 139.980469 C 49.90625 139.980469 49.90625 139.980469 49.910156 139.980469 C 52.472656 139.71875 54.144531 135.921875 54.328125 135.488281 C 55.457031 132.808594 55.492188 129.9375 53.742188 129.9375 " fill-opacity="1" fill-rule="nonzero"/><path fill="#1f13ff" d="M 33.15625 125.976562 C 32.34375 125.785156 26.214844 133.90625 27.035156 135.570312 C 27.035156 135.570312 27.035156 135.570312 27.039062 135.574219 C 27.035156 135.574219 27.039062 135.574219 27.039062 135.574219 C 27.746094 135.984375 30.222656 132.226562 30.503906 131.796875 C 31.386719 130.441406 33.601562 126.757812 33.238281 126.019531 C 33.210938 126.007812 33.183594 125.980469 33.15625 125.976562 " fill-opacity="1" fill-rule="nonzero"/><path fill="#1f13ff" d="M 87.472656 179.246094 C 82.1875 180.488281 82.082031 187.101562 85.210938 189.75 C 88.464844 192.5 93.90625 190.019531 93.542969 184.746094 C 93.300781 181.171875 90.574219 178.707031 87.472656 179.246094 " fill-opacity="1" fill-rule="nonzero"/><path fill="#1f13ff" d="M 99.753906 188.980469 C 95.367188 190.121094 94.097656 195.753906 97.53125 198.863281 C 101.484375 202.445312 106.59375 198.882812 106.1875 194.21875 C 105.96875 191.675781 103.609375 188.445312 99.753906 188.980469 " fill-opacity="1" fill-rule="nonzero"/><path fill="#1f13ff" d="M 111.738281 217.464844 C 111.292969 214.132812 107.902344 211.566406 104.765625 212.179688 C 100.257812 213.371094 99.183594 219.246094 102.910156 222.320312 C 107.304688 225.945312 112.390625 222.285156 111.738281 217.464844 " fill-opacity="1" fill-rule="nonzero"/><path fill="#1f13ff" d="M 117.605469 239.375 C 117.0625 236.492188 113.730469 234.324219 110.753906 234.914062 C 106.328125 236.070312 105.480469 241.300781 109.289062 243.941406 C 113.640625 246.960938 118.398438 243.574219 117.605469 239.375 " fill-opacity="1" fill-rule="nonzero"/><path fill="#1f13ff" d="M 39.964844 128.414062 C 40.179688 129.976562 42.710938 127.933594 44.632812 125.164062 C 46.007812 123.179688 47.410156 120.222656 46.460938 119.839844 C 44.4375 119.773438 39.640625 126.101562 39.964844 128.414062 " fill-opacity="1" fill-rule="nonzero"/><path fill="#1f13ff" d="M 112.0625 278.105469 C 111.246094 276.101562 108.011719 274.488281 105.53125 274.855469 C 105.296875 274.902344 104.988281 274.96875 104.765625 275.046875 C 102.132812 276.007812 102.488281 279.269531 106.296875 280.929688 C 110.191406 282.625 113.101562 280.664062 112.0625 278.105469 " fill-opacity="1" fill-rule="nonzero"/><path fill="#1f13ff" d="M 81.722656 293.925781 C 81.652344 293.914062 81.558594 293.902344 81.488281 293.902344 C 81.480469 293.917969 81.46875 293.945312 81.460938 293.960938 C 82.292969 294.78125 89.535156 297.3125 91.179688 297.5625 C 91.195312 297.550781 91.214844 297.53125 91.234375 297.515625 C 90.957031 297.339844 89.996094 296.925781 88.371094 296.28125 C 87.863281 296.078125 83.34375 294.292969 81.722656 293.925781 " fill-opacity="1" fill-rule="nonzero"/><path fill="#1f13ff" d="M 48.019531 129.054688 C 48.566406 130.753906 51.230469 128.984375 53.113281 125.675781 C 54.140625 123.878906 55.21875 120.929688 53.757812 120.679688 C 51.367188 120.847656 47.292969 126.800781 48.019531 129.054688 " fill-opacity="1" fill-rule="nonzero"/><path fill="#1f13ff" d="M 98.730469 298.210938 C 99.132812 297.976562 97.410156 297.148438 96.875 296.902344 C 94.804688 295.945312 91.664062 294.875 90.199219 294.8125 C 89.964844 294.8125 89.722656 294.816406 89.652344 294.9375 C 89.132812 295.792969 97.617188 298.851562 98.730469 298.210938 " fill-opacity="1" fill-rule="nonzero"/><path fill="#1f13ff" d="M 76.339844 147.878906 C 72.671875 148.695312 70.859375 154.316406 73.355469 157.132812 C 75.785156 159.875 80.035156 157.332031 80.355469 152.953125 C 80.570312 149.964844 78.65625 147.546875 76.339844 147.878906 " fill-opacity="1" fill-rule="nonzero"/><path fill="#1f13ff" d="M 69.566406 138.613281 C 66.292969 139.265625 64.089844 144.621094 65.941406 147.429688 C 67.765625 150.199219 71.738281 147.910156 72.480469 143.664062 C 72.984375 140.785156 71.59375 138.378906 69.566406 138.613281 " fill-opacity="1" fill-rule="nonzero"/><path fill="#1f13ff" d="M 105.226562 288.347656 C 108.4375 289.019531 109.714844 287.40625 108.503906 285.617188 C 107.34375 283.898438 104.261719 282.582031 102.042969 282.847656 C 101.625 282.921875 101.226562 282.992188 100.816406 283.273438 C 98.863281 284.613281 101.417969 287.554688 105.226562 288.347656 " fill-opacity="1" fill-rule="nonzero"/><path fill="#1f13ff" d="M 34.882812 126.765625 C 35.027344 127.617188 36.730469 126.21875 38.761719 123.582031 C 38.796875 123.535156 42.210938 119.089844 41.566406 118.375 C 40.21875 118.007812 34.597656 125.0625 34.882812 126.765625 " fill-opacity="1" fill-rule="nonzero"/><path fill="#1f13ff" d="M 105.917969 293.960938 C 107.730469 293.9375 108.0625 293.011719 106.707031 291.761719 C 105.636719 290.773438 103.09375 289.351562 100.484375 289.5 C 100.171875 289.53125 99.601562 289.628906 99.304688 289.921875 C 98.011719 291.210938 102.585938 294.007812 105.917969 293.960938 " fill-opacity="1" fill-rule="nonzero"/><path fill="#1f13ff" d="M 65.035156 129.574219 C 62.195312 129.855469 59.449219 135.539062 60.953125 138.019531 C 62.191406 140.058594 65.617188 138.335938 66.726562 134.34375 C 67.265625 132.398438 67.261719 129.523438 65.035156 129.574219 " fill-opacity="1" fill-rule="nonzero"/><path fill="#1f13ff" d="M 85.203125 157.285156 C 81.378906 157.972656 79.824219 163.808594 82.71875 166.609375 C 85.351562 169.152344 90.167969 166.914062 90.035156 162.148438 C 89.976562 159.964844 88.640625 156.867188 85.203125 157.285156 " fill-opacity="1" fill-rule="nonzero"/><path fill="#1f13ff" d="M 116.988281 268.90625 C 116.449219 267.378906 114.257812 265.132812 110.683594 265.617188 C 110.429688 265.664062 110.042969 265.753906 109.660156 265.917969 C 106.65625 267.179688 107.242188 270.960938 110.6875 272.550781 C 114.332031 274.226562 118.101562 272.050781 116.988281 268.90625 " fill-opacity="1" fill-rule="nonzero"/><path fill="#1f13ff" d="M 28.5625 128.921875 C 30.011719 126.8125 31.789062 124.132812 32.027344 123.34375 C 32.019531 123.320312 32.003906 123.285156 31.996094 123.261719 C 31.144531 123.550781 26.039062 131.234375 26.242188 131.914062 C 26.339844 131.878906 26.589844 131.792969 28.5625 128.921875 " fill-opacity="1" fill-rule="nonzero"/><path fill="#1f13ff" d="M 35.738281 121.277344 C 35.773438 121.234375 39.257812 117.035156 39.265625 116.242188 C 39.253906 116.230469 39.242188 116.214844 39.230469 116.203125 C 38.242188 116.15625 32.28125 123.527344 32.789062 124.171875 C 33.226562 124.203125 34.824219 122.371094 35.738281 121.277344 " fill-opacity="1" fill-rule="nonzero"/><path fill="#1f13ff" d="M 95.023438 298.21875 C 94.792969 298.207031 94.792969 298.207031 94.734375 298.261719 C 95.273438 298.792969 102.914062 300.679688 103.621094 300.457031 C 103.527344 300.40625 103.371094 300.316406 101.210938 299.71875 C 98.101562 298.855469 96.019531 298.351562 95.023438 298.21875 " fill-opacity="1" fill-rule="nonzero"/><path fill="#1f13ff" d="M 113.144531 198.648438 C 108.953125 199.621094 107.875 205.265625 111.335938 208.085938 C 115.054688 211.113281 120.152344 208.109375 119.476562 203.289062 C 119.148438 200.96875 116.96875 197.996094 113.144531 198.648438 " fill-opacity="1" fill-rule="nonzero"/><path fill="#1f13ff" d="M 120.09375 263.144531 C 120.09375 263.144531 120.09375 263.144531 120.097656 263.144531 C 120.097656 263.144531 120.097656 263.144531 120.101562 263.144531 C 120.105469 263.144531 120.105469 263.144531 120.105469 263.144531 C 120.105469 263.144531 120.109375 263.140625 120.109375 263.140625 C 120.109375 263.140625 120.113281 263.140625 120.113281 263.140625 C 120.113281 263.140625 120.113281 263.140625 120.117188 263.140625 C 124.027344 262.164062 123.410156 259.015625 123.328125 258.660156 C 122.921875 256.917969 120.949219 254.542969 117.175781 255.140625 C 115.691406 255.445312 114.894531 256.234375 114.550781 256.675781 C 112.390625 259.460938 115.390625 263.863281 120.089844 263.144531 C 120.089844 263.144531 120.09375 263.144531 120.09375 263.144531 " fill-opacity="1" fill-rule="nonzero"/><path fill="#1f13ff" d="M 62.878906 120.738281 C 60.582031 120.898438 57.421875 126.035156 58.183594 128.375 C 58.820312 130.324219 61.753906 128.941406 63.347656 125.210938 C 64.078125 123.511719 64.59375 120.792969 62.878906 120.738281 " fill-opacity="1" fill-rule="nonzero"/><path fill="#1f13ff" d="M 44.050781 118.238281 C 44.023438 119.21875 45.929688 117.890625 48.132812 115.402344 C 49.265625 114.121094 51.429688 111.339844 50.875 110.925781 C 49.460938 110.78125 44.101562 116.523438 44.050781 118.238281 " fill-opacity="1" fill-rule="nonzero"/><path fill="#1f13ff" d="M 107.792969 297.9375 C 108.453125 297.738281 108.054688 297.144531 106.78125 296.421875 C 105.710938 295.8125 103.105469 294.679688 100.917969 294.730469 C 100.917969 294.730469 100.917969 294.730469 100.914062 294.730469 C 100.910156 294.730469 100.910156 294.730469 100.910156 294.730469 C 100.90625 294.730469 100.90625 294.730469 100.90625 294.730469 C 100.902344 294.730469 100.902344 294.730469 100.902344 294.730469 C 100.644531 294.757812 100.207031 294.800781 100.0625 295.023438 C 99.328125 296.125 105.757812 298.550781 107.792969 297.9375 " fill-opacity="1" fill-rule="nonzero"/><path fill="#1f13ff" d="M 95.878906 166.628906 C 95.875 166.628906 95.875 166.628906 95.875 166.628906 C 95.875 166.628906 95.871094 166.628906 95.871094 166.628906 C 95.871094 166.628906 95.871094 166.628906 95.867188 166.628906 C 95.867188 166.628906 95.867188 166.628906 95.863281 166.628906 C 95.863281 166.628906 95.863281 166.632812 95.863281 166.632812 C 95.859375 166.632812 95.859375 166.632812 95.859375 166.632812 C 95.859375 166.632812 95.855469 166.632812 95.855469 166.632812 C 95.855469 166.632812 95.851562 166.632812 95.851562 166.632812 C 91.171875 167.894531 91.210938 173.839844 94.050781 176.015625 C 97.28125 178.488281 101.695312 175.613281 101.320312 171.285156 C 101.136719 169.203125 99.5 166.09375 95.878906 166.628906 " fill-opacity="1" fill-rule="nonzero"/><path fill="#1f13ff" d="M 89.878906 297.339844 L 90.175781 297.425781 C 89.953125 297.359375 89.722656 297.292969 89.507812 297.222656 L 89.878906 297.339844 " fill-opacity="1" fill-rule="nonzero"/><path fill="#1f13ff" d="M 125.246094 226.171875 C 124.695312 223.222656 121.769531 221.269531 118.855469 221.914062 C 114.140625 223.238281 113.9375 228.863281 117.476562 231.15625 C 121.273438 233.613281 126.066406 230.535156 125.246094 226.171875 " fill-opacity="1" fill-rule="nonzero"/><path fill="#1f13ff" d="M 49.882812 119.339844 C 50.117188 120.511719 52.367188 118.980469 54.417969 116.253906 C 55.394531 114.960938 57.085938 112.199219 56.105469 111.933594 C 54.554688 111.800781 49.46875 117.320312 49.882812 119.339844 " fill-opacity="1" fill-rule="nonzero"/><path fill="#1f13ff" d="M 130.691406 247.21875 C 130.433594 244.992188 127.90625 242.890625 124.695312 243.441406 C 120.988281 244.46875 119.933594 248.546875 122.777344 250.832031 C 126.382812 253.730469 131.117188 250.910156 130.691406 247.21875 " fill-opacity="1" fill-rule="nonzero"/><path fill="#1f13ff" d="M 110.742188 300.640625 C 111.050781 300.472656 109.660156 299.96875 109.222656 299.816406 C 107.445312 299.203125 104.621094 298.527344 103.414062 298.542969 C 103.234375 298.554688 102.9375 298.570312 102.9375 298.710938 C 102.933594 299.414062 109.863281 301.128906 110.742188 300.640625 " fill-opacity="1" fill-rule="nonzero"/><path fill="#1f13ff" d="M 108.101562 175.820312 C 108.097656 175.820312 108.097656 175.820312 108.097656 175.820312 C 108.097656 175.820312 108.09375 175.820312 108.09375 175.820312 C 108.09375 175.820312 108.09375 175.820312 108.089844 175.820312 C 108.085938 175.820312 108.085938 175.820312 108.085938 175.820312 C 108.085938 175.824219 108.082031 175.824219 108.082031 175.824219 C 108.082031 175.824219 108.082031 175.824219 108.078125 175.824219 C 103.992188 177.011719 103.140625 182.605469 106.675781 185.03125 C 110.378906 187.574219 114.429688 184.070312 113.847656 180.097656 C 113.535156 177.96875 111.363281 175.300781 108.101562 175.820312 " fill-opacity="1" fill-rule="nonzero"/><path fill="#1f13ff" d="M 57.964844 119.371094 C 58.363281 120.726562 60.738281 119.140625 62.425781 116.402344 C 63.207031 115.132812 64.40625 112.457031 63.128906 112.300781 C 61.035156 112.554688 57.414062 117.511719 57.964844 119.371094 " fill-opacity="1" fill-rule="nonzero"/><path fill="#1f13ff" d="M 40.960938 116.410156 C 40.960938 116.410156 40.960938 116.410156 40.960938 116.414062 C 40.960938 116.414062 40.964844 116.414062 40.964844 116.414062 C 41.464844 116.625 43.78125 114.292969 44.480469 113.574219 C 44.621094 113.429688 47.933594 110.007812 47.773438 109.414062 C 47.753906 109.40625 47.734375 109.390625 47.714844 109.386719 C 47.03125 109.273438 40.488281 115.238281 40.960938 116.410156 " fill-opacity="1" fill-rule="nonzero"/><path fill="#1f13ff" d="M 123.734375 282.980469 C 123.195312 281.820312 121.21875 280.355469 118.511719 280.726562 C 118.128906 280.796875 117.746094 280.925781 117.457031 281.078125 C 115.4375 282.164062 116.320312 284.605469 119.085938 285.582031 C 122.03125 286.621094 124.722656 285.113281 123.734375 282.980469 " fill-opacity="1" fill-rule="nonzero"/><path fill="#1f13ff" d="M 82.09375 144.679688 C 84.238281 147 87.890625 144.601562 87.925781 140.851562 C 87.945312 139.042969 86.878906 136.617188 84.460938 136.898438 C 81.488281 137.449219 79.984375 142.394531 82.09375 144.679688 " fill-opacity="1" fill-rule="nonzero"/><path fill="#1f13ff" d="M 117.140625 292.066406 C 119.660156 292.523438 121.179688 291.4375 120.144531 289.917969 C 119.246094 288.59375 116.804688 287.671875 114.914062 287.949219 C 114.609375 288.007812 114.101562 288.109375 113.714844 288.414062 C 112.351562 289.496094 114.273438 291.542969 117.140625 292.066406 " fill-opacity="1" fill-rule="nonzero"/><path fill="#1f13ff" d="M 77.816406 128.394531 C 74.828125 129.054688 73.414062 134.035156 75.074219 135.933594 C 76.605469 137.691406 79.828125 135.9375 80.300781 132.34375 C 80.578125 130.234375 79.707031 128.125 77.816406 128.394531 " fill-opacity="1" fill-rule="nonzero"/><path fill="#1f13ff" d="M 128.894531 274.578125 C 128.476562 273.335938 126.765625 271.664062 123.777344 272.152344 C 123.632812 272.179688 123.324219 272.265625 123.320312 272.265625 C 120.277344 273.191406 120.621094 276.273438 123.144531 277.585938 C 126.21875 279.1875 129.820312 277.300781 128.894531 274.578125 " fill-opacity="1" fill-rule="nonzero"/><path fill="#1f13ff" d="M 73.457031 120.085938 C 71.164062 120.375 68.910156 125.054688 70.105469 127.03125 C 71.105469 128.6875 73.90625 127.257812 74.832031 124 C 75.296875 122.371094 75.3125 119.984375 73.457031 120.085938 " fill-opacity="1" fill-rule="nonzero"/><path fill="#1f13ff" d="M 93.207031 145.601562 C 89.390625 146.601562 89.183594 151.660156 91.386719 153.558594 C 93.667969 155.527344 97.582031 153.558594 97.398438 149.65625 C 97.277344 146.992188 95.394531 145.175781 93.207031 145.601562 " fill-opacity="1" fill-rule="nonzero"/><path fill="#1f13ff" d="M 117.558594 296.867188 C 118.996094 296.777344 119.277344 296.109375 118.25 295.246094 C 117.171875 294.339844 114.996094 293.53125 113.214844 293.75 C 112.945312 293.792969 112.484375 293.867188 112.230469 294.109375 C 111.171875 295.101562 114.90625 297.039062 117.558594 296.867188 " fill-opacity="1" fill-rule="nonzero"/><path fill="#1f13ff" d="M 119.046875 300.042969 C 119.558594 299.886719 119.285156 299.515625 118.328125 299.074219 C 117.308594 298.601562 115.183594 297.9375 113.5 298.046875 C 113.238281 298.074219 112.910156 298.136719 112.804688 298.292969 C 112.304688 299.058594 117.496094 300.511719 119.046875 300.042969 " fill-opacity="1" fill-rule="nonzero"/><path fill="#1f13ff" d="M 60.125 110.589844 C 60.3125 111.421875 62.179688 110.179688 63.976562 108.042969 C 65.386719 106.359375 66.421875 104.515625 65.71875 104.457031 C 64.0625 104.601562 59.828125 109.246094 60.125 110.589844 " fill-opacity="1" fill-rule="nonzero"/><g clip-path="url(#dda265dcfb)"><path fill="#1f13ff" d="M 108.128906 300.984375 C 107.933594 300.984375 107.933594 300.984375 107.886719 301.023438 C 108.394531 301.34375 114.960938 302.21875 115.441406 302.027344 C 115.269531 301.984375 115.042969 301.949219 113.296875 301.683594 C 110.539062 301.261719 109.019531 301.03125 108.128906 300.984375 " fill-opacity="1" fill-rule="nonzero"/></g><path fill="#1f13ff" d="M 71.804688 115.675781 C 72.605469 113.890625 72.6875 111.960938 71.515625 112.050781 C 69.445312 112.429688 66.863281 116.753906 67.675781 118.476562 C 68.335938 119.871094 70.613281 118.328125 71.804688 115.675781 " fill-opacity="1" fill-rule="nonzero"/><path fill="#1f13ff" d="M 50.390625 108.757812 C 50.289062 109.328125 51.824219 108.332031 53.960938 106.441406 C 53.996094 106.410156 57.527344 103.261719 57.273438 102.84375 C 56.324219 102.667969 50.601562 107.585938 50.390625 108.757812 " fill-opacity="1" fill-rule="nonzero"/><path fill="#1f13ff" d="M 127.214844 208.179688 C 122.765625 209.519531 122.941406 214.664062 125.570312 216.777344 C 128.644531 219.25 133.707031 216.980469 133.054688 212.359375 C 132.628906 209.371094 130.011719 207.492188 127.214844 208.179688 " fill-opacity="1" fill-rule="nonzero"/><path fill="#1f13ff" d="M 60.640625 103.910156 C 59.273438 103.882812 54.070312 108.832031 54.164062 110.0625 C 54.214844 110.707031 55.75 109.898438 58.136719 107.472656 C 58.265625 107.339844 61.308594 104.242188 60.640625 103.910156 " fill-opacity="1" fill-rule="nonzero"/><path fill="#1f13ff" d="M 132.90625 230.851562 C 128.90625 231.867188 128.433594 236.597656 131.261719 238.601562 C 134.425781 240.839844 139.003906 238.175781 138.464844 234.40625 C 138.210938 232.652344 136.480469 230.136719 132.90625 230.851562 " fill-opacity="1" fill-rule="nonzero"/><path fill="#1f13ff" d="M 39.371094 113.644531 C 39.382812 113.625 39.378906 113.59375 39.382812 113.574219 C 38.738281 113.859375 33.5625 119.988281 33.550781 120.472656 C 33.695312 120.382812 34.082031 119.972656 35.777344 117.996094 C 38.554688 114.757812 39.148438 114.015625 39.371094 113.644531 " fill-opacity="1" fill-rule="nonzero"/><path fill="#1f13ff" d="M 121.4375 185.070312 C 116.953125 186.433594 117.324219 191.78125 120.214844 193.703125 C 123.558594 195.925781 127.722656 193.097656 127.070312 189.046875 C 126.625 186.253906 124.042969 184.433594 121.4375 185.070312 " fill-opacity="1" fill-rule="nonzero"/><path fill="#1f13ff" d="M 103.800781 154.269531 C 100.054688 155.339844 99.738281 160.304688 102.46875 162.285156 C 105.332031 164.359375 109.070312 161.714844 108.535156 157.996094 C 108.289062 156.292969 106.789062 153.773438 103.800781 154.269531 " fill-opacity="1" fill-rule="nonzero"/><path fill="#1f13ff" d="M 135.414062 264.949219 C 135.070312 263.253906 133.191406 261.730469 130.382812 262.246094 C 126.929688 263.046875 126.566406 266.476562 128.933594 268.109375 C 131.796875 270.082031 136.039062 268.015625 135.414062 264.949219 " fill-opacity="1" fill-rule="nonzero"/><path fill="#1f13ff" d="M 43.136719 111.273438 C 43.171875 111.238281 46.589844 107.949219 46.816406 107.371094 C 46.816406 107.371094 46.816406 107.371094 46.804688 107.339844 C 46.070312 107.3125 40.246094 112.988281 40.382812 113.601562 C 40.644531 113.625 42.222656 112.152344 43.136719 111.273438 " fill-opacity="1" fill-rule="nonzero"/><path fill="#1f13ff" d="M 114.96875 170.753906 C 118.1875 172.859375 121.53125 169.832031 120.929688 166.472656 C 120.613281 164.726562 118.808594 162.390625 115.9375 162.933594 C 112.816406 163.726562 111.703125 168.613281 114.96875 170.753906 " fill-opacity="1" fill-rule="nonzero"/><path fill="#1f13ff" d="M 142.878906 253.9375 C 142.644531 252.171875 140.734375 250.605469 138.050781 251.136719 C 135.15625 251.871094 133.675781 255.371094 136.277344 257.316406 C 139.265625 259.550781 143.273438 256.953125 142.878906 253.9375 " fill-opacity="1" fill-rule="nonzero"/><path fill="#1f13ff" d="M 115.925781 300.886719 C 115.644531 300.914062 115.5625 300.9375 115.539062 301.011719 C 115.804688 301.539062 121.101562 302.113281 121.777344 301.855469 C 121.78125 301.84375 121.78125 301.824219 121.785156 301.808594 C 121.730469 301.769531 121.585938 301.664062 120.289062 301.40625 C 119.808594 301.3125 117.332031 300.835938 115.925781 300.886719 " fill-opacity="1" fill-rule="nonzero"/><path fill="#1f13ff" d="M 67.652344 110.070312 C 67.832031 111.144531 69.640625 110.1875 71.234375 107.734375 C 72.25 106.171875 72.820312 104.507812 71.972656 104.535156 C 70.4375 104.769531 67.40625 108.648438 67.652344 110.070312 " fill-opacity="1" fill-rule="nonzero"/><path fill="#1f13ff" d="M 51.859375 104.773438 C 53.175781 103.710938 55.402344 101.863281 55.5 101.449219 C 55.097656 101.089844 49.046875 105.976562 48.960938 106.734375 C 49.011719 106.785156 49.171875 106.945312 51.859375 104.773438 " fill-opacity="1" fill-rule="nonzero"/><path fill="#1f13ff" d="M 90.140625 132.710938 C 91.777344 134.285156 94.652344 132.722656 94.566406 129.613281 C 94.53125 128.402344 93.890625 126.191406 91.699219 126.503906 C 89.183594 127.035156 88.5 131.136719 90.140625 132.710938 " fill-opacity="1" fill-rule="nonzero"/><path fill="#1f13ff" d="M 130.359375 285.589844 C 130.195312 285.628906 129.976562 285.683594 129.820312 285.738281 C 127.855469 286.445312 128.292969 288.257812 130.042969 289.046875 C 132.042969 289.945312 134.890625 289 134.238281 287.210938 C 133.925781 286.355469 132.636719 285.21875 130.359375 285.589844 " fill-opacity="1" fill-rule="nonzero"/><path fill="#1f13ff" d="M 87.226562 121.855469 C 87.40625 120.132812 86.695312 118.503906 85.199219 118.753906 C 82.886719 119.316406 81.90625 123.160156 83.21875 124.660156 C 84.453125 126.070312 86.933594 124.703125 87.226562 121.855469 " fill-opacity="1" fill-rule="nonzero"/><path fill="#1f13ff" d="M 127.753906 294.816406 C 129.625 295.160156 131.28125 294.460938 130.480469 293.25 C 129.828125 292.261719 128.128906 291.695312 126.609375 291.960938 C 126.363281 292.011719 125.953125 292.101562 125.636719 292.324219 C 124.585938 293.070312 125.753906 294.445312 127.753906 294.816406 " fill-opacity="1" fill-rule="nonzero"/><path fill="#1f13ff" d="M 139.585938 279.53125 C 139.351562 278.570312 138.128906 277.304688 135.726562 277.753906 C 132.882812 278.511719 133.027344 280.859375 134.726562 281.84375 C 136.96875 283.148438 140.101562 281.65625 139.585938 279.53125 " fill-opacity="1" fill-rule="nonzero"/><path fill="#1f13ff" d="M 135.492188 194.207031 C 131.59375 195.292969 131.777344 200.101562 134.214844 201.917969 C 136.980469 203.96875 141.40625 201.660156 140.628906 197.613281 C 140.339844 196.101562 138.890625 193.449219 135.492188 194.207031 " fill-opacity="1" fill-rule="nonzero"/><path fill="#1f13ff" d="M 70.5 97.363281 C 69.320312 97.429688 64.75 101.308594 64.746094 102.25 C 64.742188 102.722656 65.980469 102.101562 68.054688 100.242188 C 68.085938 100.21875 71.042969 97.5625 70.5 97.363281 " fill-opacity="1" fill-rule="nonzero"/><path fill="#1f13ff" d="M 60.824219 101.535156 C 60.789062 101.929688 62.109375 101.160156 64.113281 99.617188 C 64.433594 99.371094 67.246094 97.199219 67.28125 96.765625 C 67.273438 96.757812 67.261719 96.746094 67.253906 96.734375 C 66.367188 96.679688 60.898438 100.761719 60.824219 101.535156 " fill-opacity="1" fill-rule="nonzero"/><path fill="#1f13ff" d="M 139.898438 224.832031 C 142.558594 226.777344 146.972656 224.628906 146.421875 220.753906 C 146.207031 219.25 144.882812 216.617188 141.394531 217.398438 C 137.152344 218.785156 137.796875 223.289062 139.898438 224.832031 " fill-opacity="1" fill-rule="nonzero"/><path fill="#1f13ff" d="M 99.1875 140.789062 C 101.335938 142.558594 104.265625 140.449219 103.871094 137.421875 C 103.691406 136.058594 102.570312 134.027344 100.335938 134.402344 C 97.800781 134.988281 97.074219 139.050781 99.1875 140.789062 " fill-opacity="1" fill-rule="nonzero"/><path fill="#1f13ff" d="M 150.894531 241.628906 C 150.621094 239.6875 148.488281 238.421875 146.414062 238.972656 C 143.335938 239.972656 142.34375 243.492188 144.644531 245.25 C 147.457031 247.394531 151.308594 244.617188 150.894531 241.628906 " fill-opacity="1" fill-rule="nonzero"/><path fill="#1f13ff" d="M 128.132812 298.769531 C 129.023438 298.617188 129.144531 298.152344 128.425781 297.636719 C 127.835938 297.21875 126.3125 296.621094 124.730469 296.8125 C 124.214844 296.890625 123.996094 297.050781 123.90625 297.167969 C 123.289062 297.964844 126.25 299.085938 128.132812 298.769531 " fill-opacity="1" fill-rule="nonzero"/><path fill="#1f13ff" d="M 78.535156 116.628906 C 79.347656 118.023438 81.449219 116.644531 82.105469 114.285156 C 82.542969 112.714844 82.203125 111.078125 81.015625 111.238281 C 79.210938 111.652344 77.636719 115.082031 78.535156 116.628906 " fill-opacity="1" fill-rule="nonzero"/><path fill="#1f13ff" d="M 142.492188 268.511719 C 140.117188 269.21875 139.191406 271.554688 140.75 272.898438 C 142.945312 274.792969 146.453125 272.933594 146.292969 270.601562 C 146.1875 269.105469 144.304688 268.070312 142.492188 268.511719 " fill-opacity="1" fill-rule="nonzero"/><path fill="#1f13ff" d="M 112.570312 149.328125 C 112.570312 149.328125 112.570312 149.328125 112.574219 149.328125 C 112.574219 149.328125 112.574219 149.328125 112.574219 149.324219 C 112.574219 149.328125 112.578125 149.324219 112.578125 149.324219 C 112.582031 149.324219 112.582031 149.324219 112.582031 149.324219 C 114.601562 148.667969 115.054688 146.632812 114.867188 145.425781 C 114.558594 143.429688 112.605469 141.945312 110.847656 142.371094 C 110.492188 142.484375 109.75 142.71875 109.136719 143.679688 C 107.425781 146.347656 109.578125 149.882812 112.570312 149.328125 " fill-opacity="1" fill-rule="nonzero"/><path fill="#1f13ff" d="M 128.183594 178.710938 C 131.289062 181.050781 134.738281 178.207031 134.125 174.886719 C 133.757812 172.90625 131.796875 171.089844 129.261719 171.609375 C 126.191406 172.625 125.566406 176.738281 128.183594 178.710938 " fill-opacity="1" fill-rule="nonzero"/><path fill="#1f13ff" d="M 58.746094 100.253906 C 59.027344 100.34375 60.96875 99.046875 61.789062 98.484375 C 61.824219 98.460938 65.226562 96.128906 65.316406 95.765625 C 64.660156 95.605469 58.703125 99.675781 58.746094 100.253906 " fill-opacity="1" fill-rule="nonzero"/><path fill="#1f13ff" d="M 79.273438 104.09375 C 77.914062 104.394531 75.832031 107.542969 76.367188 108.949219 C 76.839844 110.195312 78.703125 108.582031 79.515625 106.628906 C 80.039062 105.371094 80.046875 104.015625 79.273438 104.09375 " fill-opacity="1" fill-rule="nonzero"/><path fill="#1f13ff" d="M 74.859375 97.574219 C 73.917969 97.597656 70.144531 101.152344 70.167969 102.304688 C 70.183594 103.039062 71.871094 101.796875 73.257812 100.277344 C 74.078125 99.378906 75.394531 97.664062 74.859375 97.574219 " fill-opacity="1" fill-rule="nonzero"/><path fill="#1f13ff" d="M 128.429688 300.5625 C 127.507812 300.261719 125.789062 300.007812 124.871094 300.117188 C 124.703125 300.144531 124.421875 300.191406 124.378906 300.328125 C 124.183594 300.949219 128.285156 301.425781 129.039062 301.082031 C 129.339844 300.941406 128.921875 300.722656 128.429688 300.5625 " fill-opacity="1" fill-rule="nonzero"/><path fill="#1f13ff" d="M 47.871094 104.957031 C 47.878906 104.945312 47.890625 104.925781 47.898438 104.910156 C 47.507812 105.082031 42.65625 109.523438 42.40625 110.070312 C 42.496094 110.003906 42.496094 110.003906 44.496094 108.140625 C 47.058594 105.757812 47.667969 105.191406 47.871094 104.957031 " fill-opacity="1" fill-rule="nonzero"/><path fill="#1f13ff" d="M 51.890625 102.527344 C 55.042969 100.125 55.28125 99.847656 55.453125 99.644531 C 55.117188 99.460938 49.699219 103.609375 49.65625 104.082031 C 49.710938 104.085938 49.835938 104.09375 51.890625 102.527344 " fill-opacity="1" fill-rule="nonzero"/><path fill="#1f13ff" d="M 71.769531 94.78125 C 71.902344 94.945312 72.734375 94.488281 74.738281 93.148438 C 75.160156 92.867188 77.28125 91.4375 77.378906 91.167969 C 77.375 91.164062 77.367188 91.15625 77.363281 91.152344 C 76.964844 91.097656 71.847656 94.097656 71.769531 94.78125 " fill-opacity="1" fill-rule="nonzero"/><path fill="#1f13ff" d="M 153.835938 260.316406 C 153.835938 260.28125 153.675781 257.238281 150.3125 258.144531 C 146.433594 259.332031 148.113281 262.429688 148.480469 262.804688 C 149.734375 264.089844 153.660156 263.40625 153.835938 260.316406 " fill-opacity="1" fill-rule="nonzero"/><path fill="#1f13ff" d="M 79.917969 97.535156 C 78.886719 97.738281 76.558594 100.640625 76.683594 101.5625 C 76.777344 102.261719 78.105469 101.503906 79.222656 99.863281 C 79.492188 99.464844 80.792969 97.488281 79.917969 97.535156 " fill-opacity="1" fill-rule="nonzero"/><g clip-path="url(#23c907a4cd)"><path fill="#1f13ff" d="M 130.324219 301.90625 C 128.601562 301.835938 127.824219 301.824219 127.257812 301.871094 C 126.964844 301.898438 126.953125 301.917969 126.9375 301.953125 C 127.324219 302.175781 130.9375 302.117188 131.460938 301.988281 C 131.429688 301.964844 131.417969 301.953125 130.324219 301.90625 " fill-opacity="1" fill-rule="nonzero"/></g><path fill="#1f13ff" d="M 153.578125 231.945312 C 154.09375 232.335938 155.515625 233.09375 157.542969 231.761719 C 158.207031 231.324219 159.277344 230.304688 159.003906 228.371094 C 158.644531 225.84375 156.609375 225.5 154.976562 225.976562 C 151.683594 227.132812 152.023438 230.78125 153.578125 231.945312 " fill-opacity="1" fill-rule="nonzero"/><path fill="#1f13ff" d="M 148.480469 209.976562 C 150.089844 211.3125 154.59375 210.550781 154.144531 206.21875 C 154.136719 206.179688 153.5625 202.292969 149.78125 203.261719 C 145.742188 204.472656 147.125 208.855469 148.480469 209.976562 " fill-opacity="1" fill-rule="nonzero"/><path fill="#1f13ff" d="M 142.515625 186.761719 C 142.828125 186.972656 144.472656 187.964844 146.347656 186.667969 C 147.167969 186.097656 148.0625 185.035156 147.664062 183.195312 C 147.148438 180.808594 145.4375 179.722656 143.203125 180.367188 C 139.917969 181.542969 140.660156 185.496094 142.515625 186.761719 " fill-opacity="1" fill-rule="nonzero"/><path fill="#1f13ff" d="M 122.515625 156.605469 C 124.386719 157.695312 127.738281 156.6875 127.015625 153.328125 C 126.640625 151.585938 125.164062 150.0625 123.066406 150.515625 C 119.765625 151.441406 120.625 155.503906 122.515625 156.605469 " fill-opacity="1" fill-rule="nonzero"/><path fill="#1f13ff" d="M 64.429688 94.625 C 64.429688 94.613281 64.417969 94.605469 64.414062 94.597656 C 63.871094 94.613281 59.214844 97.457031 58.566406 98.300781 C 58.847656 98.261719 59.515625 97.886719 61.214844 96.8125 C 63.621094 95.289062 64.34375 94.796875 64.429688 94.625 " fill-opacity="1" fill-rule="nonzero"/><path fill="#1f13ff" d="M 136.625 294.953125 C 136.445312 294.996094 136.140625 295.066406 135.921875 295.21875 C 135.378906 295.601562 135.566406 296.398438 136.941406 296.714844 C 138.117188 296.984375 139.726562 296.550781 139.183594 295.664062 C 138.847656 295.125 137.929688 294.691406 136.625 294.953125 " fill-opacity="1" fill-rule="nonzero"/><path fill="#1f13ff" d="M 75.257812 95.171875 C 75.699219 95.011719 76.300781 94.707031 77.71875 93.570312 C 78.878906 92.640625 80.207031 91.523438 79.9375 91.457031 C 79.9375 91.457031 79.933594 91.457031 79.933594 91.457031 C 79.351562 91.488281 74.765625 94.691406 75.257812 95.171875 " fill-opacity="1" fill-rule="nonzero"/><path fill="#1f13ff" d="M 69.578125 94.074219 C 70.066406 93.941406 70.855469 93.535156 72.582031 92.523438 C 75.496094 90.816406 75.53125 90.714844 75.566406 90.621094 C 75.566406 90.621094 75.566406 90.621094 75.5625 90.621094 C 75.136719 90.5625 69.917969 93.398438 69.578125 94.074219 " fill-opacity="1" fill-rule="nonzero"/><path fill="#1f13ff" d="M 140.5625 289.503906 C 140.472656 289.523438 140.382812 289.546875 140.296875 289.574219 C 139.128906 289.9375 138.523438 291.125 140.003906 291.851562 C 141.304688 292.488281 143.507812 291.71875 143.109375 290.472656 C 143.035156 290.242188 142.5625 289.109375 140.5625 289.503906 " fill-opacity="1" fill-rule="nonzero"/><path fill="#1f13ff" d="M 90.175781 114.09375 C 90.820312 114.925781 92.757812 114.664062 92.980469 112.039062 C 92.984375 112.015625 92.972656 109.695312 91.429688 109.914062 C 89.675781 110.289062 89.441406 113.144531 90.175781 114.09375 " fill-opacity="1" fill-rule="nonzero"/><path fill="#1f13ff" d="M 96.984375 121.347656 C 96.992188 121.351562 97.980469 122.171875 98.90625 121.519531 C 99.242188 121.285156 100.125 120.660156 100.027344 119.203125 C 100.019531 119.089844 99.824219 116.496094 97.8125 116.839844 C 95.84375 117.300781 95.792969 120.339844 96.984375 121.347656 " fill-opacity="1" fill-rule="nonzero"/><path fill="#1f13ff" d="M 146.074219 282.570312 C 144.113281 283.121094 144.027344 284.65625 145.011719 285.367188 C 146.113281 286.164062 148.824219 285.441406 148.597656 283.714844 C 148.460938 282.660156 147.492188 282.222656 146.074219 282.570312 " fill-opacity="1" fill-rule="nonzero"/><path fill="#1f13ff" d="M 135.863281 164.222656 C 137.371094 165.183594 140.722656 164.542969 140.144531 161.117188 C 140.046875 160.554688 138.984375 157.863281 136.222656 158.660156 C 133.039062 159.753906 134.542969 163.382812 135.863281 164.222656 " fill-opacity="1" fill-rule="nonzero"/><path fill="#1f13ff" d="M 158.851562 246.519531 C 155.628906 247.601562 156.453125 250.382812 156.964844 251.03125 C 158.164062 252.558594 161.863281 251.621094 162.058594 248.566406 C 162.089844 248.09375 161.625 245.710938 158.851562 246.519531 " fill-opacity="1" fill-rule="nonzero"/><path fill="#1f13ff" d="M 54.1875 99.652344 C 56.746094 97.769531 56.746094 97.769531 56.902344 97.632812 C 56.917969 97.617188 56.941406 97.597656 56.949219 97.578125 C 56.539062 97.75 52.855469 100.496094 52.570312 100.839844 C 53.140625 100.488281 53.648438 100.050781 54.1875 99.652344 " fill-opacity="1" fill-rule="nonzero"/><g clip-path="url(#999ce29d97)"><path fill="#1f13ff" d="M 74.414062 89.964844 C 74.21875 89.859375 69.535156 92.148438 68.980469 92.757812 C 69.132812 92.804688 69.847656 92.449219 71.507812 91.585938 C 73.832031 90.378906 74.347656 90.089844 74.414062 89.964844 " fill-opacity="1" fill-rule="nonzero"/></g><path fill="#1f13ff" d="M 136.539062 299.804688 C 137.3125 299.699219 137.46875 299.496094 137.023438 299.175781 C 137.011719 299.167969 136.039062 298.5625 134.648438 298.808594 C 134.480469 298.839844 134.132812 298.914062 134.023438 299.058594 C 133.757812 299.417969 135.175781 300 136.539062 299.804688 " fill-opacity="1" fill-rule="nonzero"/><path fill="#1f13ff" d="M 88.171875 105.265625 C 88.339844 104.332031 88.339844 103.242188 87.386719 103.355469 C 85.929688 103.632812 85.351562 106.40625 85.882812 107.089844 C 86.378906 107.734375 87.8125 107.269531 88.171875 105.265625 " fill-opacity="1" fill-rule="nonzero"/><path fill="#1f13ff" d="M 155.425781 275.460938 C 155.402344 274.765625 155.066406 273.671875 153.082031 274.152344 C 150.179688 275.042969 151.371094 277.054688 151.636719 277.296875 C 152.601562 278.167969 155.492188 277.363281 155.425781 275.460938 " fill-opacity="1" fill-rule="nonzero"/><path fill="#1f13ff" d="M 81.765625 93.3125 C 81.820312 93.253906 81.894531 93.179688 81.953125 93.121094 C 83.289062 91.738281 83.207031 91.582031 83.03125 91.585938 C 82.34375 91.691406 79.683594 94.152344 79.644531 94.714844 C 79.628906 94.972656 80.136719 94.972656 81.765625 93.3125 " fill-opacity="1" fill-rule="nonzero"/><path fill="#1f13ff" d="M 105.921875 128.648438 C 107.171875 129.476562 109.550781 128.691406 109.035156 126.195312 C 108.765625 124.894531 107.917969 123.640625 106.347656 124.023438 C 103.957031 124.738281 104.78125 127.894531 105.921875 128.648438 " fill-opacity="1" fill-rule="nonzero"/><path fill="#1f13ff" d="M 116.664062 135.84375 C 118.160156 136.71875 120.441406 135.632812 119.753906 133.328125 C 119.476562 132.394531 118.726562 130.886719 116.835938 131.316406 C 114.394531 131.996094 115.4375 135.121094 116.664062 135.84375 " fill-opacity="1" fill-rule="nonzero"/><path fill="#1f13ff" d="M 156.707031 194.226562 C 158.050781 195.457031 161.492188 195.046875 161.195312 191.179688 C 161.109375 190.089844 159.789062 189.199219 159.773438 189.191406 C 158.925781 188.664062 158.128906 188.882812 157.695312 189 C 154.734375 189.976562 155.570312 193.183594 156.707031 194.226562 " fill-opacity="1" fill-rule="nonzero"/><path fill="#1f13ff" d="M 134.6875 301.007812 C 134.570312 301.027344 134.324219 301.070312 134.328125 301.132812 C 134.339844 301.222656 134.902344 301.320312 135.800781 301.328125 C 136.242188 301.332031 137.273438 301.269531 137.324219 301.15625 C 137.292969 301.128906 137.246094 301.105469 136.898438 301.046875 C 136.886719 301.046875 135.644531 300.863281 134.6875 301.007812 " fill-opacity="1" fill-rule="nonzero"/><path fill="#1f13ff" d="M 83.96875 100.246094 C 84.03125 100.417969 84.230469 100.769531 84.769531 100.367188 C 85.070312 100.144531 85.511719 99.746094 85.882812 98.832031 C 86.144531 98.175781 86.488281 97.085938 85.808594 97.136719 C 84.902344 97.28125 83.714844 99.523438 83.96875 100.246094 " fill-opacity="1" fill-rule="nonzero"/><path fill="#1f13ff" d="M 162.558594 217.34375 C 163.304688 217.859375 164.777344 217.886719 165.292969 217.523438 C 165.777344 217.1875 167.25 216.160156 166.949219 214.28125 C 166.707031 212.769531 165.59375 211.523438 163.644531 212.144531 C 160.574219 213.277344 161.457031 216.574219 162.558594 217.34375 " fill-opacity="1" fill-rule="nonzero"/><path fill="#1f13ff" d="M 62.078125 94.875 C 62.101562 94.859375 64.523438 93.445312 64.792969 93.191406 C 64.792969 93.183594 64.792969 93.171875 64.792969 93.164062 C 64.398438 93.234375 60.730469 95.355469 60.246094 95.863281 C 60.246094 95.871094 60.25 95.878906 60.25 95.886719 C 60.40625 95.84375 60.847656 95.589844 62.078125 94.875 " fill-opacity="1" fill-rule="nonzero"/><path fill="#1f13ff" d="M 167.792969 233.953125 C 165.507812 234.707031 165.296875 237.066406 166.375 238.152344 C 167.578125 239.355469 170.4375 238.070312 170.398438 235.851562 C 170.390625 235.414062 170.226562 233.261719 167.792969 233.953125 " fill-opacity="1" fill-rule="nonzero"/><path fill="#1f13ff" d="M 163.210938 265.738281 C 163.21875 265.167969 163.023438 263.902344 161.125 264.398438 C 158.90625 265.070312 158.960938 266.957031 159.578125 267.605469 C 160.523438 268.597656 163.195312 267.511719 163.210938 265.738281 " fill-opacity="1" fill-rule="nonzero"/><path fill="#1f13ff" d="M 150.074219 171.5 C 151.632812 172.488281 154.328125 171.273438 153.652344 168.824219 C 153.476562 168.191406 152.722656 166.179688 150.417969 166.820312 C 147.816406 167.683594 148.789062 170.683594 150.074219 171.5 " fill-opacity="1" fill-rule="nonzero"/><path fill="#1f13ff" d="M 128.835938 142.84375 C 129.960938 143.554688 132.402344 143.105469 131.8125 140.621094 C 131.808594 140.597656 131.113281 138.125 128.90625 138.769531 C 126.484375 139.597656 127.96875 142.292969 128.835938 142.84375 " fill-opacity="1" fill-rule="nonzero"/><path fill="#1f13ff" d="M 86.125 92.894531 C 86.230469 92.753906 87.132812 91.507812 86.691406 91.507812 C 86.042969 91.644531 84.675781 93.511719 84.699219 93.925781 C 84.699219 93.933594 84.890625 94.574219 86.125 92.894531 " fill-opacity="1" fill-rule="nonzero"/><path fill="#1f13ff" d="M 144.730469 297.023438 C 144.660156 297.039062 144.59375 297.058594 144.523438 297.082031 C 143.90625 297.289062 144.0625 297.609375 144.359375 297.761719 C 144.851562 298.007812 146.0625 297.808594 145.886719 297.28125 C 145.886719 297.277344 145.628906 296.839844 144.730469 297.023438 " fill-opacity="1" fill-rule="nonzero"/><path fill="#1f13ff" d="M 169.761719 253.523438 C 168.582031 253.957031 167.75 255.421875 168.515625 256.328125 C 169.296875 257.25 171.402344 256.390625 171.554688 254.734375 C 171.667969 253.46875 170.738281 253.214844 169.761719 253.523438 " fill-opacity="1" fill-rule="nonzero"/><path fill="#1f13ff" d="M 142.371094 149.734375 C 143.796875 150.441406 145.398438 149.320312 144.730469 147.589844 C 144.296875 146.460938 143.296875 145.929688 142.242188 146.265625 C 140.328125 146.988281 141.335938 149.222656 142.371094 149.734375 " fill-opacity="1" fill-rule="nonzero"/><path fill="#1f13ff" d="M 148.804688 292.628906 C 147.894531 292.859375 147.746094 293.433594 148.046875 293.726562 C 148.574219 294.238281 150.019531 293.785156 149.984375 293.125 C 149.96875 292.84375 149.707031 292.429688 148.804688 292.628906 " fill-opacity="1" fill-rule="nonzero"/><path fill="#1f13ff" d="M 171.277344 201.574219 C 172.167969 202.242188 174.277344 201.480469 173.96875 199.546875 C 173.8125 198.582031 173.3125 197.53125 171.804688 197.996094 C 169.839844 198.699219 170.433594 200.945312 171.277344 201.574219 " fill-opacity="1" fill-rule="nonzero"/><path fill="#1f13ff" d="M 176.617188 220.679688 C 174.726562 221.351562 175.164062 223.414062 175.804688 223.878906 C 175.8125 223.882812 176.632812 224.433594 177.640625 223.6875 C 177.867188 223.523438 178.554688 223.015625 178.445312 221.925781 C 178.378906 221.265625 178.058594 220.226562 176.617188 220.679688 " fill-opacity="1" fill-rule="nonzero"/><path fill="#1f13ff" d="M 154.46875 286.6875 C 153.0625 287.109375 153.613281 288.058594 153.621094 288.066406 C 153.980469 288.519531 155.535156 288.171875 155.621094 287.25 C 155.644531 286.984375 155.582031 286.390625 154.46875 286.6875 " fill-opacity="1" fill-rule="nonzero"/><path fill="#1f13ff" d="M 111.105469 117.128906 C 111.726562 117.484375 113.03125 117.125 112.59375 115.769531 C 112.457031 115.335938 112.027344 114.359375 111.027344 114.625 C 109.671875 115.0625 110.507812 116.789062 111.105469 117.128906 " fill-opacity="1" fill-rule="nonzero"/><path fill="#1f13ff" d="M 143.605469 299.796875 C 143.488281 299.742188 143.148438 299.625 142.558594 299.746094 C 142.460938 299.761719 142.265625 299.808594 142.230469 299.875 C 142.136719 300.042969 143.042969 300.144531 143.558594 299.96875 C 143.71875 299.914062 143.734375 299.859375 143.605469 299.796875 " fill-opacity="1" fill-rule="nonzero"/><path fill="#1f13ff" d="M 102.320312 110.6875 C 102.769531 111.066406 104.003906 111.027344 103.828125 109.542969 C 103.824219 109.527344 103.582031 108.074219 102.496094 108.335938 C 101.429688 108.65625 101.808594 110.25 102.320312 110.6875 " fill-opacity="1" fill-rule="nonzero"/><path fill="#1f13ff" d="M 92.714844 97.617188 C 92.769531 97.273438 92.839844 96.484375 92.308594 96.554688 C 91.625 96.703125 91.464844 98.097656 91.730469 98.410156 C 91.976562 98.695312 92.570312 98.515625 92.714844 97.617188 " fill-opacity="1" fill-rule="nonzero"/><path fill="#1f13ff" d="M 95.867188 104.464844 C 96 104.582031 96.359375 104.804688 96.78125 104.425781 C 96.957031 104.265625 97.160156 103.945312 97.109375 103.339844 C 97.089844 103.046875 96.957031 102.105469 96.21875 102.265625 C 95.257812 102.535156 95.445312 104.113281 95.867188 104.464844 " fill-opacity="1" fill-rule="nonzero"/><path fill="#1f13ff" d="M 164.671875 178.523438 C 165.441406 178.980469 167.515625 178.625 167.054688 176.5 C 167.050781 176.480469 166.578125 174.671875 164.890625 175.191406 C 162.972656 175.875 163.882812 178.054688 164.671875 178.523438 " fill-opacity="1" fill-rule="nonzero"/><path fill="#1f13ff" d="M 121.808594 123.476562 C 122.542969 123.753906 122.738281 123.539062 122.988281 123.261719 C 123.109375 123.125 123.367188 122.734375 123.085938 122.058594 C 122.777344 121.320312 122.101562 120.933594 121.441406 121.121094 C 121.410156 121.132812 121.367188 121.144531 121.335938 121.160156 C 120.464844 121.53125 120.78125 123.089844 121.808594 123.476562 " fill-opacity="1" fill-rule="nonzero"/><path fill="#1f13ff" d="M 161.664062 279.125 C 160.679688 279.421875 160.378906 280.234375 160.652344 280.636719 C 160.914062 281.019531 161.691406 280.824219 161.699219 280.820312 C 161.707031 280.820312 162.527344 280.382812 162.644531 279.828125 C 162.699219 279.566406 162.636719 278.871094 161.664062 279.125 " fill-opacity="1" fill-rule="nonzero"/><path fill="#1f13ff" d="M 169.820312 270.226562 C 168.820312 270.582031 168.890625 271.433594 169.023438 271.613281 C 169.304688 271.984375 170.429688 271.636719 170.601562 270.839844 C 170.636719 270.683594 170.753906 269.929688 169.820312 270.226562 " fill-opacity="1" fill-rule="nonzero"/><g clip-path="url(#9c537ee941)"><path fill="#1f13ff" d="M 178.875 241.605469 C 177.859375 241.96875 177.648438 243.183594 178.101562 243.683594 C 178.605469 244.238281 180.042969 243.527344 180.089844 242.46875 C 180.109375 241.992188 179.976562 241.25 178.875 241.605469 " fill-opacity="1" fill-rule="nonzero"/></g><path fill="#1f13ff" d="M 156.578125 156.328125 C 157.304688 156.691406 158.621094 156.117188 158.144531 154.886719 C 157.957031 154.410156 157.503906 153.65625 156.539062 153.953125 C 155.125 154.460938 155.953125 156.015625 156.578125 156.328125 " fill-opacity="1" fill-rule="nonzero"/><path fill="#1f13ff" d="M 133.914062 129.628906 C 133.964844 129.648438 134.429688 129.820312 134.742188 129.519531 C 135 129.273438 135.058594 128.984375 134.925781 128.65625 C 134.921875 128.644531 134.507812 127.667969 133.664062 127.894531 C 133.621094 127.90625 133.582031 127.925781 133.542969 127.941406 C 132.75 128.3125 133.320312 129.394531 133.914062 129.628906 " fill-opacity="1" fill-rule="nonzero"/><g fill="#790000" fill-opacity="1"><g transform="translate(230.485363, 207.073978)"><g><path d="M 16.8125 -4.96875 L 6.078125 -4.96875 L 3.953125 0 L -0.15625 0 L 9.515625 -21.484375 L 13.4375 -21.484375 L 23.140625 0 L 18.96875 0 Z M 15.5 -8.09375 L 11.453125 -17.484375 L 7.421875 -8.09375 Z M 15.5 -8.09375 "/></g></g></g><g fill="#790000" fill-opacity="1"><g transform="translate(253.463181, 207.073978)"><g><path d="M 6.875 -18.140625 L 6.875 -11.59375 L 17.25 -11.59375 L 17.25 -8.21875 L 6.875 -8.21875 L 6.875 0 L 2.890625 0 L 2.890625 -21.484375 L 18.5625 -21.484375 L 18.5625 -18.140625 Z M 6.875 -18.140625 "/></g></g></g><g fill="#790000" fill-opacity="1"><g transform="translate(273.005066, 207.073978)"><g><path d="M 16.9375 0 L 12.546875 -6.296875 C 12.367188 -6.273438 12.09375 -6.265625 11.71875 -6.265625 L 6.875 -6.265625 L 6.875 0 L 2.890625 0 L 2.890625 -21.484375 L 11.71875 -21.484375 C 13.582031 -21.484375 15.203125 -21.175781 16.578125 -20.5625 C 17.960938 -19.945312 19.023438 -19.066406 19.765625 -17.921875 C 20.503906 -16.773438 20.875 -15.414062 20.875 -13.84375 C 20.875 -12.226562 20.476562 -10.835938 19.6875 -9.671875 C 18.894531 -8.503906 17.765625 -7.632812 16.296875 -7.0625 L 21.234375 0 Z M 16.84375 -13.84375 C 16.84375 -15.207031 16.390625 -16.257812 15.484375 -17 C 14.585938 -17.738281 13.269531 -18.109375 11.53125 -18.109375 L 6.875 -18.109375 L 6.875 -9.546875 L 11.53125 -9.546875 C 13.269531 -9.546875 14.585938 -9.914062 15.484375 -10.65625 C 16.390625 -11.40625 16.84375 -12.46875 16.84375 -13.84375 Z M 16.84375 -13.84375 "/></g></g></g><g fill="#790000" fill-opacity="1"><g transform="translate(295.430679, 207.073978)"><g><path d="M 2.890625 -21.484375 L 6.875 -21.484375 L 6.875 0 L 2.890625 0 Z M 2.890625 -21.484375 "/></g></g></g><g fill="#790000" fill-opacity="1"><g transform="translate(305.216955, 207.073978)"><g><path d="M 12.828125 0.3125 C 10.660156 0.3125 8.703125 -0.160156 6.953125 -1.109375 C 5.203125 -2.066406 3.828125 -3.382812 2.828125 -5.0625 C 1.835938 -6.738281 1.34375 -8.628906 1.34375 -10.734375 C 1.34375 -12.847656 1.84375 -14.742188 2.84375 -16.421875 C 3.851562 -18.097656 5.234375 -19.410156 6.984375 -20.359375 C 8.734375 -21.304688 10.691406 -21.78125 12.859375 -21.78125 C 14.617188 -21.78125 16.222656 -21.472656 17.671875 -20.859375 C 19.128906 -20.253906 20.359375 -19.367188 21.359375 -18.203125 L 18.78125 -15.765625 C 17.226562 -17.453125 15.316406 -18.296875 13.046875 -18.296875 C 11.566406 -18.296875 10.242188 -17.972656 9.078125 -17.328125 C 7.910156 -16.679688 7 -15.785156 6.34375 -14.640625 C 5.695312 -13.492188 5.375 -12.191406 5.375 -10.734375 C 5.375 -9.285156 5.695312 -7.988281 6.34375 -6.84375 C 7 -5.695312 7.910156 -4.800781 9.078125 -4.15625 C 10.242188 -3.507812 11.566406 -3.1875 13.046875 -3.1875 C 15.316406 -3.1875 17.226562 -4.035156 18.78125 -5.734375 L 21.359375 -3.28125 C 20.359375 -2.113281 19.125 -1.222656 17.65625 -0.609375 C 16.195312 0.00390625 14.585938 0.3125 12.828125 0.3125 Z M 12.828125 0.3125 "/></g></g></g><g fill="#790000" fill-opacity="1"><g transform="translate(327.519864, 207.073978)"><g><path d="M 16.8125 -4.96875 L 6.078125 -4.96875 L 3.953125 0 L -0.15625 0 L 9.515625 -21.484375 L 13.4375 -21.484375 L 23.140625 0 L 18.96875 0 Z M 15.5 -8.09375 L 11.453125 -17.484375 L 7.421875 -8.09375 Z M 15.5 -8.09375 "/></g></g></g><g fill="#1f13ff" fill-opacity="1"><g transform="translate(149.117871, 170.239545)"><g><path d="M 19.109375 -3.359375 L 19.109375 0 L 2.90625 0 L 2.90625 -21.609375 L 18.671875 -21.609375 L 18.671875 -18.234375 L 6.90625 -18.234375 L 6.90625 -12.625 L 17.34375 -12.625 L 17.34375 -9.3125 L 6.90625 -9.3125 L 6.90625 -3.359375 Z M 19.109375 -3.359375 "/></g></g></g><g fill="#1f13ff" fill-opacity="1"><g transform="translate(169.784386, 170.239545)"><g><path d="M 1.703125 -10.1875 L 10.1875 -10.1875 L 10.1875 -6.96875 L 1.703125 -6.96875 Z M 1.703125 -10.1875 "/></g></g></g><g fill="#1f13ff" fill-opacity="1"><g transform="translate(181.65993, 170.239545)"><g><path d="M 2.90625 -21.609375 L 6.90625 -21.609375 L 6.90625 -3.390625 L 18.203125 -3.390625 L 18.203125 0 L 2.90625 0 Z M 2.90625 -21.609375 "/></g></g></g><g fill="#1f13ff" fill-opacity="1"><g transform="translate(200.136415, 170.239545)"><g><path d="M 19.109375 -3.359375 L 19.109375 0 L 2.90625 0 L 2.90625 -21.609375 L 18.671875 -21.609375 L 18.671875 -18.234375 L 6.90625 -18.234375 L 6.90625 -12.625 L 17.34375 -12.625 L 17.34375 -9.3125 L 6.90625 -9.3125 L 6.90625 -3.359375 Z M 19.109375 -3.359375 "/></g></g></g><g fill="#1f13ff" fill-opacity="1"><g transform="translate(220.80293, 170.239545)"><g><path d="M 16.90625 -5 L 6.109375 -5 L 3.984375 0 L -0.15625 0 L 9.5625 -21.609375 L 13.515625 -21.609375 L 23.265625 0 L 19.078125 0 Z M 15.578125 -8.140625 L 11.515625 -17.59375 L 7.46875 -8.140625 Z M 15.578125 -8.140625 "/></g></g></g><g fill="#1f13ff" fill-opacity="1"><g transform="translate(243.906241, 170.239545)"><g><path d="M 17.03125 0 L 12.625 -6.328125 C 12.4375 -6.304688 12.15625 -6.296875 11.78125 -6.296875 L 6.90625 -6.296875 L 6.90625 0 L 2.90625 0 L 2.90625 -21.609375 L 11.78125 -21.609375 C 13.65625 -21.609375 15.285156 -21.296875 16.671875 -20.671875 C 18.066406 -20.054688 19.132812 -19.171875 19.875 -18.015625 C 20.613281 -16.867188 20.984375 -15.503906 20.984375 -13.921875 C 20.984375 -12.296875 20.585938 -10.894531 19.796875 -9.71875 C 19.003906 -8.550781 17.867188 -7.675781 16.390625 -7.09375 L 21.359375 0 Z M 16.9375 -13.921875 C 16.9375 -15.296875 16.484375 -16.351562 15.578125 -17.09375 C 14.671875 -17.832031 13.347656 -18.203125 11.609375 -18.203125 L 6.90625 -18.203125 L 6.90625 -9.59375 L 11.609375 -9.59375 C 13.347656 -9.59375 14.671875 -9.96875 15.578125 -10.71875 C 16.484375 -11.46875 16.9375 -12.535156 16.9375 -13.921875 Z M 16.9375 -13.921875 "/></g></g></g><g fill="#1f13ff" fill-opacity="1"><g transform="translate(266.454331, 170.239545)"><g><path d="M 22.09375 -21.609375 L 22.09375 0 L 18.796875 0 L 6.875 -14.625 L 6.875 0 L 2.90625 0 L 2.90625 -21.609375 L 6.203125 -21.609375 L 18.109375 -6.96875 L 18.109375 -21.609375 Z M 22.09375 -21.609375 "/></g></g></g><g fill="#1f13ff" fill-opacity="1"><g transform="translate(291.439235, 170.239545)"><g><path d="M 2.90625 -21.609375 L 6.90625 -21.609375 L 6.90625 0 L 2.90625 0 Z M 2.90625 -21.609375 "/></g></g></g><g fill="#1f13ff" fill-opacity="1"><g transform="translate(301.278959, 170.239545)"><g><path d="M 22.09375 -21.609375 L 22.09375 0 L 18.796875 0 L 6.875 -14.625 L 6.875 0 L 2.90625 0 L 2.90625 -21.609375 L 6.203125 -21.609375 L 18.109375 -6.96875 L 18.109375 -21.609375 Z M 22.09375 -21.609375 "/></g></g></g><g fill="#1f13ff" fill-opacity="1"><g transform="translate(326.263862, 170.239545)"><g><path d="M 17.65625 -11.046875 L 21.453125 -11.046875 L 21.453125 -2.4375 C 20.335938 -1.550781 19.039062 -0.867188 17.5625 -0.390625 C 16.082031 0.078125 14.554688 0.3125 12.984375 0.3125 C 10.785156 0.3125 8.800781 -0.164062 7.03125 -1.125 C 5.257812 -2.082031 3.867188 -3.40625 2.859375 -5.09375 C 1.859375 -6.78125 1.359375 -8.679688 1.359375 -10.796875 C 1.359375 -12.921875 1.859375 -14.828125 2.859375 -16.515625 C 3.867188 -18.203125 5.265625 -19.519531 7.046875 -20.46875 C 8.828125 -21.425781 10.828125 -21.90625 13.046875 -21.90625 C 14.859375 -21.90625 16.503906 -21.609375 17.984375 -21.015625 C 19.472656 -20.421875 20.71875 -19.546875 21.71875 -18.390625 L 19.1875 -15.921875 C 17.539062 -17.566406 15.554688 -18.390625 13.234375 -18.390625 C 11.710938 -18.390625 10.359375 -18.070312 9.171875 -17.4375 C 7.992188 -16.800781 7.070312 -15.90625 6.40625 -14.75 C 5.738281 -13.59375 5.40625 -12.273438 5.40625 -10.796875 C 5.40625 -9.359375 5.738281 -8.0625 6.40625 -6.90625 C 7.070312 -5.757812 7.992188 -4.851562 9.171875 -4.1875 C 10.359375 -3.53125 11.703125 -3.203125 13.203125 -3.203125 C 14.890625 -3.203125 16.375 -3.578125 17.65625 -4.328125 Z M 17.65625 -11.046875 "/></g></g></g><g fill="#1f13ff" fill-opacity="1"><g transform="translate(350.087788, 170.239545)"><g/></g></g></svg>