<svg xmlns="http://www.w3.org/2000/svg" xmlns:xlink="http://www.w3.org/1999/xlink" width="500" zoomAndPan="magnify" viewBox="0 0 375 374.999991" height="500" preserveAspectRatio="xMidYMid meet" version="1.0"><defs><g/><clipPath id="2e3abadb58"><path d="M 117 300 L 126 300 L 126 302.445312 L 117 302.445312 Z M 117 300 " clip-rule="nonzero"/></clipPath><clipPath id="c3536cbbf4"><path d="M 138 301 L 144 301 L 144 302.445312 L 138 302.445312 Z M 138 301 " clip-rule="nonzero"/></clipPath><clipPath id="718e5df37f"><path d="M 74 69.195312 L 81 69.195312 L 81 73 L 74 73 Z M 74 69.195312 " clip-rule="nonzero"/></clipPath><clipPath id="51b928e8a9"><path d="M 194 235 L 196.46875 235 L 196.46875 239 L 194 239 Z M 194 235 " clip-rule="nonzero"/></clipPath></defs><path fill="#1f13ff" d="M 50.722656 268.808594 C 48.566406 266.589844 44.792969 262.9375 43.242188 261.957031 C 43.15625 261.914062 43.03125 261.878906 42.9375 261.878906 C 42.964844 262.929688 52.765625 272.421875 53.863281 272.460938 C 53.835938 272.078125 52.140625 270.261719 50.722656 268.808594 " fill-opacity="1" fill-rule="nonzero"/><path fill="#1f13ff" d="M 63.453125 278 C 61.1875 276.066406 57.078125 272.902344 55.050781 272.117188 C 54.902344 272.078125 54.675781 272.015625 54.601562 272.085938 C 54.207031 272.441406 56.78125 274.867188 59.433594 276.910156 C 62.832031 279.527344 65.929688 281.429688 66.488281 281.242188 C 66.667969 280.832031 64.664062 279.035156 63.453125 278 " fill-opacity="1" fill-rule="nonzero"/><path fill="#1f13ff" d="M 21.082031 228.523438 C 21.03125 228.472656 20.945312 228.421875 20.875 228.421875 C 20.855469 229.796875 27.402344 242.316406 28.171875 242.375 C 28.183594 241.820312 26.875 239.082031 26.09375 237.496094 C 24.730469 234.726562 22.164062 229.84375 21.082031 228.523438 " fill-opacity="1" fill-rule="nonzero"/><path fill="#1f13ff" d="M 29.230469 241.960938 C 29.097656 241.894531 28.925781 241.816406 28.84375 241.902344 C 27.992188 242.769531 35.679688 254.128906 37.5 254.699219 C 38.207031 254.917969 37.4375 253.03125 35.636719 250.113281 C 33.949219 247.382812 30.851562 243.046875 29.230469 241.960938 " fill-opacity="1" fill-rule="nonzero"/><path fill="#1f13ff" d="M 47.132812 261.375 C 45.269531 258.890625 41.683594 254.996094 39.53125 254.109375 C 39.351562 254.066406 39.105469 254.003906 38.964844 254.097656 C 37.484375 255.125 46.148438 265.265625 48.828125 265.640625 C 49.816406 265.78125 49.117188 264.023438 47.132812 261.375 " fill-opacity="1" fill-rule="nonzero"/><path fill="#1f13ff" d="M 15.308594 213.917969 C 15.394531 214.191406 15.523438 214.585938 15.691406 215.070312 C 15.558594 214.679688 15.425781 214.285156 15.304688 213.910156 L 15.308594 213.917969 " fill-opacity="1" fill-rule="nonzero"/><path fill="#1f13ff" d="M 24.84375 233.148438 C 25.875 233.730469 25.695312 231.417969 24.425781 227.761719 C 23.328125 224.609375 21.050781 219.644531 19.417969 218.484375 C 19.324219 218.441406 19.183594 218.375 19.082031 218.394531 C 17.378906 218.722656 22.496094 231.820312 24.84375 233.148438 " fill-opacity="1" fill-rule="nonzero"/><path fill="#1f13ff" d="M 34.414062 246.003906 C 35.820312 246.46875 35.71875 244.253906 34.175781 240.855469 C 32.84375 237.914062 29.953125 233.332031 27.707031 232.363281 C 27.511719 232.316406 27.246094 232.257812 27.046875 232.378906 C 25.082031 233.613281 31.207031 244.945312 34.414062 246.003906 " fill-opacity="1" fill-rule="nonzero"/><path fill="#1f13ff" d="M 45.652344 257.445312 C 47.703125 258.121094 47.859375 255.964844 46.003906 252.636719 C 44.253906 249.496094 40.789062 245.683594 38.257812 245 C 38.011719 244.972656 37.675781 244.933594 37.417969 245.070312 C 34.996094 246.347656 41.460938 256.0625 45.652344 257.445312 " fill-opacity="1" fill-rule="nonzero"/><path fill="#1f13ff" d="M 13.65625 203.59375 C 13.601562 203.542969 13.519531 203.488281 13.453125 203.46875 C 12.425781 204.105469 16.457031 218.796875 17.765625 219.183594 C 18.285156 218.863281 17.332031 214.726562 17.027344 213.46875 C 16.28125 210.382812 14.703125 204.96875 13.65625 203.59375 " fill-opacity="1" fill-rule="nonzero"/><path fill="#1f13ff" d="M 23.964844 222.808594 C 25.625 223.722656 26.226562 221.078125 25.308594 216.910156 C 24.582031 213.59375 22.558594 208.472656 20.339844 207.46875 C 20.191406 207.433594 19.984375 207.390625 19.835938 207.425781 C 16.984375 208.050781 20.417969 220.84375 23.964844 222.808594 " fill-opacity="1" fill-rule="nonzero"/><path fill="#1f13ff" d="M 33.300781 235.980469 C 35.667969 237.183594 36.601562 234.582031 35.292969 230.414062 C 34.304688 227.253906 31.617188 222.441406 28.738281 221.625 C 28.542969 221.601562 28.28125 221.578125 28.089844 221.621094 C 24.714844 222.421875 28.804688 233.695312 33.300781 235.980469 " fill-opacity="1" fill-rule="nonzero"/><path fill="#1f13ff" d="M 44.597656 247.863281 C 47.71875 249.296875 49.023438 246.804688 47.339844 242.636719 C 46.148438 239.683594 42.945312 235.261719 39.554688 234.679688 C 39.246094 234.671875 38.824219 234.660156 38.445312 234.835938 C 35.285156 236.335938 39.65625 245.585938 44.597656 247.863281 " fill-opacity="1" fill-rule="nonzero"/><path fill="#1f13ff" d="M 16.695312 208.347656 C 17.867188 209.390625 18.402344 206.785156 17.890625 202.53125 C 17.488281 199.210938 16.222656 194.011719 14.664062 192.851562 C 14.5625 192.8125 14.410156 192.75 14.300781 192.769531 C 12.191406 193.148438 14.179688 206.105469 16.695312 208.347656 " fill-opacity="1" fill-rule="nonzero"/><path fill="#1f13ff" d="M 28.777344 205.1875 C 28.410156 201.84375 26.644531 196.769531 23.859375 195.949219 C 23.660156 195.929688 23.386719 195.910156 23.191406 195.957031 C 19.75 196.761719 21.195312 208.085938 25.128906 211.105469 C 27.539062 212.953125 29.308594 210.074219 28.777344 205.1875 " fill-opacity="1" fill-rule="nonzero"/><path fill="#1f13ff" d="M 38.796875 218.734375 C 38.128906 215.398438 35.675781 210.417969 32.300781 209.808594 C 32.058594 209.800781 31.726562 209.800781 31.492188 209.859375 C 27.578125 210.867188 29.640625 221.296875 34.402344 224.542969 C 37.644531 226.753906 39.824219 223.878906 38.796875 218.734375 " fill-opacity="1" fill-rule="nonzero"/><path fill="#1f13ff" d="M 50.816406 231.332031 C 49.925781 228.148438 46.945312 223.484375 43.105469 223.089844 C 42.835938 223.101562 42.464844 223.117188 42.203125 223.195312 C 37.90625 224.421875 40.722656 234.304688 46.167969 237.109375 C 49.863281 239.011719 52.164062 236.152344 50.816406 231.332031 " fill-opacity="1" fill-rule="nonzero"/><path fill="#1f13ff" d="M 18.328125 197.050781 C 19.992188 198.480469 21.390625 195.730469 21.324219 191.164062 C 21.277344 187.839844 20.269531 182.71875 18.183594 181.742188 C 18.03125 181.707031 17.820312 181.671875 17.667969 181.703125 C 14.695312 182.320312 15.210938 194.367188 18.328125 197.050781 " fill-opacity="1" fill-rule="nonzero"/><path fill="#1f13ff" d="M 34.527344 192.949219 C 34.464844 189.59375 32.925781 184.597656 29.71875 183.996094 C 29.597656 183.996094 29.433594 183.980469 29.316406 183.988281 C 25.054688 184.292969 24.578125 194.515625 28.632812 198.570312 C 31.554688 201.492188 34.640625 198.550781 34.527344 192.949219 " fill-opacity="1" fill-rule="nonzero"/><path fill="#1f13ff" d="M 44.324219 206.101562 C 43.964844 202.734375 41.773438 197.804688 38.035156 197.402344 C 37.894531 197.410156 37.710938 197.40625 37.570312 197.421875 C 32.753906 197.996094 33.140625 208.296875 38.121094 212.117188 C 41.675781 214.839844 44.921875 211.691406 44.324219 206.101562 " fill-opacity="1" fill-rule="nonzero"/><path fill="#1f13ff" d="M 56.183594 218.761719 C 55.5625 215.398438 52.804688 210.574219 48.613281 210.371094 C 48.457031 210.386719 48.25 210.390625 48.09375 210.417969 C 43.144531 211.199219 43.867188 220.761719 49.164062 224.628906 C 53.453125 227.757812 57.257812 224.578125 56.183594 218.761719 " fill-opacity="1" fill-rule="nonzero"/><path fill="#1f13ff" d="M 22.023438 185.011719 C 24.140625 187.457031 26.699219 184.628906 27.09375 179.40625 C 27.347656 176.097656 26.542969 171.089844 23.96875 170.304688 C 23.871094 170.296875 23.742188 170.273438 23.644531 170.277344 C 20.070312 170.339844 18.859375 181.355469 22.023438 185.011719 " fill-opacity="1" fill-rule="nonzero"/><path fill="#1f13ff" d="M 34.460938 186.125 C 37.46875 189.53125 41.523438 186.453125 41.8125 180.542969 C 41.976562 177.203125 40.644531 172.320312 37.171875 171.921875 C 31.964844 172.148438 30.878906 182.066406 34.460938 186.125 " fill-opacity="1" fill-rule="nonzero"/><path fill="#1f13ff" d="M 51.394531 193.246094 C 51.269531 189.867188 49.292969 185.015625 45.289062 184.808594 C 39.4375 185.316406 39.195312 195.367188 43.640625 199.253906 C 47.339844 202.492188 51.617188 199.179688 51.394531 193.246094 " fill-opacity="1" fill-rule="nonzero"/><path fill="#1f13ff" d="M 54.386719 211.492188 C 58.820312 215.304688 63.742188 211.914062 63.027344 205.542969 C 62.648438 202.152344 60.105469 197.371094 55.648438 197.355469 C 49.582031 198.105469 49.621094 207.386719 54.386719 211.492188 " fill-opacity="1" fill-rule="nonzero"/><path fill="#1f13ff" d="M 34.570312 167.554688 C 35.046875 164.277344 34.417969 159.40625 31.523438 158.839844 C 26.914062 158.777344 25.027344 169.410156 27.996094 173.101562 C 30.320312 175.996094 33.761719 173.089844 34.570312 167.554688 " fill-opacity="1" fill-rule="nonzero"/><path fill="#1f13ff" d="M 72.144531 267.960938 C 75.78125 268.882812 77.21875 266.589844 75.230469 263.058594 C 73.820312 260.558594 70.042969 256.976562 66.054688 256.835938 C 65.511719 256.878906 64.953125 256.917969 64.40625 257.300781 C 61.320312 259.445312 66.457031 266.523438 72.144531 267.960938 " fill-opacity="1" fill-rule="nonzero"/><path fill="#1f13ff" d="M 78.78125 252.722656 C 77.652344 249.964844 74.0625 246.089844 69.625 246.117188 C 69.214844 246.167969 68.648438 246.230469 68.121094 246.480469 C 64.070312 248.398438 67.261719 255.761719 73.140625 258.070312 C 77.671875 259.851562 80.570312 257.101562 78.78125 252.722656 " fill-opacity="1" fill-rule="nonzero"/><path fill="#1f13ff" d="M 84.144531 241.035156 C 83.257812 238.027344 79.835938 233.882812 75.015625 234.085938 C 74.839844 234.113281 74.601562 234.136719 74.425781 234.175781 C 69.121094 235.296875 70.09375 243.167969 75.960938 246.5625 C 81.164062 249.566406 85.75 246.46875 84.144531 241.035156 " fill-opacity="1" fill-rule="nonzero"/><path fill="#1f13ff" d="M 81.910156 220.796875 C 81.722656 220.832031 81.46875 220.867188 81.28125 220.914062 C 75.550781 222.296875 75.875 230.832031 81.792969 234.347656 C 87 237.4375 92.25 233.851562 91.003906 228.058594 C 90.308594 224.824219 87.027344 220.433594 81.910156 220.796875 " fill-opacity="1" fill-rule="nonzero"/><path fill="#1f13ff" d="M 73.019531 276.289062 C 75.507812 276.613281 75.816406 274.734375 73.71875 272.007812 C 72.003906 269.777344 68.023438 266.5 64.546875 266.195312 C 64.082031 266.207031 63.601562 266.21875 63.203125 266.527344 C 60.742188 268.425781 67.992188 275.636719 73.019531 276.289062 " fill-opacity="1" fill-rule="nonzero"/><path fill="#1f13ff" d="M 75.738281 283.121094 C 77.128906 283.085938 76.589844 281.660156 74.40625 279.566406 C 72.496094 277.742188 68.324219 274.667969 65.253906 274.203125 C 64.871094 274.183594 64.476562 274.164062 64.234375 274.402344 C 62.617188 275.953125 72.1875 283.207031 75.738281 283.121094 " fill-opacity="1" fill-rule="nonzero"/><path fill="#1f13ff" d="M 58.953125 248.410156 C 63.636719 250.710938 66.691406 247.675781 64.894531 242.503906 C 63.769531 239.265625 60.128906 234.621094 55.566406 234.433594 C 55.242188 234.460938 54.804688 234.5 54.496094 234.59375 C 49.683594 236.035156 52.683594 245.332031 58.953125 248.410156 " fill-opacity="1" fill-rule="nonzero"/><path fill="#1f13ff" d="M 58.109375 258.9375 C 61.796875 260.195312 63.324219 257.554688 61.316406 253.402344 C 59.875 250.433594 56.019531 246.074219 51.941406 245.695312 C 51.566406 245.703125 51.058594 245.722656 50.605469 245.929688 C 46.730469 247.738281 51.988281 256.855469 58.109375 258.9375 " fill-opacity="1" fill-rule="nonzero"/><path fill="#1f13ff" d="M 17 177.027344 C 17.300781 173.476562 17.027344 167.9375 15.488281 166.75 C 15.371094 166.707031 15.203125 166.652344 15.082031 166.671875 C 12.46875 167.125 11.726562 180.988281 14.183594 183.34375 C 15.347656 184.457031 16.613281 181.625 17 177.027344 " fill-opacity="1" fill-rule="nonzero"/><path fill="#1f13ff" d="M 11.820312 177.378906 C 11.753906 177.328125 11.652344 177.246094 11.570312 177.253906 C 10.003906 177.425781 10.710938 192.511719 12.371094 194.246094 C 13.070312 194.980469 13.535156 192.292969 13.445312 187.996094 C 13.375 184.414062 12.820312 178.753906 11.820312 177.378906 " fill-opacity="1" fill-rule="nonzero"/><path fill="#1f13ff" d="M 69.753906 230.285156 C 68.964844 227.070312 65.796875 222.550781 61.230469 222.554688 C 60.898438 222.59375 60.453125 222.652344 60.136719 222.757812 C 55.316406 224.351562 56.769531 232.886719 62.421875 236.191406 C 67.121094 238.9375 71.09375 235.734375 69.753906 230.285156 " fill-opacity="1" fill-rule="nonzero"/><path fill="#1f13ff" d="M 67.667969 223.105469 C 72.589844 226.609375 77.710938 223.046875 76.648438 216.855469 C 76.066406 213.472656 73.070312 208.789062 68.226562 208.96875 C 68.046875 208.996094 67.804688 209.023438 67.628906 209.0625 C 62.136719 210.261719 62.160156 219.1875 67.667969 223.105469 " fill-opacity="1" fill-rule="nonzero"/><path fill="#1f13ff" d="M 58.8125 267.476562 C 61.175781 267.972656 61.4375 265.960938 59.410156 262.898438 C 57.769531 260.414062 54 256.683594 50.757812 256.164062 C 50.324219 256.144531 49.882812 256.128906 49.511719 256.433594 C 47.300781 258.257812 54.253906 266.511719 58.8125 267.476562 " fill-opacity="1" fill-rule="nonzero"/><path fill="#1f13ff" d="M 61.671875 275.03125 C 62.902344 275.078125 62.300781 273.460938 60.207031 271.097656 C 58.230469 268.867188 54.265625 265.429688 51.632812 264.757812 C 51.285156 264.714844 50.957031 264.671875 50.769531 264.910156 C 49.519531 266.488281 58.585938 274.90625 61.671875 275.03125 " fill-opacity="1" fill-rule="nonzero"/><path fill="#1f13ff" d="M 11.476562 163.140625 C 11.464844 163.109375 11.445312 163.066406 11.433594 163.03125 C 11.402344 163.03125 11.359375 163.027344 11.324219 163.027344 C 10.507812 164.40625 9.71875 176.984375 10.355469 178.5 C 10.386719 178.5 10.429688 178.503906 10.460938 178.503906 C 10.820312 177.847656 11.121094 174.714844 11.269531 172.902344 C 11.515625 169.863281 11.792969 164.523438 11.476562 163.140625 " fill-opacity="1" fill-rule="nonzero"/><path fill="#1f13ff" d="M 14.789062 162.484375 C 15.394531 159.285156 15.898438 154.25 15.128906 153.082031 C 15.066406 153.035156 14.96875 152.972656 14.890625 152.980469 C 13.203125 153.167969 11.039062 166.617188 12.457031 168.128906 C 13.058594 168.769531 14.058594 166.34375 14.789062 162.484375 " fill-opacity="1" fill-rule="nonzero"/><path fill="#1f13ff" d="M 20.503906 151.851562 C 21.402344 148.710938 22.128906 143.839844 20.941406 142.851562 C 20.886719 142.835938 20.820312 142.800781 20.765625 142.792969 C 18.441406 142.410156 15 154.464844 16.625 157.285156 C 17.46875 158.742188 19.242188 156.253906 20.503906 151.851562 " fill-opacity="1" fill-rule="nonzero"/><path fill="#1f13ff" d="M 22.910156 146.402344 C 23.910156 148.226562 26.382812 145.683594 28.101562 141.066406 C 29.238281 138.003906 30.144531 133.328125 28.601562 132.53125 C 25.714844 132.019531 21.136719 143.167969 22.910156 146.402344 " fill-opacity="1" fill-rule="nonzero"/><path fill="#1f13ff" d="M 22.492188 165.441406 C 23.070312 162.203125 23.046875 157.238281 21.183594 156.332031 C 21.109375 156.316406 21.011719 156.289062 20.9375 156.285156 C 17.925781 156.125 15.714844 167.675781 18.121094 170.996094 C 19.515625 172.925781 21.640625 170.226562 22.492188 165.441406 " fill-opacity="1" fill-rule="nonzero"/><path fill="#1f13ff" d="M 24.328125 159.441406 C 25.925781 161.792969 28.875 159.03125 30.171875 153.96875 C 30.984375 150.789062 31.121094 145.988281 28.875 145.28125 C 24.863281 144.960938 22.0625 156.109375 24.328125 159.441406 " fill-opacity="1" fill-rule="nonzero"/><path fill="#1f13ff" d="M 50.828125 167.097656 C 51.164062 163.800781 49.996094 159.070312 46.351562 158.875 C 41.230469 159.339844 39.242188 168.480469 42.292969 172.550781 C 45.246094 176.484375 50.191406 173.324219 50.828125 167.097656 " fill-opacity="1" fill-rule="nonzero"/><path fill="#1f13ff" d="M 60.195312 179.242188 C 60.242188 175.890625 58.433594 171.164062 54.257812 171.144531 C 48.398438 171.886719 47.1875 181.097656 51.160156 185.167969 C 54.867188 188.96875 60.101562 185.535156 60.195312 179.242188 " fill-opacity="1" fill-rule="nonzero"/><path fill="#1f13ff" d="M 62.164062 197.441406 C 66.511719 201.070312 71.984375 197.390625 71.609375 191.089844 C 71.40625 187.703125 69.035156 183.007812 64.398438 183.171875 C 58.011719 184.175781 57.449219 193.511719 62.164062 197.441406 " fill-opacity="1" fill-rule="nonzero"/><path fill="#1f13ff" d="M 76.472656 194.875 C 70.113281 196.046875 69.667969 204.777344 74.363281 208.816406 C 79.226562 213.003906 85.527344 209.207031 84.734375 202.566406 C 84.328125 199.160156 81.496094 194.523438 76.472656 194.875 " fill-opacity="1" fill-rule="nonzero"/><path fill="#1f13ff" d="M 40.910156 146.496094 C 36.191406 146.726562 33.519531 156.40625 36.109375 160.1875 C 38.390625 163.511719 42.625 160.519531 43.792969 154.757812 C 44.441406 151.542969 43.976562 146.859375 40.910156 146.496094 " fill-opacity="1" fill-rule="nonzero"/><path fill="#1f13ff" d="M 32.304688 147.671875 C 33.957031 150.414062 37.601562 147.625 39.273438 142.34375 C 40.253906 139.242188 40.53125 134.648438 38.066406 134.144531 C 33.828125 134.128906 30.214844 144.207031 32.304688 147.671875 " fill-opacity="1" fill-rule="nonzero"/><path fill="#1f13ff" d="M 44.605469 211.515625 L 44.550781 211.605469 L 44.566406 211.613281 Z M 44.605469 211.515625 " fill-opacity="1" fill-rule="nonzero"/><path fill="#1f13ff" d="M 47.734375 224.292969 L 47.832031 224.378906 L 47.746094 224.292969 C 47.742188 224.292969 47.738281 224.292969 47.734375 224.292969 " fill-opacity="1" fill-rule="nonzero"/><path fill="#1f13ff" d="M 87.386719 266.101562 C 92.066406 267.9375 95.300781 265.414062 93.460938 261.363281 C 92.378906 258.976562 88.902344 255.695312 84.578125 255.890625 C 84.125 255.957031 83.566406 256.042969 83.03125 256.3125 C 79.417969 258.140625 82.023438 263.996094 87.386719 266.101562 " fill-opacity="1" fill-rule="nonzero"/><path fill="#1f13ff" d="M 86.6875 275.535156 C 90.246094 276.222656 91.707031 274.089844 89.753906 271.058594 C 88.492188 269.105469 84.992188 266.019531 80.960938 266.066406 C 80.695312 266.082031 79.882812 266.136719 79.253906 266.59375 C 76.417969 268.636719 81.28125 274.488281 86.6875 275.535156 " fill-opacity="1" fill-rule="nonzero"/><path fill="#1f13ff" d="M 69.101562 165.664062 C 69.273438 162.523438 67.695312 158.152344 63.648438 158.273438 C 58.714844 158.789062 56.292969 166.75 59.78125 170.984375 C 63.101562 175.015625 68.765625 171.785156 69.101562 165.664062 " fill-opacity="1" fill-rule="nonzero"/><path fill="#1f13ff" d="M 55.894531 146.664062 C 51.023438 147.304688 48.753906 155.566406 51.421875 159.242188 C 54.050781 162.859375 58.976562 160.019531 59.921875 154.339844 C 60.441406 151.203125 59.539062 146.746094 55.894531 146.664062 " fill-opacity="1" fill-rule="nonzero"/><path fill="#1f13ff" d="M 13.558594 152.964844 C 14.113281 152.667969 15.089844 149.632812 15.621094 147.847656 C 15.832031 147.140625 17.667969 140.914062 17.394531 139.398438 C 17.371094 139.351562 17.324219 139.292969 17.277344 139.277344 C 17.253906 139.285156 17.214844 139.296875 17.191406 139.3125 C 15.933594 140.160156 12.605469 152.664062 13.558594 152.964844 " fill-opacity="1" fill-rule="nonzero"/><path fill="#1f13ff" d="M 98.714844 250.082031 C 97.847656 247.632812 94.828125 244.125 90.070312 244.496094 C 89.710938 244.558594 89.230469 244.648438 88.886719 244.769531 C 84.441406 246.355469 85.738281 252.78125 91.023438 255.351562 C 95.578125 257.566406 100.5 255.125 98.714844 250.082031 " fill-opacity="1" fill-rule="nonzero"/><path fill="#1f13ff" d="M 79.492188 288.175781 C 80.148438 288.070312 78.671875 286.808594 77.066406 285.667969 C 75.246094 284.371094 71.164062 281.757812 68.757812 281.167969 C 68.46875 281.128906 68.21875 281.09375 68.15625 281.253906 C 67.703125 282.394531 77.664062 288.472656 79.492188 288.175781 " fill-opacity="1" fill-rule="nonzero"/><path fill="#1f13ff" d="M 87.226562 283.089844 C 89.726562 283.265625 90.066406 281.722656 88.035156 279.425781 C 86.699219 277.921875 83.183594 275.039062 79.421875 274.925781 C 78.921875 274.960938 78.445312 274.992188 78.050781 275.289062 C 75.75 277.007812 82.527344 282.765625 87.226562 283.089844 " fill-opacity="1" fill-rule="nonzero"/><path fill="#1f13ff" d="M 45.519531 147.398438 C 47.34375 150.089844 51.609375 148.027344 53.019531 142.613281 C 53.535156 140.628906 54.105469 135.421875 50.585938 135.167969 C 46.132812 135.589844 43.277344 144.097656 45.519531 147.398438 " fill-opacity="1" fill-rule="nonzero"/><path fill="#1f13ff" d="M 21.332031 138 C 22.269531 135.695312 23.878906 131.050781 23.253906 129.957031 C 23.222656 129.9375 23.183594 129.898438 23.148438 129.886719 C 21.714844 129.394531 17.167969 140.78125 18.027344 142.710938 C 18.449219 143.65625 19.835938 141.675781 21.332031 138 " fill-opacity="1" fill-rule="nonzero"/><path fill="#1f13ff" d="M 73.652344 169.890625 C 67.636719 170.996094 67.085938 179.074219 70.421875 182.554688 C 74.003906 186.285156 80.328125 183.660156 80.167969 177.03125 C 80.0625 172.679688 77.140625 169.472656 73.652344 169.890625 " fill-opacity="1" fill-rule="nonzero"/><path fill="#1f13ff" d="M 98.476562 213.597656 C 97.960938 210.632812 95.339844 206.402344 90.242188 206.910156 C 84.207031 207.859375 84.109375 216.210938 88.785156 219.679688 C 93.253906 223.003906 99.597656 220.035156 98.476562 213.597656 " fill-opacity="1" fill-rule="nonzero"/><path fill="#1f13ff" d="M 96.410156 243.046875 C 101.335938 246.132812 106.785156 242.941406 105.519531 237.710938 C 104.628906 234.035156 100.667969 231.285156 97.039062 231.820312 C 96.855469 231.859375 96.605469 231.902344 96.421875 231.949219 C 91.425781 233.28125 91.417969 239.917969 96.410156 243.046875 " fill-opacity="1" fill-rule="nonzero"/><path fill="#1f13ff" d="M 37.613281 122.664062 C 34.46875 122.464844 30.179688 131.816406 31.375 134.558594 C 32.238281 136.546875 35.082031 134.332031 37.007812 130.175781 C 38.1875 127.628906 39.394531 123.339844 37.613281 122.664062 " fill-opacity="1" fill-rule="nonzero"/><path fill="#1f13ff" d="M 89.621094 289.15625 C 90.847656 289.050781 90.433594 287.914062 88.617188 286.390625 C 86.144531 284.316406 82.160156 282.421875 80.089844 282.335938 C 79.710938 282.34375 79.351562 282.351562 79.121094 282.570312 C 77.566406 284.03125 86.203125 289.449219 89.621094 289.15625 " fill-opacity="1" fill-rule="nonzero"/><path fill="#1f13ff" d="M 47.832031 123.746094 C 44.304688 123.976562 40.339844 131.6875 41.9375 135.207031 C 43.214844 138.015625 47.066406 135.40625 48.8125 130.558594 C 49.761719 127.917969 50.082031 124.0625 47.832031 123.746094 " fill-opacity="1" fill-rule="nonzero"/><path fill="#1f13ff" d="M 24.632812 132.464844 C 25.097656 133.699219 27.144531 131.507812 29.015625 127.78125 C 30.265625 125.289062 31.734375 121.257812 30.921875 120.503906 C 30.917969 120.5 30.914062 120.496094 30.90625 120.496094 C 29.019531 119.761719 23.683594 129.941406 24.632812 132.464844 " fill-opacity="1" fill-rule="nonzero"/><path fill="#1f13ff" d="M 85.589844 181.28125 C 80.183594 182.128906 78.636719 190.027344 83.117188 193.890625 C 87.511719 197.683594 93.476562 194.097656 92.929688 187.992188 C 92.660156 184.941406 90.203125 180.84375 85.589844 181.28125 " fill-opacity="1" fill-rule="nonzero"/><path fill="#1f13ff" d="M 108.03125 269.222656 C 106.898438 266.492188 102.890625 264.269531 99.777344 264.644531 C 99.492188 264.695312 99.113281 264.765625 98.839844 264.863281 C 95.390625 266.09375 96.253906 270.742188 101.535156 272.984375 C 106.253906 274.980469 109.382812 272.488281 108.03125 269.222656 " fill-opacity="1" fill-rule="nonzero"/><path fill="#1f13ff" d="M 104.234375 278.175781 C 103.058594 276.378906 99.566406 273.976562 96.066406 274.140625 C 95.433594 274.203125 94.917969 274.378906 94.527344 274.660156 C 92.058594 276.457031 95.84375 280.828125 100.761719 281.859375 C 104.539062 282.652344 105.75 280.492188 104.234375 278.175781 " fill-opacity="1" fill-rule="nonzero"/><path fill="#1f13ff" d="M 73.285156 145.5 C 69.210938 146.035156 66.265625 152.957031 69.5 156.925781 C 72.492188 160.589844 77.703125 157.714844 78.21875 152.117188 C 78.484375 149.210938 76.921875 145.296875 73.285156 145.5 " fill-opacity="1" fill-rule="nonzero"/><path fill="#1f13ff" d="M 69.34375 141.128906 C 69.980469 137.488281 68.242188 134.367188 65.699219 134.578125 C 61.4375 135.292969 58.753906 142.394531 61.410156 145.917969 C 63.953125 149.289062 68.515625 145.847656 69.34375 141.128906 " fill-opacity="1" fill-rule="nonzero"/><path fill="#1f13ff" d="M 24.679688 124.792969 C 25.207031 123.816406 27.835938 118.875 27.742188 117.640625 C 27.730469 117.621094 27.71875 117.582031 27.699219 117.570312 C 26.871094 116.960938 21.34375 127.445312 21.785156 128.789062 C 21.957031 129.320312 23.066406 127.789062 24.679688 124.792969 " fill-opacity="1" fill-rule="nonzero"/><path fill="#1f13ff" d="M 55.53125 134.53125 C 57.136719 137.332031 61.445312 135.199219 62.773438 129.910156 C 63.378906 127.507812 63.285156 123.914062 60.554688 123.863281 C 56.597656 124.394531 53.785156 131.5 55.53125 134.53125 " fill-opacity="1" fill-rule="nonzero"/><path fill="#1f13ff" d="M 83.132812 156.492188 C 78.367188 157.238281 76.453125 164.644531 80.121094 168.148438 C 83.679688 171.546875 89.207031 168.171875 89.078125 162.671875 C 89.019531 160.070312 87.351562 156.089844 83.132812 156.492188 " fill-opacity="1" fill-rule="nonzero"/><path fill="#1f13ff" d="M 113.238281 258.3125 C 112.101562 255.382812 108.566406 253.386719 105.355469 253.859375 C 105.042969 253.925781 104.617188 254.011719 104.316406 254.121094 C 100.289062 255.566406 101.175781 260.804688 105.820312 263.015625 C 110.480469 265.234375 114.847656 262.464844 113.238281 258.3125 " fill-opacity="1" fill-rule="nonzero"/><path fill="#1f13ff" d="M 102.382812 285.75 C 100.402344 283.707031 96.851562 282.152344 94.472656 282.28125 C 94.074219 282.324219 93.410156 282.394531 93.039062 282.785156 C 91.449219 284.457031 97.359375 288.644531 101.46875 288.757812 C 103.75 288.824219 104.136719 287.558594 102.382812 285.75 " fill-opacity="1" fill-rule="nonzero"/><path fill="#1f13ff" d="M 47.582031 112.820312 C 44.96875 112.578125 40.097656 120.359375 41.074219 123.226562 C 41.753906 125.234375 44.773438 123.597656 47.042969 119.105469 C 48.050781 117.109375 49.457031 113.230469 47.582031 112.820312 " fill-opacity="1" fill-rule="nonzero"/><path fill="#1f13ff" d="M 93.402344 293.742188 C 93.980469 293.625 93.109375 292.855469 91.066406 291.683594 C 90.566406 291.394531 86.082031 288.851562 83.246094 288.449219 C 82.949219 288.429688 82.667969 288.414062 82.570312 288.558594 C 81.925781 289.519531 91.539062 294.125 93.402344 293.742188 " fill-opacity="1" fill-rule="nonzero"/><path fill="#1f13ff" d="M 120.140625 246.605469 C 119.574219 244.316406 117.039062 241.132812 112.371094 241.746094 C 112.367188 241.746094 112.367188 241.746094 112.367188 241.746094 C 112.367188 241.75 112.367188 241.75 112.367188 241.75 C 112.367188 241.75 112.363281 241.75 112.363281 241.75 C 112.363281 241.75 112.359375 241.75 112.359375 241.75 C 112.359375 241.75 112.355469 241.75 112.355469 241.75 C 111.640625 241.914062 110.152344 242.257812 109.144531 243.621094 C 106.738281 246.875 109.996094 253.105469 116.28125 252.273438 C 116.28125 252.273438 116.28125 252.273438 116.285156 252.273438 C 116.285156 252.273438 116.289062 252.273438 116.289062 252.273438 C 116.292969 252.273438 116.292969 252.273438 116.292969 252.269531 C 116.292969 252.269531 116.296875 252.269531 116.296875 252.269531 C 121.113281 251.164062 120.253906 247.070312 120.140625 246.605469 " fill-opacity="1" fill-rule="nonzero"/><path fill="#1f13ff" d="M 113.222656 224.101562 C 112.765625 221.472656 110.164062 217.535156 105.144531 218.144531 C 99.292969 219.515625 99.324219 226.675781 103.890625 229.675781 C 108.570312 232.75 114.152344 229.414062 113.222656 224.101562 " fill-opacity="1" fill-rule="nonzero"/><path fill="#1f13ff" d="M 99.175781 192.570312 C 93.769531 193.570312 92.632812 201.332031 97.378906 204.789062 C 101.929688 208.097656 107.65625 204.367188 106.800781 198.648438 C 106.300781 195.304688 103.460938 192.035156 99.175781 192.570312 " fill-opacity="1" fill-rule="nonzero"/><path fill="#1f13ff" d="M 18.90625 133.875 C 19.699219 131.984375 21.558594 127.460938 21.792969 126.335938 C 21.796875 126.308594 21.796875 126.269531 21.796875 126.238281 C 21.777344 126.238281 21.753906 126.238281 21.734375 126.238281 C 20.953125 127.203125 16.589844 137.523438 16.953125 138.160156 C 17.070312 138 17.34375 137.625 18.90625 133.875 " fill-opacity="1" fill-rule="nonzero"/><path fill="#1f13ff" d="M 82.035156 290.378906 C 76.886719 287.707031 75.417969 287.066406 74.660156 286.789062 C 74.660156 286.789062 74.65625 286.789062 74.65625 286.789062 C 74.652344 286.789062 74.652344 286.789062 74.652344 286.789062 C 74.652344 286.789062 74.652344 286.785156 74.652344 286.785156 C 74.652344 286.785156 74.652344 286.785156 74.648438 286.785156 C 74.578125 286.765625 74.476562 286.738281 74.402344 286.726562 C 74.398438 286.742188 74.390625 286.765625 74.386719 286.785156 C 75.457031 287.796875 84.453125 292.144531 85.519531 292.308594 C 85.476562 292.21875 85.445312 292.148438 82.035156 290.378906 " fill-opacity="1" fill-rule="nonzero"/><path fill="#1f13ff" d="M 33.050781 121.910156 C 33.429688 123.246094 35.527344 121.929688 37.933594 117.898438 C 38.074219 117.664062 41.308594 112.207031 39.910156 111.34375 C 37.507812 110.964844 32.445312 119.761719 33.050781 121.910156 " fill-opacity="1" fill-rule="nonzero"/><path fill="#1f13ff" d="M 103.324219 294.035156 C 103.328125 294.035156 103.328125 294.035156 103.328125 294.035156 C 103.328125 294.035156 103.328125 294.035156 103.332031 294.035156 C 103.414062 294.027344 103.523438 294.027344 103.605469 294.019531 C 104.757812 293.886719 104.445312 293.042969 102.808594 291.875 C 100.492188 290.21875 97.015625 288.890625 95.058594 288.914062 C 94.707031 288.9375 94.347656 288.960938 94.117188 289.148438 C 92.871094 290.183594 99.214844 293.953125 103.324219 294.035156 " fill-opacity="1" fill-rule="nonzero"/><path fill="#1f13ff" d="M 57.988281 113.296875 C 57.59375 113.339844 57 113.402344 55.996094 114.21875 C 52.402344 117.132812 50.382812 124.066406 53.777344 124.3125 C 53.777344 124.3125 53.777344 124.3125 53.78125 124.3125 C 53.78125 124.3125 53.78125 124.3125 53.785156 124.3125 C 56.597656 124.023438 58.429688 119.859375 58.628906 119.386719 C 59.871094 116.449219 59.910156 113.300781 57.988281 113.296875 " fill-opacity="1" fill-rule="nonzero"/><path fill="#1f13ff" d="M 35.417969 108.957031 C 34.527344 108.746094 27.804688 117.648438 28.707031 119.476562 C 28.707031 119.476562 28.707031 119.476562 28.707031 119.480469 C 28.707031 119.480469 28.707031 119.480469 28.710938 119.480469 C 29.484375 119.929688 32.199219 115.808594 32.507812 115.339844 C 33.476562 113.851562 35.90625 109.8125 35.503906 109.003906 C 35.480469 108.988281 35.449219 108.960938 35.417969 108.957031 " fill-opacity="1" fill-rule="nonzero"/><path fill="#1f13ff" d="M 94.972656 167.363281 C 89.179688 168.726562 89.066406 175.980469 92.496094 178.882812 C 96.0625 181.898438 102.027344 179.175781 101.632812 173.394531 C 101.363281 169.480469 98.378906 166.773438 94.972656 167.363281 " fill-opacity="1" fill-rule="nonzero"/><path fill="#1f13ff" d="M 108.441406 178.039062 C 103.632812 179.289062 102.242188 185.46875 106.003906 188.875 C 110.339844 192.804688 115.9375 188.898438 115.496094 183.78125 C 115.257812 180.996094 112.671875 177.449219 108.441406 178.039062 " fill-opacity="1" fill-rule="nonzero"/><path fill="#1f13ff" d="M 121.585938 209.269531 C 121.09375 205.621094 117.375 202.804688 113.9375 203.480469 C 108.996094 204.785156 107.816406 211.226562 111.902344 214.597656 C 116.722656 218.570312 122.296875 214.558594 121.585938 209.269531 " fill-opacity="1" fill-rule="nonzero"/><path fill="#1f13ff" d="M 128.015625 233.296875 C 127.417969 230.132812 123.769531 227.757812 120.503906 228.40625 C 115.652344 229.671875 114.71875 235.410156 118.894531 238.304688 C 123.667969 241.613281 128.882812 237.902344 128.015625 233.296875 " fill-opacity="1" fill-rule="nonzero"/><path fill="#1f13ff" d="M 42.882812 111.628906 C 43.117188 113.34375 45.894531 111.101562 48 108.066406 C 49.511719 105.886719 51.046875 102.648438 50.003906 102.230469 C 47.789062 102.152344 42.527344 109.09375 42.882812 111.628906 " fill-opacity="1" fill-rule="nonzero"/><path fill="#1f13ff" d="M 121.9375 275.765625 C 121.042969 273.566406 117.496094 271.800781 114.773438 272.203125 C 114.519531 272.253906 114.179688 272.324219 113.9375 272.414062 C 111.050781 273.464844 111.441406 277.039062 115.613281 278.859375 C 119.882812 280.71875 123.078125 278.570312 121.9375 275.765625 " fill-opacity="1" fill-rule="nonzero"/><path fill="#1f13ff" d="M 88.667969 293.109375 C 88.59375 293.097656 88.492188 293.085938 88.414062 293.085938 C 88.40625 293.105469 88.394531 293.132812 88.382812 293.152344 C 89.296875 294.050781 97.234375 296.824219 99.039062 297.101562 C 99.058594 297.085938 99.082031 297.0625 99.097656 297.046875 C 98.796875 296.855469 97.742188 296.402344 95.960938 295.695312 C 95.402344 295.472656 90.449219 293.515625 88.667969 293.109375 " fill-opacity="1" fill-rule="nonzero"/><path fill="#1f13ff" d="M 51.714844 112.332031 C 52.3125 114.191406 55.238281 112.253906 57.300781 108.628906 C 58.425781 106.65625 59.609375 103.425781 58.003906 103.148438 C 55.386719 103.335938 50.921875 109.859375 51.714844 112.332031 " fill-opacity="1" fill-rule="nonzero"/><path fill="#1f13ff" d="M 107.316406 297.808594 C 107.761719 297.554688 105.871094 296.648438 105.285156 296.375 C 103.011719 295.324219 99.570312 294.148438 97.964844 294.082031 C 97.707031 294.085938 97.441406 294.085938 97.363281 294.21875 C 96.792969 295.160156 106.097656 298.515625 107.316406 297.808594 " fill-opacity="1" fill-rule="nonzero"/><path fill="#1f13ff" d="M 82.765625 132.96875 C 78.746094 133.867188 76.757812 140.03125 79.496094 143.121094 C 82.160156 146.125 86.820312 143.339844 87.167969 138.535156 C 87.40625 135.257812 85.308594 132.605469 82.765625 132.96875 " fill-opacity="1" fill-rule="nonzero"/><path fill="#1f13ff" d="M 75.339844 122.8125 C 71.753906 123.527344 69.339844 129.398438 71.367188 132.480469 C 73.367188 135.515625 77.722656 133.003906 78.539062 128.347656 C 79.089844 125.195312 77.566406 122.554688 75.339844 122.8125 " fill-opacity="1" fill-rule="nonzero"/><path fill="#1f13ff" d="M 114.441406 286.996094 C 117.964844 287.730469 119.363281 285.960938 118.035156 284 C 116.761719 282.117188 113.386719 280.671875 110.953125 280.964844 C 110.492188 281.042969 110.054688 281.121094 109.605469 281.429688 C 107.464844 282.902344 110.265625 286.125 114.441406 286.996094 " fill-opacity="1" fill-rule="nonzero"/><path fill="#1f13ff" d="M 37.3125 109.824219 C 37.46875 110.757812 39.335938 109.222656 41.566406 106.332031 C 41.605469 106.28125 45.347656 101.40625 44.640625 100.621094 C 43.160156 100.21875 36.996094 107.957031 37.3125 109.824219 " fill-opacity="1" fill-rule="nonzero"/><path fill="#1f13ff" d="M 115.199219 293.152344 C 117.1875 293.125 117.550781 292.109375 116.066406 290.738281 C 114.890625 289.652344 112.101562 288.09375 109.242188 288.257812 C 108.898438 288.292969 108.273438 288.398438 107.949219 288.722656 C 106.53125 290.136719 111.546875 293.199219 115.199219 293.152344 " fill-opacity="1" fill-rule="nonzero"/><path fill="#1f13ff" d="M 70.371094 112.898438 C 67.257812 113.207031 64.246094 119.441406 65.898438 122.160156 C 67.253906 124.398438 71.011719 122.507812 72.226562 118.132812 C 72.820312 116 72.816406 112.847656 70.371094 112.898438 " fill-opacity="1" fill-rule="nonzero"/><path fill="#1f13ff" d="M 92.488281 143.285156 C 88.292969 144.039062 86.589844 150.441406 89.761719 153.507812 C 92.652344 156.300781 97.929688 153.84375 97.785156 148.617188 C 97.722656 146.222656 96.253906 142.828125 92.488281 143.285156 " fill-opacity="1" fill-rule="nonzero"/><path fill="#1f13ff" d="M 127.339844 265.679688 C 126.746094 264.003906 124.34375 261.542969 120.425781 262.070312 C 120.144531 262.121094 119.726562 262.222656 119.304688 262.398438 C 116.011719 263.785156 116.652344 267.933594 120.429688 269.671875 C 124.425781 271.511719 128.558594 269.125 127.339844 265.679688 " fill-opacity="1" fill-rule="nonzero"/><path fill="#1f13ff" d="M 30.382812 112.183594 C 31.96875 109.875 33.917969 106.9375 34.179688 106.070312 C 34.167969 106.042969 34.15625 106.003906 34.144531 105.976562 C 33.210938 106.296875 27.613281 114.71875 27.835938 115.464844 C 27.941406 115.429688 28.21875 115.332031 30.382812 112.183594 " fill-opacity="1" fill-rule="nonzero"/><path fill="#1f13ff" d="M 38.246094 103.804688 C 38.285156 103.757812 42.109375 99.152344 42.117188 98.285156 C 42.105469 98.269531 42.089844 98.253906 42.078125 98.238281 C 40.992188 98.1875 34.457031 106.269531 35.011719 106.976562 C 35.492188 107.011719 37.246094 105.003906 38.246094 103.804688 " fill-opacity="1" fill-rule="nonzero"/><path fill="#1f13ff" d="M 103.253906 297.820312 C 103.003906 297.804688 103.003906 297.804688 102.9375 297.867188 C 103.527344 298.449219 111.90625 300.515625 112.683594 300.273438 C 112.578125 300.21875 112.40625 300.121094 110.039062 299.460938 C 106.628906 298.515625 104.347656 297.964844 103.253906 297.820312 " fill-opacity="1" fill-rule="nonzero"/><path fill="#1f13ff" d="M 123.121094 188.640625 C 118.53125 189.707031 117.34375 195.894531 121.140625 198.988281 C 125.21875 202.308594 130.808594 199.015625 130.066406 193.730469 C 129.710938 191.183594 127.320312 187.921875 123.121094 188.640625 " fill-opacity="1" fill-rule="nonzero"/><path fill="#1f13ff" d="M 130.742188 259.359375 C 130.746094 259.359375 130.746094 259.359375 130.746094 259.359375 C 130.746094 259.359375 130.75 259.359375 130.75 259.359375 C 130.75 259.359375 130.753906 259.359375 130.753906 259.359375 C 130.753906 259.359375 130.757812 259.359375 130.757812 259.359375 C 130.757812 259.359375 130.761719 259.355469 130.761719 259.355469 C 130.761719 259.355469 130.761719 259.355469 130.765625 259.355469 C 130.765625 259.355469 130.765625 259.355469 130.769531 259.355469 C 135.054688 258.285156 134.382812 254.832031 134.289062 254.441406 C 133.84375 252.53125 131.679688 249.929688 127.542969 250.582031 C 125.914062 250.917969 125.042969 251.78125 124.667969 252.265625 C 122.296875 255.320312 125.585938 260.148438 130.738281 259.359375 C 130.742188 259.359375 130.742188 259.359375 130.742188 259.359375 " fill-opacity="1" fill-rule="nonzero"/><path fill="#1f13ff" d="M 68.011719 103.214844 C 65.488281 103.386719 62.023438 109.023438 62.863281 111.585938 C 63.558594 113.722656 66.773438 112.207031 68.523438 108.117188 C 69.320312 106.253906 69.886719 103.269531 68.011719 103.214844 " fill-opacity="1" fill-rule="nonzero"/><path fill="#1f13ff" d="M 47.363281 100.472656 C 47.332031 101.542969 49.425781 100.089844 51.839844 97.359375 C 53.082031 95.957031 55.453125 92.90625 54.847656 92.453125 C 53.292969 92.296875 47.421875 98.589844 47.363281 100.472656 " fill-opacity="1" fill-rule="nonzero"/><path fill="#1f13ff" d="M 117.257812 297.507812 C 117.980469 297.292969 117.542969 296.640625 116.148438 295.847656 C 114.972656 295.179688 112.117188 293.9375 109.71875 293.992188 C 109.71875 293.992188 109.714844 293.992188 109.714844 293.992188 C 109.710938 293.992188 109.710938 293.992188 109.710938 293.992188 C 109.707031 293.992188 109.707031 293.992188 109.707031 293.992188 C 109.707031 293.992188 109.707031 293.992188 109.703125 293.992188 C 109.417969 294.023438 108.941406 294.070312 108.78125 294.3125 C 107.976562 295.523438 115.027344 298.183594 117.257812 297.507812 " fill-opacity="1" fill-rule="nonzero"/><path fill="#1f13ff" d="M 104.191406 153.53125 C 104.191406 153.53125 104.191406 153.53125 104.1875 153.53125 C 104.1875 153.53125 104.1875 153.53125 104.183594 153.53125 C 104.183594 153.53125 104.183594 153.53125 104.179688 153.53125 C 104.179688 153.53125 104.179688 153.53125 104.175781 153.53125 C 104.175781 153.53125 104.175781 153.535156 104.171875 153.535156 C 104.167969 153.535156 104.167969 153.535156 104.167969 153.535156 C 104.164062 153.535156 104.164062 153.535156 104.164062 153.535156 C 99.03125 154.917969 99.070312 161.441406 102.191406 163.824219 C 105.730469 166.535156 110.570312 163.382812 110.15625 158.640625 C 109.957031 156.355469 108.164062 152.945312 104.191406 153.53125 " fill-opacity="1" fill-rule="nonzero"/><path fill="#1f13ff" d="M 97.613281 296.851562 L 97.9375 296.949219 C 97.695312 296.875 97.445312 296.800781 97.207031 296.726562 L 97.613281 296.851562 " fill-opacity="1" fill-rule="nonzero"/><path fill="#1f13ff" d="M 136.394531 218.820312 C 135.789062 215.585938 132.578125 213.445312 129.386719 214.148438 C 124.21875 215.601562 123.992188 221.773438 127.875 224.285156 C 132.039062 226.976562 137.292969 223.605469 136.394531 218.820312 " fill-opacity="1" fill-rule="nonzero"/><path fill="#1f13ff" d="M 53.757812 101.679688 C 54.015625 102.964844 56.480469 101.285156 58.730469 98.292969 C 59.800781 96.875 61.65625 93.851562 60.582031 93.558594 C 58.882812 93.410156 53.304688 99.464844 53.757812 101.679688 " fill-opacity="1" fill-rule="nonzero"/><path fill="#1f13ff" d="M 142.363281 241.898438 C 142.078125 239.457031 139.3125 237.152344 135.789062 237.757812 C 131.726562 238.882812 130.566406 243.351562 133.6875 245.859375 C 137.640625 249.035156 142.832031 245.945312 142.363281 241.898438 " fill-opacity="1" fill-rule="nonzero"/><path fill="#1f13ff" d="M 120.488281 300.476562 C 120.832031 300.289062 119.300781 299.734375 118.824219 299.570312 C 116.878906 298.898438 113.78125 298.160156 112.453125 298.175781 C 112.257812 298.183594 111.933594 298.203125 111.929688 298.355469 C 111.925781 299.128906 119.523438 301.007812 120.488281 300.476562 " fill-opacity="1" fill-rule="nonzero"/><path fill="#1f13ff" d="M 117.59375 163.609375 C 117.59375 163.609375 117.589844 163.609375 117.589844 163.609375 C 117.589844 163.609375 117.585938 163.609375 117.585938 163.609375 C 117.585938 163.609375 117.585938 163.609375 117.582031 163.609375 C 117.578125 163.613281 117.578125 163.613281 117.578125 163.613281 C 117.574219 163.613281 117.574219 163.613281 117.574219 163.613281 C 117.574219 163.613281 117.570312 163.613281 117.570312 163.613281 C 117.570312 163.613281 117.566406 163.613281 117.566406 163.613281 C 113.089844 164.914062 112.15625 171.046875 116.03125 173.710938 C 120.09375 176.5 124.53125 172.652344 123.894531 168.300781 C 123.550781 165.96875 121.171875 163.039062 117.59375 163.609375 " fill-opacity="1" fill-rule="nonzero"/><path fill="#1f13ff" d="M 62.617188 101.714844 C 63.054688 103.199219 65.660156 101.460938 67.511719 98.457031 C 68.367188 97.066406 69.683594 94.132812 68.28125 93.957031 C 65.988281 94.242188 62.019531 99.675781 62.617188 101.714844 " fill-opacity="1" fill-rule="nonzero"/><path fill="#1f13ff" d="M 43.976562 98.46875 C 43.980469 98.46875 43.980469 98.46875 43.980469 98.46875 C 43.980469 98.46875 43.980469 98.46875 43.980469 98.472656 C 44.53125 98.699219 47.066406 96.148438 47.832031 95.359375 C 47.988281 95.199219 51.621094 91.445312 51.445312 90.796875 C 51.425781 90.785156 51.402344 90.769531 51.382812 90.765625 C 50.632812 90.640625 43.460938 97.179688 43.976562 98.46875 " fill-opacity="1" fill-rule="nonzero"/><path fill="#1f13ff" d="M 134.734375 281.109375 C 134.144531 279.835938 131.976562 278.230469 129.007812 278.636719 C 128.589844 278.714844 128.171875 278.855469 127.855469 279.027344 C 125.640625 280.214844 126.605469 282.890625 129.640625 283.960938 C 132.871094 285.101562 135.820312 283.445312 134.734375 281.109375 " fill-opacity="1" fill-rule="nonzero"/><path fill="#1f13ff" d="M 89.074219 129.460938 C 91.425781 132.007812 95.433594 129.378906 95.472656 125.265625 C 95.492188 123.28125 94.324219 120.625 91.671875 120.929688 C 88.414062 121.535156 86.765625 126.960938 89.074219 129.460938 " fill-opacity="1" fill-rule="nonzero"/><path fill="#1f13ff" d="M 127.503906 291.070312 C 130.269531 291.570312 131.933594 290.382812 130.800781 288.714844 C 129.816406 287.261719 127.136719 286.253906 125.066406 286.558594 C 124.730469 286.625 124.171875 286.734375 123.75 287.066406 C 122.257812 288.253906 124.359375 290.5 127.503906 291.070312 " fill-opacity="1" fill-rule="nonzero"/><path fill="#1f13ff" d="M 84.386719 111.609375 C 81.109375 112.332031 79.558594 117.789062 81.378906 119.875 C 83.0625 121.800781 86.59375 119.878906 87.113281 115.9375 C 87.417969 113.625 86.460938 111.3125 84.386719 111.609375 " fill-opacity="1" fill-rule="nonzero"/><path fill="#1f13ff" d="M 140.394531 271.898438 C 139.933594 270.535156 138.058594 268.703125 134.78125 269.234375 C 134.625 269.269531 134.285156 269.359375 134.28125 269.363281 C 130.945312 270.375 131.324219 273.757812 134.089844 275.195312 C 137.460938 276.949219 141.40625 274.882812 140.394531 271.898438 " fill-opacity="1" fill-rule="nonzero"/><path fill="#1f13ff" d="M 79.609375 102.496094 C 77.09375 102.816406 74.621094 107.941406 75.933594 110.113281 C 77.027344 111.925781 80.101562 110.363281 81.117188 106.789062 C 81.625 105.003906 81.640625 102.386719 79.609375 102.496094 " fill-opacity="1" fill-rule="nonzero"/><path fill="#1f13ff" d="M 101.261719 130.476562 C 97.078125 131.570312 96.851562 137.121094 99.265625 139.203125 C 101.765625 141.355469 106.058594 139.199219 105.859375 134.917969 C 105.722656 132 103.660156 130.007812 101.261719 130.476562 " fill-opacity="1" fill-rule="nonzero"/><path fill="#1f13ff" d="M 127.964844 296.339844 C 129.539062 296.238281 129.851562 295.507812 128.722656 294.558594 C 127.542969 293.566406 125.152344 292.679688 123.203125 292.917969 C 122.902344 292.964844 122.402344 293.046875 122.121094 293.3125 C 120.960938 294.402344 125.054688 296.523438 127.964844 296.339844 " fill-opacity="1" fill-rule="nonzero"/><path fill="#1f13ff" d="M 129.59375 299.820312 C 130.160156 299.648438 129.855469 299.242188 128.808594 298.753906 C 127.691406 298.238281 125.359375 297.511719 123.511719 297.628906 C 123.226562 297.65625 122.867188 297.726562 122.753906 297.902344 C 122.203125 298.738281 127.894531 300.332031 129.59375 299.820312 " fill-opacity="1" fill-rule="nonzero"/><path fill="#1f13ff" d="M 64.992188 92.085938 C 65.191406 92.996094 67.242188 91.636719 69.210938 89.289062 C 70.757812 87.445312 71.894531 85.425781 71.121094 85.359375 C 69.304688 85.519531 64.664062 90.613281 64.992188 92.085938 " fill-opacity="1" fill-rule="nonzero"/><g clip-path="url(#2e3abadb58)"><path fill="#1f13ff" d="M 117.625 300.851562 C 117.410156 300.847656 117.410156 300.847656 117.359375 300.894531 C 117.914062 301.246094 125.113281 302.203125 125.640625 301.992188 C 125.453125 301.945312 125.207031 301.90625 123.292969 301.617188 C 120.269531 301.15625 118.601562 300.902344 117.625 300.851562 " fill-opacity="1" fill-rule="nonzero"/></g><path fill="#1f13ff" d="M 77.792969 97.664062 C 78.675781 95.703125 78.761719 93.589844 77.480469 93.6875 C 75.210938 94.101562 72.375 98.84375 73.269531 100.730469 C 73.992188 102.261719 76.488281 100.570312 77.792969 97.664062 " fill-opacity="1" fill-rule="nonzero"/><path fill="#1f13ff" d="M 54.316406 90.074219 C 54.203125 90.699219 55.886719 89.605469 58.230469 87.539062 C 58.269531 87.503906 62.140625 84.050781 61.863281 83.589844 C 60.824219 83.398438 54.546875 88.792969 54.316406 90.074219 " fill-opacity="1" fill-rule="nonzero"/><path fill="#1f13ff" d="M 138.550781 199.089844 C 133.671875 200.5625 133.867188 206.203125 136.75 208.519531 C 140.117188 211.226562 145.671875 208.742188 144.953125 203.675781 C 144.488281 200.394531 141.617188 198.339844 138.550781 199.089844 " fill-opacity="1" fill-rule="nonzero"/><path fill="#1f13ff" d="M 65.554688 84.761719 C 64.054688 84.730469 58.347656 90.15625 58.453125 91.507812 C 58.507812 92.210938 60.191406 91.324219 62.808594 88.664062 C 62.953125 88.523438 66.285156 85.121094 65.554688 84.761719 " fill-opacity="1" fill-rule="nonzero"/><path fill="#1f13ff" d="M 144.792969 223.953125 C 140.40625 225.066406 139.886719 230.253906 142.988281 232.449219 C 146.460938 234.90625 151.480469 231.980469 150.886719 227.847656 C 150.609375 225.925781 148.714844 223.167969 144.792969 223.953125 " fill-opacity="1" fill-rule="nonzero"/><path fill="#1f13ff" d="M 42.234375 95.4375 C 42.246094 95.414062 42.242188 95.378906 42.246094 95.359375 C 41.539062 95.671875 35.863281 102.386719 35.847656 102.921875 C 36.011719 102.824219 36.433594 102.375 38.292969 100.207031 C 41.339844 96.65625 41.988281 95.839844 42.234375 95.4375 " fill-opacity="1" fill-rule="nonzero"/><path fill="#1f13ff" d="M 132.21875 173.75 C 127.300781 175.246094 127.707031 181.113281 130.875 183.21875 C 134.542969 185.65625 139.109375 182.554688 138.394531 178.113281 C 137.902344 175.050781 135.074219 173.054688 132.21875 173.75 " fill-opacity="1" fill-rule="nonzero"/><path fill="#1f13ff" d="M 112.878906 139.976562 C 108.773438 141.152344 108.421875 146.59375 111.421875 148.769531 C 114.554688 151.042969 118.660156 148.144531 118.070312 144.066406 C 117.800781 142.199219 116.152344 139.433594 112.878906 139.976562 " fill-opacity="1" fill-rule="nonzero"/><path fill="#1f13ff" d="M 147.542969 261.339844 C 147.167969 259.480469 145.105469 257.808594 142.027344 258.375 C 138.242188 259.253906 137.839844 263.011719 140.4375 264.800781 C 143.578125 266.96875 148.226562 264.703125 147.542969 261.339844 " fill-opacity="1" fill-rule="nonzero"/><path fill="#1f13ff" d="M 46.363281 92.832031 C 46.402344 92.796875 50.148438 89.1875 50.394531 88.554688 C 50.394531 88.554688 50.394531 88.554688 50.382812 88.519531 C 49.578125 88.488281 43.191406 94.714844 43.339844 95.386719 C 43.625 95.410156 45.359375 93.796875 46.363281 92.832031 " fill-opacity="1" fill-rule="nonzero"/><path fill="#1f13ff" d="M 125.125 158.050781 C 128.652344 160.363281 132.320312 157.042969 131.660156 153.359375 C 131.3125 151.445312 129.335938 148.882812 126.1875 149.480469 C 122.765625 150.351562 121.542969 155.707031 125.125 158.050781 " fill-opacity="1" fill-rule="nonzero"/><path fill="#1f13ff" d="M 155.726562 249.265625 C 155.46875 247.332031 153.375 245.609375 150.433594 246.195312 C 147.261719 246.996094 145.636719 250.835938 148.488281 252.96875 C 151.765625 255.421875 156.160156 252.570312 155.726562 249.265625 " fill-opacity="1" fill-rule="nonzero"/><path fill="#1f13ff" d="M 126.175781 300.742188 C 125.863281 300.773438 125.777344 300.800781 125.75 300.878906 C 126.039062 301.457031 131.847656 302.089844 132.589844 301.808594 C 132.59375 301.792969 132.597656 301.773438 132.597656 301.757812 C 132.539062 301.714844 132.378906 301.59375 130.960938 301.316406 C 130.429688 301.210938 127.714844 300.6875 126.175781 300.742188 " fill-opacity="1" fill-rule="nonzero"/><path fill="#1f13ff" d="M 73.242188 91.515625 C 73.441406 92.695312 75.421875 91.640625 77.171875 88.953125 C 78.285156 87.242188 78.910156 85.414062 77.980469 85.445312 C 76.296875 85.699219 72.972656 89.957031 73.242188 91.515625 " fill-opacity="1" fill-rule="nonzero"/><path fill="#1f13ff" d="M 55.925781 85.707031 C 57.371094 84.542969 59.808594 82.515625 59.917969 82.0625 C 59.476562 81.667969 52.839844 87.023438 52.746094 87.855469 C 52.804688 87.914062 52.976562 88.089844 55.925781 85.707031 " fill-opacity="1" fill-rule="nonzero"/><path fill="#1f13ff" d="M 97.902344 116.34375 C 99.695312 118.066406 102.847656 116.355469 102.753906 112.945312 C 102.714844 111.617188 102.011719 109.191406 99.609375 109.535156 C 96.851562 110.117188 96.101562 114.613281 97.902344 116.34375 " fill-opacity="1" fill-rule="nonzero"/><path fill="#1f13ff" d="M 142 283.972656 C 141.820312 284.015625 141.582031 284.070312 141.410156 284.132812 C 139.253906 284.90625 139.734375 286.894531 141.652344 287.757812 C 143.847656 288.75 146.964844 287.710938 146.253906 285.746094 C 145.910156 284.808594 144.496094 283.5625 142 283.972656 " fill-opacity="1" fill-rule="nonzero"/><path fill="#1f13ff" d="M 94.707031 104.433594 C 94.902344 102.550781 94.125 100.761719 92.484375 101.035156 C 89.949219 101.652344 88.871094 105.867188 90.3125 107.515625 C 91.664062 109.058594 94.382812 107.5625 94.707031 104.433594 " fill-opacity="1" fill-rule="nonzero"/><path fill="#1f13ff" d="M 139.144531 294.085938 C 141.195312 294.464844 143.011719 293.699219 142.132812 292.367188 C 141.417969 291.285156 139.554688 290.664062 137.886719 290.957031 C 137.617188 291.011719 137.167969 291.109375 136.820312 291.355469 C 135.671875 292.175781 136.949219 293.679688 139.144531 294.085938 " fill-opacity="1" fill-rule="nonzero"/><path fill="#1f13ff" d="M 152.113281 277.324219 C 151.859375 276.273438 150.519531 274.886719 147.886719 275.378906 C 144.765625 276.210938 144.925781 278.78125 146.789062 279.863281 C 149.246094 281.292969 152.683594 279.65625 152.113281 277.324219 " fill-opacity="1" fill-rule="nonzero"/><path fill="#1f13ff" d="M 147.625 183.773438 C 143.355469 184.960938 143.554688 190.234375 146.230469 192.222656 C 149.257812 194.476562 154.113281 191.941406 153.261719 187.503906 C 152.941406 185.847656 151.355469 182.941406 147.625 183.773438 " fill-opacity="1" fill-rule="nonzero"/><path fill="#1f13ff" d="M 76.363281 77.582031 C 75.074219 77.65625 70.058594 81.910156 70.054688 82.941406 C 70.050781 83.457031 71.40625 82.777344 73.683594 80.738281 C 73.71875 80.710938 76.957031 77.800781 76.363281 77.582031 " fill-opacity="1" fill-rule="nonzero"/><path fill="#1f13ff" d="M 65.757812 82.15625 C 65.714844 82.585938 67.164062 81.742188 69.363281 80.054688 C 69.714844 79.785156 72.796875 77.402344 72.835938 76.925781 C 72.828125 76.914062 72.816406 76.902344 72.804688 76.894531 C 71.832031 76.832031 65.839844 81.308594 65.757812 82.15625 " fill-opacity="1" fill-rule="nonzero"/><path fill="#1f13ff" d="M 152.460938 217.347656 C 155.378906 219.484375 160.214844 217.128906 159.613281 212.878906 C 159.378906 211.230469 157.925781 208.34375 154.097656 209.199219 C 149.449219 210.71875 150.15625 215.660156 152.460938 217.347656 " fill-opacity="1" fill-rule="nonzero"/><path fill="#1f13ff" d="M 107.820312 125.199219 C 110.175781 127.136719 113.390625 124.824219 112.953125 121.507812 C 112.757812 120.007812 111.53125 117.785156 109.078125 118.191406 C 106.300781 118.835938 105.5 123.289062 107.820312 125.199219 " fill-opacity="1" fill-rule="nonzero"/><path fill="#1f13ff" d="M 164.515625 235.765625 C 164.21875 233.640625 161.878906 232.253906 159.605469 232.859375 C 156.230469 233.953125 155.140625 237.8125 157.664062 239.738281 C 160.75 242.089844 164.972656 239.042969 164.515625 235.765625 " fill-opacity="1" fill-rule="nonzero"/><path fill="#1f13ff" d="M 139.558594 298.421875 C 140.535156 298.253906 140.667969 297.746094 139.882812 297.183594 C 139.234375 296.71875 137.5625 296.066406 135.828125 296.277344 C 135.261719 296.363281 135.023438 296.535156 134.925781 296.667969 C 134.246094 297.542969 137.496094 298.769531 139.558594 298.421875 " fill-opacity="1" fill-rule="nonzero"/><path fill="#1f13ff" d="M 85.175781 98.707031 C 86.066406 100.238281 88.371094 98.722656 89.089844 96.136719 C 89.570312 94.417969 89.195312 92.617188 87.894531 92.792969 C 85.917969 93.25 84.191406 97.007812 85.175781 98.707031 " fill-opacity="1" fill-rule="nonzero"/><path fill="#1f13ff" d="M 155.300781 265.242188 C 152.699219 266.019531 151.683594 268.582031 153.390625 270.054688 C 155.800781 272.132812 159.648438 270.09375 159.46875 267.535156 C 159.359375 265.894531 157.292969 264.761719 155.300781 265.242188 " fill-opacity="1" fill-rule="nonzero"/><path fill="#1f13ff" d="M 122.496094 134.558594 C 122.496094 134.558594 122.5 134.558594 122.5 134.558594 C 122.5 134.558594 122.5 134.558594 122.503906 134.558594 C 122.503906 134.558594 122.503906 134.554688 122.507812 134.554688 C 124.722656 133.839844 125.21875 131.605469 125.011719 130.28125 C 124.671875 128.09375 122.53125 126.46875 120.605469 126.933594 C 120.214844 127.054688 119.402344 127.316406 118.730469 128.367188 C 116.855469 131.289062 119.210938 135.167969 122.496094 134.558594 " fill-opacity="1" fill-rule="nonzero"/><path fill="#1f13ff" d="M 139.613281 166.777344 C 143.019531 169.34375 146.800781 166.226562 146.128906 162.585938 C 145.726562 160.417969 143.574219 158.425781 140.796875 158.992188 C 137.429688 160.105469 136.746094 164.617188 139.613281 166.777344 " fill-opacity="1" fill-rule="nonzero"/><path fill="#1f13ff" d="M 63.476562 80.753906 C 63.785156 80.847656 65.914062 79.425781 66.8125 78.8125 C 66.851562 78.785156 70.582031 76.226562 70.683594 75.828125 C 69.960938 75.652344 63.429688 80.117188 63.476562 80.753906 " fill-opacity="1" fill-rule="nonzero"/><path fill="#1f13ff" d="M 85.984375 84.960938 C 84.496094 85.292969 82.210938 88.742188 82.796875 90.285156 C 83.316406 91.652344 85.359375 89.886719 86.25 87.742188 C 86.828125 86.363281 86.835938 84.878906 85.984375 84.960938 " fill-opacity="1" fill-rule="nonzero"/><path fill="#1f13ff" d="M 81.148438 77.8125 C 80.113281 77.839844 75.976562 81.738281 76 83 C 76.015625 83.804688 77.867188 82.445312 79.390625 80.777344 C 80.289062 79.792969 81.730469 77.910156 81.148438 77.8125 " fill-opacity="1" fill-rule="nonzero"/><path fill="#1f13ff" d="M 139.886719 300.390625 C 138.871094 300.058594 136.988281 299.78125 135.980469 299.902344 C 135.796875 299.929688 135.488281 299.980469 135.441406 300.128906 C 135.226562 300.808594 139.726562 301.332031 140.550781 300.957031 C 140.882812 300.804688 140.425781 300.5625 139.886719 300.390625 " fill-opacity="1" fill-rule="nonzero"/><path fill="#1f13ff" d="M 51.554688 85.910156 C 51.5625 85.894531 51.574219 85.875 51.582031 85.859375 C 51.152344 86.046875 45.835938 90.917969 45.558594 91.515625 C 45.65625 91.441406 45.65625 91.441406 47.851562 89.402344 C 50.660156 86.789062 51.328125 86.167969 51.554688 85.910156 " fill-opacity="1" fill-rule="nonzero"/><path fill="#1f13ff" d="M 55.960938 83.246094 C 59.417969 80.609375 59.675781 80.304688 59.867188 80.082031 C 59.496094 79.882812 53.554688 84.429688 53.507812 84.945312 C 53.566406 84.953125 53.707031 84.960938 55.960938 83.246094 " fill-opacity="1" fill-rule="nonzero"/><path fill="#1f13ff" d="M 77.753906 74.75 C 77.902344 74.929688 78.8125 74.429688 81.011719 72.960938 C 81.476562 72.648438 83.800781 71.082031 83.910156 70.789062 C 83.902344 70.78125 83.894531 70.777344 83.886719 70.769531 C 83.453125 70.714844 77.839844 74.003906 77.753906 74.75 " fill-opacity="1" fill-rule="nonzero"/><path fill="#1f13ff" d="M 167.742188 256.257812 C 167.742188 256.222656 167.570312 252.886719 163.878906 253.878906 C 159.628906 255.179688 161.46875 258.578125 161.871094 258.988281 C 163.242188 260.394531 167.550781 259.648438 167.742188 256.257812 " fill-opacity="1" fill-rule="nonzero"/><path fill="#1f13ff" d="M 86.691406 77.769531 C 85.5625 77.992188 83.007812 81.175781 83.144531 82.1875 C 83.25 82.953125 84.707031 82.121094 85.929688 80.324219 C 86.222656 79.886719 87.652344 77.71875 86.691406 77.769531 " fill-opacity="1" fill-rule="nonzero"/><g clip-path="url(#c3536cbbf4)"><path fill="#1f13ff" d="M 141.964844 301.863281 C 140.070312 301.78125 139.222656 301.773438 138.597656 301.824219 C 138.277344 301.855469 138.265625 301.875 138.246094 301.910156 C 138.671875 302.15625 142.636719 302.09375 143.210938 301.949219 C 143.175781 301.925781 143.160156 301.914062 141.964844 301.863281 " fill-opacity="1" fill-rule="nonzero"/></g><path fill="#1f13ff" d="M 167.457031 225.152344 C 168.027344 225.578125 169.585938 226.410156 171.804688 224.949219 C 172.535156 224.46875 173.707031 223.347656 173.410156 221.234375 C 173.011719 218.460938 170.78125 218.082031 168.992188 218.605469 C 165.382812 219.871094 165.753906 223.875 167.457031 225.152344 " fill-opacity="1" fill-rule="nonzero"/><path fill="#1f13ff" d="M 161.867188 201.0625 C 163.636719 202.527344 168.570312 201.691406 168.078125 196.941406 C 168.074219 196.898438 167.441406 192.636719 163.292969 193.695312 C 158.867188 195.027344 160.382812 199.832031 161.867188 201.0625 " fill-opacity="1" fill-rule="nonzero"/><path fill="#1f13ff" d="M 155.328125 175.605469 C 155.671875 175.839844 157.476562 176.925781 159.53125 175.503906 C 160.429688 174.878906 161.410156 173.714844 160.976562 171.695312 C 160.410156 169.078125 158.535156 167.886719 156.082031 168.59375 C 152.480469 169.882812 153.292969 174.21875 155.328125 175.605469 " fill-opacity="1" fill-rule="nonzero"/><path fill="#1f13ff" d="M 133.402344 142.542969 C 135.453125 143.738281 139.125 142.628906 138.332031 138.945312 C 137.921875 137.039062 136.300781 135.367188 134.003906 135.863281 C 130.386719 136.875 131.328125 141.332031 133.402344 142.542969 " fill-opacity="1" fill-rule="nonzero"/><path fill="#1f13ff" d="M 69.707031 74.578125 C 69.710938 74.566406 69.695312 74.558594 69.691406 74.550781 C 69.097656 74.566406 63.988281 77.683594 63.28125 78.609375 C 63.589844 78.566406 64.320312 78.15625 66.183594 76.976562 C 68.824219 75.308594 69.613281 74.769531 69.707031 74.578125 " fill-opacity="1" fill-rule="nonzero"/><path fill="#1f13ff" d="M 148.871094 294.238281 C 148.671875 294.285156 148.339844 294.359375 148.101562 294.527344 C 147.503906 294.949219 147.707031 295.820312 149.21875 296.167969 C 150.507812 296.464844 152.273438 295.988281 151.675781 295.019531 C 151.308594 294.425781 150.300781 293.953125 148.871094 294.238281 " fill-opacity="1" fill-rule="nonzero"/><path fill="#1f13ff" d="M 81.582031 75.175781 C 82.0625 75.003906 82.726562 74.667969 84.28125 73.421875 C 85.550781 72.40625 87.007812 71.175781 86.714844 71.105469 C 86.710938 71.105469 86.707031 71.105469 86.707031 71.105469 C 86.070312 71.140625 81.039062 74.652344 81.582031 75.175781 " fill-opacity="1" fill-rule="nonzero"/><path fill="#1f13ff" d="M 75.355469 73.976562 C 75.890625 73.832031 76.753906 73.382812 78.648438 72.273438 C 81.84375 70.402344 81.882812 70.292969 81.917969 70.191406 L 81.917969 70.1875 C 81.449219 70.125 75.726562 73.234375 75.355469 73.976562 " fill-opacity="1" fill-rule="nonzero"/><path fill="#1f13ff" d="M 153.1875 288.261719 C 153.089844 288.285156 152.992188 288.308594 152.894531 288.339844 C 151.617188 288.738281 150.953125 290.039062 152.574219 290.835938 C 154.003906 291.535156 156.417969 290.691406 155.980469 289.324219 C 155.898438 289.070312 155.382812 287.832031 153.1875 288.261719 " fill-opacity="1" fill-rule="nonzero"/><path fill="#1f13ff" d="M 97.9375 95.925781 C 98.644531 96.839844 100.769531 96.554688 101.015625 93.671875 C 101.019531 93.648438 101.003906 91.105469 99.316406 91.34375 C 97.390625 91.753906 97.132812 94.886719 97.9375 95.925781 " fill-opacity="1" fill-rule="nonzero"/><path fill="#1f13ff" d="M 105.402344 103.878906 C 105.414062 103.886719 106.496094 104.785156 107.511719 104.066406 C 107.878906 103.8125 108.847656 103.128906 108.742188 101.527344 C 108.734375 101.40625 108.519531 98.558594 106.3125 98.9375 C 104.152344 99.441406 104.101562 102.777344 105.402344 103.878906 " fill-opacity="1" fill-rule="nonzero"/><path fill="#1f13ff" d="M 159.230469 280.660156 C 157.082031 281.265625 156.988281 282.949219 158.066406 283.726562 C 159.273438 284.601562 162.246094 283.808594 162 281.914062 C 161.847656 280.757812 160.785156 280.277344 159.230469 280.660156 " fill-opacity="1" fill-rule="nonzero"/><path fill="#1f13ff" d="M 148.035156 150.890625 C 149.6875 151.945312 153.363281 151.246094 152.730469 147.488281 C 152.625 146.871094 151.457031 143.921875 148.429688 144.792969 C 144.9375 145.992188 146.589844 149.972656 148.035156 150.890625 " fill-opacity="1" fill-rule="nonzero"/><path fill="#1f13ff" d="M 173.242188 241.128906 C 169.707031 242.316406 170.609375 245.367188 171.171875 246.078125 C 172.484375 247.753906 176.546875 246.722656 176.757812 243.371094 C 176.789062 242.855469 176.28125 240.242188 173.242188 241.128906 " fill-opacity="1" fill-rule="nonzero"/><path fill="#1f13ff" d="M 58.476562 80.09375 C 61.285156 78.027344 61.285156 78.027344 61.457031 77.878906 C 61.472656 77.859375 61.496094 77.839844 61.507812 77.816406 C 61.058594 78.007812 57.019531 81.015625 56.703125 81.394531 C 57.332031 81.011719 57.886719 80.527344 58.476562 80.09375 " fill-opacity="1" fill-rule="nonzero"/><g clip-path="url(#718e5df37f)"><path fill="#1f13ff" d="M 80.65625 69.472656 C 80.441406 69.351562 75.304688 71.863281 74.699219 72.53125 C 74.863281 72.582031 75.652344 72.195312 77.46875 71.246094 C 80.015625 69.921875 80.582031 69.609375 80.65625 69.472656 " fill-opacity="1" fill-rule="nonzero"/></g><path fill="#1f13ff" d="M 148.777344 299.558594 C 149.625 299.441406 149.792969 299.21875 149.304688 298.867188 C 149.296875 298.859375 148.230469 298.195312 146.703125 298.464844 C 146.519531 298.5 146.136719 298.578125 146.019531 298.738281 C 145.726562 299.132812 147.28125 299.769531 148.777344 299.558594 " fill-opacity="1" fill-rule="nonzero"/><path fill="#1f13ff" d="M 95.742188 86.246094 C 95.925781 85.222656 95.925781 84.027344 94.878906 84.152344 C 93.285156 84.457031 92.652344 87.5 93.230469 88.25 C 93.777344 88.953125 95.347656 88.445312 95.742188 86.246094 " fill-opacity="1" fill-rule="nonzero"/><path fill="#1f13ff" d="M 169.488281 272.863281 C 169.460938 272.101562 169.089844 270.902344 166.914062 271.429688 C 163.734375 272.40625 165.039062 274.613281 165.328125 274.878906 C 166.386719 275.835938 169.558594 274.953125 169.488281 272.863281 " fill-opacity="1" fill-rule="nonzero"/><path fill="#1f13ff" d="M 88.714844 73.140625 C 88.777344 73.078125 88.859375 72.996094 88.921875 72.929688 C 90.386719 71.414062 90.296875 71.242188 90.105469 71.246094 C 89.351562 71.363281 86.4375 74.0625 86.390625 74.679688 C 86.375 74.960938 86.929688 74.960938 88.714844 73.140625 " fill-opacity="1" fill-rule="nonzero"/><path fill="#1f13ff" d="M 115.203125 111.886719 C 116.574219 112.792969 119.183594 111.929688 118.617188 109.195312 C 118.324219 107.769531 117.394531 106.394531 115.671875 106.816406 C 113.046875 107.601562 113.953125 111.058594 115.203125 111.886719 " fill-opacity="1" fill-rule="nonzero"/><path fill="#1f13ff" d="M 126.980469 119.773438 C 128.625 120.738281 131.125 119.542969 130.371094 117.015625 C 130.066406 115.992188 129.246094 114.339844 127.171875 114.8125 C 124.492188 115.558594 125.636719 118.984375 126.980469 119.773438 " fill-opacity="1" fill-rule="nonzero"/><path fill="#1f13ff" d="M 170.890625 183.789062 C 172.363281 185.140625 176.136719 184.691406 175.808594 180.453125 C 175.71875 179.253906 174.269531 178.28125 174.253906 178.273438 C 173.324219 177.691406 172.445312 177.933594 171.976562 178.0625 C 168.726562 179.128906 169.644531 182.648438 170.890625 183.789062 " fill-opacity="1" fill-rule="nonzero"/><path fill="#1f13ff" d="M 146.746094 300.878906 C 146.617188 300.898438 146.347656 300.945312 146.355469 301.011719 C 146.363281 301.113281 146.984375 301.222656 147.964844 301.226562 C 148.449219 301.230469 149.582031 301.164062 149.636719 301.039062 C 149.605469 301.007812 149.550781 300.984375 149.171875 300.921875 C 149.160156 300.917969 147.792969 300.71875 146.746094 300.878906 " fill-opacity="1" fill-rule="nonzero"/><path fill="#1f13ff" d="M 91.132812 80.742188 C 91.199219 80.929688 91.417969 81.316406 92.011719 80.875 C 92.34375 80.632812 92.828125 80.191406 93.230469 79.191406 C 93.519531 78.472656 93.894531 77.277344 93.152344 77.335938 C 92.15625 77.492188 90.851562 79.949219 91.132812 80.742188 " fill-opacity="1" fill-rule="nonzero"/><path fill="#1f13ff" d="M 177.308594 209.136719 C 178.121094 209.707031 179.738281 209.734375 180.304688 209.339844 C 180.835938 208.96875 182.449219 207.84375 182.121094 205.78125 C 181.855469 204.125 180.632812 202.757812 178.5 203.441406 C 175.128906 204.679688 176.101562 208.292969 177.308594 209.136719 " fill-opacity="1" fill-rule="nonzero"/><path fill="#1f13ff" d="M 67.128906 74.851562 C 67.15625 74.835938 69.8125 73.289062 70.109375 73.007812 C 70.109375 73 70.109375 72.988281 70.109375 72.976562 C 69.671875 73.054688 65.65625 75.382812 65.121094 75.9375 C 65.125 75.945312 65.125 75.957031 65.128906 75.960938 C 65.296875 75.914062 65.78125 75.636719 67.128906 74.851562 " fill-opacity="1" fill-rule="nonzero"/><path fill="#1f13ff" d="M 183.046875 227.355469 C 180.539062 228.179688 180.308594 230.765625 181.492188 231.953125 C 182.808594 233.277344 185.945312 231.863281 185.902344 229.433594 C 185.894531 228.953125 185.714844 226.59375 183.046875 227.355469 " fill-opacity="1" fill-rule="nonzero"/><path fill="#1f13ff" d="M 178.023438 262.203125 C 178.03125 261.578125 177.816406 260.1875 175.734375 260.738281 C 173.300781 261.472656 173.363281 263.539062 174.039062 264.253906 C 175.074219 265.339844 178.007812 264.148438 178.023438 262.203125 " fill-opacity="1" fill-rule="nonzero"/><path fill="#1f13ff" d="M 163.617188 158.871094 C 165.328125 159.957031 168.285156 158.625 167.539062 155.941406 C 167.347656 155.246094 166.523438 153.039062 163.992188 153.742188 C 161.140625 154.6875 162.207031 157.976562 163.617188 158.871094 " fill-opacity="1" fill-rule="nonzero"/><path fill="#1f13ff" d="M 140.332031 127.449219 C 141.5625 128.230469 144.242188 127.738281 143.59375 125.015625 C 143.585938 124.988281 142.828125 122.273438 140.410156 122.980469 C 137.753906 123.890625 139.378906 126.847656 140.332031 127.449219 " fill-opacity="1" fill-rule="nonzero"/><path fill="#1f13ff" d="M 93.5 72.683594 C 93.613281 72.527344 94.601562 71.164062 94.117188 71.164062 C 93.40625 71.3125 91.910156 73.359375 91.933594 73.8125 C 91.933594 73.820312 92.144531 74.523438 93.5 72.683594 " fill-opacity="1" fill-rule="nonzero"/><path fill="#1f13ff" d="M 157.757812 296.507812 C 157.683594 296.527344 157.605469 296.546875 157.53125 296.570312 C 156.855469 296.800781 157.023438 297.152344 157.351562 297.316406 C 157.890625 297.589844 159.21875 297.367188 159.027344 296.789062 C 159.027344 296.785156 158.742188 296.308594 157.757812 296.507812 " fill-opacity="1" fill-rule="nonzero"/><path fill="#1f13ff" d="M 185.203125 248.808594 C 183.910156 249.285156 183 250.890625 183.839844 251.886719 C 184.691406 252.894531 187.003906 251.953125 187.167969 250.136719 C 187.296875 248.75 186.273438 248.472656 185.203125 248.808594 " fill-opacity="1" fill-rule="nonzero"/><path fill="#1f13ff" d="M 155.171875 135.007812 C 156.734375 135.78125 158.488281 134.550781 157.757812 132.652344 C 157.28125 131.417969 156.1875 130.835938 155.03125 131.203125 C 152.929688 131.996094 154.035156 134.445312 155.171875 135.007812 " fill-opacity="1" fill-rule="nonzero"/><path fill="#1f13ff" d="M 162.226562 291.6875 C 161.226562 291.941406 161.066406 292.570312 161.394531 292.894531 C 161.96875 293.453125 163.558594 292.957031 163.519531 292.230469 C 163.503906 291.925781 163.214844 291.46875 162.226562 291.6875 " fill-opacity="1" fill-rule="nonzero"/><path fill="#1f13ff" d="M 186.867188 191.847656 C 187.84375 192.582031 190.15625 191.746094 189.816406 189.628906 C 189.648438 188.570312 189.097656 187.414062 187.445312 187.925781 C 185.289062 188.695312 185.941406 191.160156 186.867188 191.847656 " fill-opacity="1" fill-rule="nonzero"/><path fill="#1f13ff" d="M 192.722656 212.796875 C 190.648438 213.53125 191.128906 215.792969 191.832031 216.304688 C 191.839844 216.308594 192.738281 216.914062 193.84375 216.097656 C 194.089844 215.914062 194.84375 215.359375 194.726562 214.164062 C 194.65625 213.441406 194.300781 212.300781 192.722656 212.796875 " fill-opacity="1" fill-rule="nonzero"/><path fill="#1f13ff" d="M 168.4375 285.175781 C 166.894531 285.636719 167.496094 286.675781 167.503906 286.683594 C 167.902344 287.183594 169.605469 286.804688 169.699219 285.792969 C 169.722656 285.5 169.65625 284.847656 168.4375 285.175781 " fill-opacity="1" fill-rule="nonzero"/><path fill="#1f13ff" d="M 120.886719 99.253906 C 121.570312 99.644531 123 99.25 122.523438 97.765625 C 122.371094 97.289062 121.898438 96.214844 120.800781 96.507812 C 119.316406 96.988281 120.230469 98.878906 120.886719 99.253906 " fill-opacity="1" fill-rule="nonzero"/><path fill="#1f13ff" d="M 156.523438 299.550781 C 156.394531 299.488281 156.023438 299.359375 155.375 299.492188 C 155.269531 299.511719 155.054688 299.5625 155.015625 299.632812 C 154.914062 299.820312 155.910156 299.929688 156.472656 299.738281 C 156.648438 299.675781 156.664062 299.617188 156.523438 299.550781 " fill-opacity="1" fill-rule="nonzero"/><path fill="#1f13ff" d="M 111.257812 92.195312 C 111.746094 92.609375 113.101562 92.5625 112.90625 90.9375 C 112.90625 90.917969 112.640625 89.328125 111.445312 89.613281 C 110.277344 89.964844 110.695312 91.714844 111.257812 92.195312 " fill-opacity="1" fill-rule="nonzero"/><path fill="#1f13ff" d="M 100.722656 77.859375 C 100.78125 77.484375 100.859375 76.617188 100.277344 76.695312 C 99.53125 76.859375 99.351562 78.390625 99.644531 78.730469 C 99.914062 79.042969 100.566406 78.84375 100.722656 77.859375 " fill-opacity="1" fill-rule="nonzero"/><path fill="#1f13ff" d="M 104.179688 85.371094 C 104.328125 85.496094 104.722656 85.742188 105.179688 85.324219 C 105.375 85.148438 105.597656 84.796875 105.542969 84.132812 C 105.519531 83.8125 105.375 82.78125 104.5625 82.957031 C 103.511719 83.253906 103.71875 84.984375 104.179688 85.371094 " fill-opacity="1" fill-rule="nonzero"/><path fill="#1f13ff" d="M 179.625 166.574219 C 180.46875 167.074219 182.742188 166.683594 182.238281 164.355469 C 182.234375 164.335938 181.714844 162.351562 179.863281 162.917969 C 177.757812 163.671875 178.757812 166.058594 179.625 166.574219 " fill-opacity="1" fill-rule="nonzero"/><path fill="#1f13ff" d="M 132.625 106.21875 C 133.429688 106.519531 133.644531 106.28125 133.917969 105.980469 C 134.050781 105.832031 134.332031 105.402344 134.023438 104.660156 C 133.6875 103.847656 132.945312 103.425781 132.222656 103.632812 C 132.1875 103.644531 132.140625 103.660156 132.109375 103.675781 C 131.148438 104.082031 131.496094 105.792969 132.625 106.21875 " fill-opacity="1" fill-rule="nonzero"/><path fill="#1f13ff" d="M 176.324219 276.882812 C 175.246094 277.207031 174.914062 278.097656 175.214844 278.539062 C 175.503906 278.957031 176.355469 278.746094 176.367188 278.742188 C 176.375 278.738281 177.269531 278.261719 177.398438 277.652344 C 177.460938 277.363281 177.394531 276.601562 176.324219 276.882812 " fill-opacity="1" fill-rule="nonzero"/><path fill="#1f13ff" d="M 185.269531 267.125 C 184.171875 267.515625 184.25 268.449219 184.394531 268.644531 C 184.703125 269.054688 185.9375 268.671875 186.128906 267.796875 C 186.164062 267.628906 186.292969 266.800781 185.269531 267.125 " fill-opacity="1" fill-rule="nonzero"/><g clip-path="url(#51b928e8a9)"><path fill="#1f13ff" d="M 195.199219 235.742188 C 194.085938 236.140625 193.851562 237.472656 194.351562 238.019531 C 194.902344 238.628906 196.480469 237.847656 196.527344 236.6875 C 196.550781 236.167969 196.40625 235.351562 195.199219 235.742188 " fill-opacity="1" fill-rule="nonzero"/></g><path fill="#1f13ff" d="M 170.746094 142.238281 C 171.542969 142.636719 172.988281 142.003906 172.464844 140.65625 C 172.261719 140.136719 171.765625 139.308594 170.707031 139.632812 C 169.15625 140.1875 170.0625 141.894531 170.746094 142.238281 " fill-opacity="1" fill-rule="nonzero"/><path fill="#1f13ff" d="M 145.898438 112.960938 C 145.957031 112.980469 146.464844 113.167969 146.808594 112.839844 C 147.085938 112.570312 147.152344 112.253906 147.007812 111.894531 C 147 111.882812 146.550781 110.808594 145.625 111.058594 C 145.578125 111.074219 145.53125 111.089844 145.488281 111.113281 C 144.621094 111.519531 145.25 112.703125 145.898438 112.960938 " fill-opacity="1" fill-rule="nonzero"/><g fill="#790000" fill-opacity="1"><g transform="translate(146.132368, 235.846922)"><g><path d="M 31.640625 0.125 C 28.117188 0.125 26.210938 -0.441406 25.921875 -1.578125 L 23.921875 -9.4375 L 14.234375 -9.4375 L 12.46875 -1.890625 C 12.226562 -0.628906 10.285156 0 6.640625 0 C 4.691406 0 3.25 -0.109375 2.3125 -0.328125 C 1.375 -0.554688 0.90625 -0.734375 0.90625 -0.859375 L 11.6875 -42.046875 C 11.6875 -42.378906 14.460938 -42.546875 20.015625 -42.546875 C 25.578125 -42.546875 28.359375 -42.378906 28.359375 -42.046875 L 38.890625 -0.796875 C 38.890625 -0.503906 37.957031 -0.273438 36.09375 -0.109375 C 34.226562 0.046875 32.742188 0.125 31.640625 0.125 Z M 15.765625 -17.15625 L 22.15625 -17.15625 L 19.421875 -29.765625 L 19.046875 -29.765625 Z M 15.765625 -17.15625 "/></g></g></g><g fill="#790000" fill-opacity="1"><g transform="translate(185.986214, 235.846922)"><g><path d="M 25.796875 -42.609375 C 26.492188 -42.609375 26.84375 -40.8125 26.84375 -37.21875 C 26.84375 -33.625 26.492188 -31.828125 25.796875 -31.828125 L 14.671875 -31.828125 L 14.671875 -24.890625 L 22.09375 -24.890625 C 22.78125 -24.890625 23.125 -23.316406 23.125 -20.171875 C 23.125 -17.023438 22.800781 -15.453125 22.15625 -15.453125 L 14.671875 -15.453125 L 14.671875 -0.796875 C 14.671875 -0.222656 13.910156 0.148438 12.390625 0.328125 C 10.867188 0.515625 9.597656 0.609375 8.578125 0.609375 L 5.71875 0.484375 C 3.726562 0.242188 2.734375 -0.160156 2.734375 -0.734375 L 2.734375 -41.015625 C 2.734375 -41.671875 2.863281 -42.097656 3.125 -42.296875 C 3.394531 -42.503906 3.796875 -42.609375 4.328125 -42.609375 Z M 25.796875 -42.609375 "/></g></g></g><g fill="#790000" fill-opacity="1"><g transform="translate(214.705311, 235.846922)"><g><path d="M 14.671875 -0.859375 C 14.671875 -0.203125 12.742188 0.125 8.890625 0.125 C 4.992188 0.125 3.046875 -0.179688 3.046875 -0.796875 L 3.046875 -40.46875 C 3.046875 -41.894531 3.796875 -42.609375 5.296875 -42.609375 L 16.921875 -42.609375 C 27.585938 -42.609375 32.921875 -38.445312 32.921875 -30.125 C 32.921875 -27.613281 32.429688 -25.332031 31.453125 -23.28125 C 30.484375 -21.226562 29.109375 -19.59375 27.328125 -18.375 L 35 -5.59375 C 34.664062 -4.625 33.609375 -3.507812 31.828125 -2.25 C 29.390625 -0.507812 27.378906 0.359375 25.796875 0.359375 C 24.222656 0.359375 23.050781 -0.207031 22.28125 -1.34375 L 16.546875 -14.671875 L 14.671875 -14.671875 Z M 14.671875 -31.828125 L 14.671875 -22.703125 L 14.96875 -22.703125 C 18.820312 -22.703125 20.75 -24.304688 20.75 -27.515625 C 20.75 -28.972656 20.375 -30.054688 19.625 -30.765625 C 18.875 -31.472656 17.644531 -31.828125 15.9375 -31.828125 Z M 14.671875 -31.828125 "/></g></g></g><g fill="#790000" fill-opacity="1"><g transform="translate(250.604188, 235.846922)"><g><path d="M 7.0625 -10.46875 L 7.0625 -32.140625 L 2.734375 -32.140625 C 2.046875 -32.140625 1.5625 -33.007812 1.28125 -34.75 C 1.15625 -35.601562 1.09375 -36.472656 1.09375 -37.359375 C 1.09375 -38.253906 1.15625 -39.128906 1.28125 -39.984375 C 1.5625 -41.734375 2.046875 -42.609375 2.734375 -42.609375 L 23.1875 -42.609375 C 23.875 -42.609375 24.34375 -41.734375 24.59375 -39.984375 C 24.75 -39.128906 24.828125 -38.253906 24.828125 -37.359375 C 24.828125 -36.472656 24.75 -35.601562 24.59375 -34.75 C 24.34375 -33.007812 23.875 -32.140625 23.1875 -32.140625 L 19.109375 -32.140625 L 19.109375 -10.46875 L 23.375 -10.46875 C 24.0625 -10.46875 24.546875 -9.59375 24.828125 -7.84375 C 24.992188 -7 25.078125 -6.128906 25.078125 -5.234375 C 25.078125 -4.335938 24.992188 -3.460938 24.828125 -2.609375 C 24.546875 -0.867188 24.0625 0 23.375 0 L 2.859375 0 C 2.171875 0 1.703125 -0.867188 1.453125 -2.609375 C 1.296875 -3.460938 1.21875 -4.335938 1.21875 -5.234375 C 1.21875 -6.128906 1.296875 -7 1.453125 -7.84375 C 1.703125 -9.59375 2.171875 -10.46875 2.859375 -10.46875 Z M 7.0625 -10.46875 "/></g></g></g><g fill="#790000" fill-opacity="1"><g transform="translate(276.70693, 235.846922)"><g><path d="M 20.453125 -43.15625 C 23.410156 -43.15625 26.015625 -42.738281 28.265625 -41.90625 C 30.515625 -41.070312 31.640625 -39.941406 31.640625 -38.515625 C 31.640625 -37.097656 31.101562 -35.34375 30.03125 -33.25 C 28.957031 -31.164062 28.054688 -30.125 27.328125 -30.125 C 27.117188 -30.125 26.882812 -30.234375 26.625 -30.453125 C 26.363281 -30.679688 25.753906 -30.925781 24.796875 -31.1875 C 23.847656 -31.457031 23.023438 -31.59375 22.328125 -31.59375 C 19.984375 -31.59375 18.085938 -30.757812 16.640625 -29.09375 C 15.203125 -27.425781 14.484375 -24.878906 14.484375 -21.453125 C 14.484375 -18.023438 15.222656 -15.476562 16.703125 -13.8125 C 18.179688 -12.144531 20.054688 -11.3125 22.328125 -11.3125 C 23.265625 -11.3125 24.3125 -11.441406 25.46875 -11.703125 C 26.625 -11.972656 27.445312 -12.351562 27.9375 -12.84375 C 28.019531 -12.925781 28.179688 -12.96875 28.421875 -12.96875 C 28.660156 -12.96875 29.113281 -12.507812 29.78125 -11.59375 C 30.457031 -10.675781 31.078125 -9.476562 31.640625 -8 C 32.210938 -6.519531 32.5 -5.375 32.5 -4.5625 C 32.5 -2.976562 31.28125 -1.71875 28.84375 -0.78125 C 26.414062 0.144531 23.535156 0.609375 20.203125 0.609375 C 14.847656 0.609375 10.445312 -1.273438 7 -5.046875 C 3.550781 -8.828125 1.828125 -14.15625 1.828125 -21.03125 C 1.828125 -27.90625 3.597656 -33.3125 7.140625 -37.25 C 10.691406 -41.1875 15.128906 -43.15625 20.453125 -43.15625 Z M 20.453125 -43.15625 "/></g></g></g><g fill="#790000" fill-opacity="1"><g transform="translate(310.841285, 235.846922)"><g><path d="M 31.640625 0.125 C 28.117188 0.125 26.210938 -0.441406 25.921875 -1.578125 L 23.921875 -9.4375 L 14.234375 -9.4375 L 12.46875 -1.890625 C 12.226562 -0.628906 10.285156 0 6.640625 0 C 4.691406 0 3.25 -0.109375 2.3125 -0.328125 C 1.375 -0.554688 0.90625 -0.734375 0.90625 -0.859375 L 11.6875 -42.046875 C 11.6875 -42.378906 14.460938 -42.546875 20.015625 -42.546875 C 25.578125 -42.546875 28.359375 -42.378906 28.359375 -42.046875 L 38.890625 -0.796875 C 38.890625 -0.503906 37.957031 -0.273438 36.09375 -0.109375 C 34.226562 0.046875 32.742188 0.125 31.640625 0.125 Z M 15.765625 -17.15625 L 22.15625 -17.15625 L 19.421875 -29.765625 L 19.046875 -29.765625 Z M 15.765625 -17.15625 "/></g></g></g><g fill="#1f13ff" fill-opacity="1"><g transform="translate(169.359306, 178.783368)"><g><path d="M 7.09375 -5.78125 L 17.140625 -5.78125 C 17.640625 -5.78125 18.015625 -5.765625 18.265625 -5.734375 C 18.515625 -5.703125 18.804688 -5.597656 19.140625 -5.421875 C 19.722656 -5.117188 20.015625 -4.269531 20.015625 -2.875 C 20.015625 -1.351562 19.613281 -0.460938 18.8125 -0.203125 C 18.4375 -0.0664062 17.867188 0 17.109375 0 L 4.1875 0 C 2.65625 0 1.757812 -0.410156 1.5 -1.234375 C 1.375 -1.585938 1.3125 -2.144531 1.3125 -2.90625 L 1.3125 -21.0625 C 1.3125 -22.175781 1.515625 -22.929688 1.921875 -23.328125 C 2.335938 -23.734375 3.125 -23.9375 4.28125 -23.9375 L 17.140625 -23.9375 C 17.640625 -23.9375 18.015625 -23.921875 18.265625 -23.890625 C 18.515625 -23.859375 18.804688 -23.753906 19.140625 -23.578125 C 19.722656 -23.273438 20.015625 -22.425781 20.015625 -21.03125 C 20.015625 -19.507812 19.613281 -18.617188 18.8125 -18.359375 C 18.4375 -18.222656 17.867188 -18.15625 17.109375 -18.15625 L 7.09375 -18.15625 L 7.09375 -14.859375 L 13.546875 -14.859375 C 14.046875 -14.859375 14.421875 -14.84375 14.671875 -14.8125 C 14.921875 -14.78125 15.210938 -14.675781 15.546875 -14.5 C 16.128906 -14.195312 16.421875 -13.347656 16.421875 -11.953125 C 16.421875 -10.429688 16.007812 -9.539062 15.1875 -9.28125 C 14.8125 -9.144531 14.242188 -9.078125 13.484375 -9.078125 L 7.09375 -9.078125 Z M 7.09375 -5.78125 "/></g></g></g><g fill="#1f13ff" fill-opacity="1"><g transform="translate(190.196482, 178.783368)"><g><path d="M 10.9375 -4.546875 L 3.171875 -4.546875 C 1.953125 -4.546875 1.222656 -4.914062 0.984375 -5.65625 C 0.867188 -6.039062 0.8125 -6.535156 0.8125 -7.140625 C 0.8125 -7.753906 0.875 -8.242188 1 -8.609375 C 1.132812 -8.984375 1.34375 -9.25 1.625 -9.40625 C 2.019531 -9.601562 2.546875 -9.703125 3.203125 -9.703125 L 10.96875 -9.703125 C 12.1875 -9.703125 12.90625 -9.34375 13.125 -8.625 C 13.257812 -8.226562 13.328125 -7.722656 13.328125 -7.109375 C 13.328125 -6.503906 13.265625 -6.007812 13.140625 -5.625 C 13.023438 -5.25 12.835938 -4.984375 12.578125 -4.828125 C 12.179688 -4.640625 11.632812 -4.546875 10.9375 -4.546875 Z M 10.9375 -4.546875 "/></g></g></g><g fill="#1f13ff" fill-opacity="1"><g transform="translate(204.338324, 178.783368)"><g><path d="M 7.09375 -4.828125 L 15.96875 -4.828125 C 16.6875 -4.828125 17.207031 -4.742188 17.53125 -4.578125 C 17.863281 -4.421875 18.082031 -4.164062 18.1875 -3.8125 C 18.300781 -3.46875 18.359375 -3.003906 18.359375 -2.421875 C 18.359375 -1.847656 18.300781 -1.382812 18.1875 -1.03125 C 18.082031 -0.6875 17.898438 -0.453125 17.640625 -0.328125 C 17.222656 -0.109375 16.65625 0 15.9375 0 L 4.1875 0 C 2.65625 0 1.757812 -0.410156 1.5 -1.234375 C 1.375 -1.585938 1.3125 -2.144531 1.3125 -2.90625 L 1.3125 -21.0625 C 1.3125 -21.5625 1.328125 -21.9375 1.359375 -22.1875 C 1.390625 -22.4375 1.492188 -22.726562 1.671875 -23.0625 C 1.972656 -23.644531 2.820312 -23.9375 4.21875 -23.9375 C 5.738281 -23.9375 6.640625 -23.535156 6.921875 -22.734375 C 7.035156 -22.359375 7.09375 -21.789062 7.09375 -21.03125 Z M 7.09375 -4.828125 "/></g></g></g><g fill="#1f13ff" fill-opacity="1"><g transform="translate(223.509834, 178.783368)"><g><path d="M 7.09375 -5.78125 L 17.140625 -5.78125 C 17.640625 -5.78125 18.015625 -5.765625 18.265625 -5.734375 C 18.515625 -5.703125 18.804688 -5.597656 19.140625 -5.421875 C 19.722656 -5.117188 20.015625 -4.269531 20.015625 -2.875 C 20.015625 -1.351562 19.613281 -0.460938 18.8125 -0.203125 C 18.4375 -0.0664062 17.867188 0 17.109375 0 L 4.1875 0 C 2.65625 0 1.757812 -0.410156 1.5 -1.234375 C 1.375 -1.585938 1.3125 -2.144531 1.3125 -2.90625 L 1.3125 -21.0625 C 1.3125 -22.175781 1.515625 -22.929688 1.921875 -23.328125 C 2.335938 -23.734375 3.125 -23.9375 4.28125 -23.9375 L 17.140625 -23.9375 C 17.640625 -23.9375 18.015625 -23.921875 18.265625 -23.890625 C 18.515625 -23.859375 18.804688 -23.753906 19.140625 -23.578125 C 19.722656 -23.273438 20.015625 -22.425781 20.015625 -21.03125 C 20.015625 -19.507812 19.613281 -18.617188 18.8125 -18.359375 C 18.4375 -18.222656 17.867188 -18.15625 17.109375 -18.15625 L 7.09375 -18.15625 L 7.09375 -14.859375 L 13.546875 -14.859375 C 14.046875 -14.859375 14.421875 -14.84375 14.671875 -14.8125 C 14.921875 -14.78125 15.210938 -14.675781 15.546875 -14.5 C 16.128906 -14.195312 16.421875 -13.347656 16.421875 -11.953125 C 16.421875 -10.429688 16.007812 -9.539062 15.1875 -9.28125 C 14.8125 -9.144531 14.242188 -9.078125 13.484375 -9.078125 L 7.09375 -9.078125 Z M 7.09375 -5.78125 "/></g></g></g><g fill="#1f13ff" fill-opacity="1"><g transform="translate(244.34701, 178.783368)"><g><path d="M 15.125 -22.234375 L 23.9375 -4.015625 C 24.300781 -3.273438 24.484375 -2.71875 24.484375 -2.34375 C 24.484375 -1.5625 23.851562 -0.859375 22.59375 -0.234375 C 21.851562 0.140625 21.269531 0.328125 20.84375 0.328125 C 20.425781 0.328125 20.078125 0.226562 19.796875 0.03125 C 19.523438 -0.164062 19.328125 -0.375 19.203125 -0.59375 C 19.085938 -0.8125 18.925781 -1.132812 18.71875 -1.5625 L 17.015625 -5.09375 L 7.96875 -5.09375 L 6.265625 -1.5625 C 6.046875 -1.132812 5.875 -0.820312 5.75 -0.625 C 5.632812 -0.425781 5.441406 -0.222656 5.171875 -0.015625 C 4.898438 0.191406 4.550781 0.296875 4.125 0.296875 C 3.707031 0.296875 3.128906 0.109375 2.390625 -0.265625 C 1.117188 -0.867188 0.484375 -1.5625 0.484375 -2.34375 C 0.484375 -2.71875 0.671875 -3.273438 1.046875 -4.015625 L 9.859375 -22.265625 C 10.097656 -22.765625 10.460938 -23.164062 10.953125 -23.46875 C 11.441406 -23.78125 11.957031 -23.9375 12.5 -23.9375 C 13.675781 -23.9375 14.550781 -23.367188 15.125 -22.234375 Z M 12.46875 -14.40625 L 10.3125 -9.921875 L 14.65625 -9.921875 Z M 12.46875 -14.40625 "/></g></g></g><g fill="#1f13ff" fill-opacity="1"><g transform="translate(269.332025, 178.783368)"><g><path d="M 19.625 -4.046875 C 19.945312 -3.265625 20.109375 -2.695312 20.109375 -2.34375 C 20.109375 -1.519531 19.4375 -0.828125 18.09375 -0.265625 C 17.394531 0.046875 16.832031 0.203125 16.40625 0.203125 C 15.976562 0.203125 15.628906 0.0976562 15.359375 -0.109375 C 15.085938 -0.316406 14.890625 -0.53125 14.765625 -0.75 C 14.546875 -1.164062 13.695312 -3.132812 12.21875 -6.65625 L 11.203125 -6.59375 L 7.09375 -6.59375 L 7.09375 -2.90625 C 7.09375 -2.40625 7.070312 -2.03125 7.03125 -1.78125 C 7 -1.53125 6.898438 -1.242188 6.734375 -0.921875 C 6.421875 -0.328125 5.570312 -0.03125 4.1875 -0.03125 C 2.65625 -0.03125 1.757812 -0.429688 1.5 -1.234375 C 1.375 -1.609375 1.3125 -2.175781 1.3125 -2.9375 L 1.3125 -21.0625 C 1.3125 -21.5625 1.328125 -21.9375 1.359375 -22.1875 C 1.390625 -22.4375 1.492188 -22.726562 1.671875 -23.0625 C 1.972656 -23.644531 2.820312 -23.9375 4.21875 -23.9375 L 11.265625 -23.9375 C 13.179688 -23.9375 15.039062 -23.238281 16.84375 -21.84375 C 17.71875 -21.164062 18.4375 -20.25 19 -19.09375 C 19.570312 -17.945312 19.859375 -16.664062 19.859375 -15.25 C 19.859375 -12.789062 19.039062 -10.765625 17.40625 -9.171875 C 17.882812 -8.023438 18.625 -6.316406 19.625 -4.046875 Z M 7.09375 -12.375 L 11.265625 -12.375 C 11.898438 -12.375 12.53125 -12.613281 13.15625 -13.09375 C 13.789062 -13.570312 14.109375 -14.289062 14.109375 -15.25 C 14.109375 -16.207031 13.789062 -16.929688 13.15625 -17.421875 C 12.53125 -17.910156 11.878906 -18.15625 11.203125 -18.15625 L 7.09375 -18.15625 Z M 7.09375 -12.375 "/></g></g></g><g fill="#1f13ff" fill-opacity="1"><g transform="translate(289.940579, 178.783368)"><g><path d="M 16.765625 -22.9375 C 16.972656 -23.320312 17.28125 -23.578125 17.6875 -23.703125 C 18.101562 -23.835938 18.625 -23.90625 19.25 -23.90625 C 19.875 -23.90625 20.375 -23.847656 20.75 -23.734375 C 21.132812 -23.628906 21.414062 -23.5 21.59375 -23.34375 C 21.78125 -23.195312 21.921875 -22.96875 22.015625 -22.65625 C 22.140625 -22.3125 22.203125 -21.757812 22.203125 -21 L 22.203125 -2.875 C 22.203125 -2.351562 22.1875 -1.972656 22.15625 -1.734375 C 22.125 -1.492188 22.019531 -1.207031 21.84375 -0.875 C 21.539062 -0.289062 20.691406 0 19.296875 0 C 18.453125 0 17.863281 -0.0625 17.53125 -0.1875 C 17.207031 -0.320312 16.9375 -0.53125 16.71875 -0.8125 C 11.820312 -7.34375 8.597656 -11.613281 7.046875 -13.625 L 7.046875 -2.875 C 7.046875 -2.351562 7.03125 -1.972656 7 -1.734375 C 6.96875 -1.492188 6.863281 -1.207031 6.6875 -0.875 C 6.382812 -0.289062 5.535156 0 4.140625 0 C 2.796875 0 1.972656 -0.289062 1.671875 -0.875 C 1.492188 -1.207031 1.390625 -1.503906 1.359375 -1.765625 C 1.328125 -2.023438 1.3125 -2.40625 1.3125 -2.90625 L 1.3125 -21.125 C 1.3125 -21.957031 1.410156 -22.5625 1.609375 -22.9375 C 1.816406 -23.320312 2.128906 -23.578125 2.546875 -23.703125 C 2.960938 -23.835938 3.492188 -23.90625 4.140625 -23.90625 C 4.796875 -23.90625 5.3125 -23.84375 5.6875 -23.71875 C 6.070312 -23.601562 6.34375 -23.46875 6.5 -23.3125 C 6.582031 -23.25 6.832031 -22.96875 7.25 -22.46875 C 11.84375 -16.21875 14.910156 -12.09375 16.453125 -10.09375 L 16.453125 -21.125 C 16.453125 -21.957031 16.554688 -22.5625 16.765625 -22.9375 Z M 16.765625 -22.9375 "/></g></g></g><g fill="#1f13ff" fill-opacity="1"><g transform="translate(313.45589, 178.783368)"><g><path d="M 1.3125 -21.0625 C 1.3125 -21.5625 1.328125 -21.9375 1.359375 -22.1875 C 1.390625 -22.4375 1.492188 -22.726562 1.671875 -23.0625 C 1.972656 -23.644531 2.820312 -23.9375 4.21875 -23.9375 C 5.738281 -23.9375 6.640625 -23.535156 6.921875 -22.734375 C 7.035156 -22.359375 7.09375 -21.789062 7.09375 -21.03125 L 7.09375 -2.875 C 7.09375 -2.351562 7.070312 -1.972656 7.03125 -1.734375 C 7 -1.492188 6.898438 -1.207031 6.734375 -0.875 C 6.421875 -0.289062 5.570312 0 4.1875 0 C 2.65625 0 1.757812 -0.410156 1.5 -1.234375 C 1.375 -1.585938 1.3125 -2.144531 1.3125 -2.90625 Z M 1.3125 -21.0625 "/></g></g></g><g fill="#1f13ff" fill-opacity="1"><g transform="translate(321.849549, 178.783368)"><g><path d="M 16.765625 -22.9375 C 16.972656 -23.320312 17.28125 -23.578125 17.6875 -23.703125 C 18.101562 -23.835938 18.625 -23.90625 19.25 -23.90625 C 19.875 -23.90625 20.375 -23.847656 20.75 -23.734375 C 21.132812 -23.628906 21.414062 -23.5 21.59375 -23.34375 C 21.78125 -23.195312 21.921875 -22.96875 22.015625 -22.65625 C 22.140625 -22.3125 22.203125 -21.757812 22.203125 -21 L 22.203125 -2.875 C 22.203125 -2.351562 22.1875 -1.972656 22.15625 -1.734375 C 22.125 -1.492188 22.019531 -1.207031 21.84375 -0.875 C 21.539062 -0.289062 20.691406 0 19.296875 0 C 18.453125 0 17.863281 -0.0625 17.53125 -0.1875 C 17.207031 -0.320312 16.9375 -0.53125 16.71875 -0.8125 C 11.820312 -7.34375 8.597656 -11.613281 7.046875 -13.625 L 7.046875 -2.875 C 7.046875 -2.351562 7.03125 -1.972656 7 -1.734375 C 6.96875 -1.492188 6.863281 -1.207031 6.6875 -0.875 C 6.382812 -0.289062 5.535156 0 4.140625 0 C 2.796875 0 1.972656 -0.289062 1.671875 -0.875 C 1.492188 -1.207031 1.390625 -1.503906 1.359375 -1.765625 C 1.328125 -2.023438 1.3125 -2.40625 1.3125 -2.90625 L 1.3125 -21.125 C 1.3125 -21.957031 1.410156 -22.5625 1.609375 -22.9375 C 1.816406 -23.320312 2.128906 -23.578125 2.546875 -23.703125 C 2.960938 -23.835938 3.492188 -23.90625 4.140625 -23.90625 C 4.796875 -23.90625 5.3125 -23.84375 5.6875 -23.71875 C 6.070312 -23.601562 6.34375 -23.46875 6.5 -23.3125 C 6.582031 -23.25 6.832031 -22.96875 7.25 -22.46875 C 11.84375 -16.21875 14.910156 -12.09375 16.453125 -10.09375 L 16.453125 -21.125 C 16.453125 -21.957031 16.554688 -22.5625 16.765625 -22.9375 Z M 16.765625 -22.9375 "/></g></g></g><g fill="#1f13ff" fill-opacity="1"><g transform="translate(345.364861, 178.783368)"><g><path d="M 13.78125 -14.4375 L 19.53125 -14.4375 C 20.707031 -14.394531 21.425781 -14.085938 21.6875 -13.515625 C 21.90625 -13.109375 22.015625 -12.5 22.015625 -11.6875 L 22.015625 -4.5 C 22.015625 -3.8125 21.707031 -3.148438 21.09375 -2.515625 C 19.269531 -0.617188 16.523438 0.328125 12.859375 0.328125 C 9.617188 0.328125 6.800781 -0.894531 4.40625 -3.34375 C 2.007812 -5.789062 0.8125 -8.742188 0.8125 -12.203125 C 0.8125 -15.671875 2.03125 -18.5625 4.46875 -20.875 C 6.90625 -23.195312 9.78125 -24.359375 13.09375 -24.359375 C 15.664062 -24.359375 18.09375 -23.507812 20.375 -21.8125 C 20.96875 -21.375 21.265625 -20.890625 21.265625 -20.359375 C 21.265625 -19.828125 21.015625 -19.210938 20.515625 -18.515625 C 19.660156 -17.359375 18.882812 -16.78125 18.1875 -16.78125 C 17.769531 -16.78125 17.101562 -17.078125 16.1875 -17.671875 C 15.28125 -18.273438 14.195312 -18.578125 12.9375 -18.578125 C 11.28125 -18.578125 9.804688 -17.992188 8.515625 -16.828125 C 7.234375 -15.671875 6.59375 -14.148438 6.59375 -12.265625 C 6.59375 -10.378906 7.242188 -8.773438 8.546875 -7.453125 C 9.859375 -6.140625 11.34375 -5.484375 13 -5.484375 C 14.195312 -5.484375 15.273438 -5.679688 16.234375 -6.078125 L 16.234375 -9.640625 L 13.65625 -9.640625 C 12.976562 -9.640625 12.492188 -9.722656 12.203125 -9.890625 C 11.921875 -10.066406 11.738281 -10.320312 11.65625 -10.65625 C 11.570312 -11 11.53125 -11.457031 11.53125 -12.03125 C 11.53125 -12.613281 11.578125 -13.078125 11.671875 -13.421875 C 11.773438 -13.765625 11.957031 -14.003906 12.21875 -14.140625 C 12.601562 -14.335938 13.125 -14.4375 13.78125 -14.4375 Z M 13.78125 -14.4375 "/></g></g></g><g fill="#1f13ff" fill-opacity="1"><g transform="translate(368.690351, 178.783368)"><g/></g></g></svg>