<?xml version="1.0" encoding="UTF-8"?>
<!DOCTYPE svg PUBLIC "-//W3C//DTD SVG 1.1//EN" "http://www.w3.org/Graphics/SVG/1.1/DTD/svg11.dtd">
<svg xmlns="http://www.w3.org/2000/svg" version="1.1" width="500px" height="500px" style="shape-rendering:geometricPrecision; text-rendering:geometricPrecision; image-rendering:optimizeQuality; fill-rule:evenodd; clip-rule:evenodd" xmlns:xlink="http://www.w3.org/1999/xlink">
<g><path style="opacity:1" fill="#fefefe" d="M -0.5,-0.5 C 166.167,-0.5 332.833,-0.5 499.5,-0.5C 499.5,166.167 499.5,332.833 499.5,499.5C 332.833,499.5 166.167,499.5 -0.5,499.5C -0.5,332.833 -0.5,166.167 -0.5,-0.5 Z"/></g>
<g><path style="opacity:1" fill="#894141" d="M 280.5,105.5 C 221.669,104.501 162.669,104.168 103.5,104.5C 132.262,103.829 161.762,103.496 192,103.5C 221.833,103.833 251.667,104.167 281.5,104.5C 281.376,105.107 281.043,105.44 280.5,105.5 Z"/></g>
<g><path style="opacity:1" fill="#620202" d="M 103.5,104.5 C 162.669,104.168 221.669,104.501 280.5,105.5C 275.725,127.82 271.058,150.153 266.5,172.5C 246.5,172.5 226.5,172.5 206.5,172.5C 207.508,165.451 208.842,158.451 210.5,151.5C 202.193,150.502 193.86,150.169 185.5,150.5C 182.159,166.85 178.825,183.183 175.5,199.5C 200.836,199.333 226.169,199.5 251.5,200C 231.655,214.423 211.988,229.09 192.5,244C 183.274,245.445 173.94,245.945 164.5,245.5C 161.038,262.143 157.705,278.81 154.5,295.5C 153.596,296.209 153.263,297.209 153.5,298.5C 162.017,298.826 170.35,298.493 178.5,297.5C 179.694,290.389 181.361,283.389 183.5,276.5C 201.157,275.334 218.824,275.167 236.5,276C 226.74,298.442 217.073,320.942 207.5,343.5C 166.172,344.5 124.839,344.833 83.5,344.5C 98.0481,275.595 113.048,206.762 128.5,138C 120.041,126.91 111.708,115.744 103.5,104.5 Z"/></g>
<g><path style="opacity:1" fill="#1a91c8" d="M 417.5,317.5 C 416.507,325.984 416.174,334.651 416.5,343.5C 413.15,343.665 409.817,343.498 406.5,343C 404.905,340.898 402.905,339.398 400.5,338.5C 396.881,335.35 392.881,332.684 388.5,330.5C 381.506,326.336 374.173,322.67 366.5,319.5C 365.167,325.167 365.167,330.833 366.5,336.5C 370.374,338.868 374.374,341.034 378.5,343C 376.167,343.667 373.833,343.667 371.5,343C 367.365,340.597 363.032,338.763 358.5,337.5C 358.5,342.5 358.5,347.5 358.5,352.5C 349.312,348.291 340.645,343.291 332.5,337.5C 333.487,332.695 333.821,327.695 333.5,322.5C 338.889,325.948 344.389,329.281 350,332.5C 350.684,331.216 350.517,330.049 349.5,329C 345.931,327.058 342.598,324.892 339.5,322.5C 340.651,317.35 340.817,312.016 340,306.5C 336.661,305.092 333.827,303.092 331.5,300.5C 329.241,297.062 326.741,293.729 324,290.5C 323.31,289.262 322.81,289.262 322.5,290.5C 320.871,288.142 319.705,285.476 319,282.5C 318.768,283.737 318.268,284.737 317.5,285.5C 316.928,283.745 316.094,282.078 315,280.5C 309.926,275.324 305.092,269.99 300.5,264.5C 317.992,263.503 335.659,263.17 353.5,263.5C 350.371,264.899 347.371,266.565 344.5,268.5C 337.482,271.564 330.482,274.731 323.5,278C 322.122,283.032 323.455,287.199 327.5,290.5C 333.757,288.371 339.757,285.704 345.5,282.5C 352.484,279.675 359.151,276.341 365.5,272.5C 372.376,269.236 378.71,265.236 384.5,260.5C 394.48,254.525 400.48,245.858 402.5,234.5C 402.589,230.933 401.755,227.6 400,224.5C 400.028,228.685 398.695,232.352 396,235.5C 392.233,239.776 388.066,243.443 383.5,246.5C 377.144,250.534 370.811,254.534 364.5,258.5C 360.883,259.642 357.55,261.308 354.5,263.5C 354.5,261.5 354.5,259.5 354.5,257.5C 355.49,226.837 355.99,196.17 356,165.5C 343.744,194.759 331.578,224.092 319.5,253.5C 304.845,254.333 290.178,254.833 275.5,255C 285.874,266.372 295.874,278.039 305.5,290C 297.69,307.786 290.023,325.619 282.5,343.5C 260.66,343.831 238.994,343.497 217.5,342.5C 251.045,263.072 284.879,183.739 319,104.5C 352.427,103.504 385.927,103.171 419.5,103.5C 418.796,174.833 418.129,246.166 417.5,317.5 Z"/></g>
<g><path style="opacity:1" fill="#727476" d="M 384.5,260.5 C 384.819,255.637 384.486,250.97 383.5,246.5C 388.066,243.443 392.233,239.776 396,235.5C 398.695,232.352 400.028,228.685 400,224.5C 401.755,227.6 402.589,230.933 402.5,234.5C 400.48,245.858 394.48,254.525 384.5,260.5 Z"/></g>
<g><path style="opacity:1" fill="#8b8c8c" d="M 383.5,246.5 C 384.486,250.97 384.819,255.637 384.5,260.5C 378.71,265.236 372.376,269.236 365.5,272.5C 365.819,267.637 365.486,262.97 364.5,258.5C 370.811,254.534 377.144,250.534 383.5,246.5 Z"/></g>
<g><path style="opacity:1" fill="#727475" d="M 390.5,275.5 C 390.819,270.637 390.486,265.97 389.5,261.5C 396.672,255.485 402.172,248.151 406,239.5C 408.266,243.882 408.933,248.549 408,253.5C 404.907,263.084 399.074,270.418 390.5,275.5 Z"/></g>
<g><path style="opacity:1" fill="#c3e2f0" d="M 354.5,257.5 C 354.5,259.5 354.5,261.5 354.5,263.5C 354.167,263.5 353.833,263.5 353.5,263.5C 335.659,263.17 317.992,263.503 300.5,264.5C 299.957,264.44 299.624,264.107 299.5,263.5C 317.488,262.5 335.488,262.167 353.5,262.5C 353.216,260.585 353.549,258.919 354.5,257.5 Z"/></g>
<g><path style="opacity:1" fill="#a3a4a5" d="M 364.5,258.5 C 365.486,262.97 365.819,267.637 365.5,272.5C 359.151,276.341 352.484,279.675 345.5,282.5C 345.819,277.637 345.486,272.97 344.5,268.5C 347.371,266.565 350.371,264.899 353.5,263.5C 353.833,263.5 354.167,263.5 354.5,263.5C 357.55,261.308 360.883,259.642 364.5,258.5 Z"/></g>
<g><path style="opacity:1" fill="#8a8c8c" d="M 389.5,261.5 C 390.486,265.97 390.819,270.637 390.5,275.5C 384.725,280.562 378.391,284.895 371.5,288.5C 371.819,283.637 371.486,278.97 370.5,274.5C 376.97,270.427 383.303,266.093 389.5,261.5 Z"/></g>
<g><path style="opacity:1" fill="#bcbebf" d="M 344.5,268.5 C 345.486,272.97 345.819,277.637 345.5,282.5C 339.757,285.704 333.757,288.371 327.5,290.5C 323.455,287.199 322.122,283.032 323.5,278C 330.482,274.731 337.482,271.564 344.5,268.5 Z"/></g>
<g><path style="opacity:1" fill="#a4a5a5" d="M 370.5,274.5 C 371.486,278.97 371.819,283.637 371.5,288.5C 364.833,291.833 358.167,295.167 351.5,298.5C 351.5,293.833 351.5,289.167 351.5,284.5C 357.668,280.915 364.001,277.582 370.5,274.5 Z"/></g>
<g><path style="opacity:1" fill="#b7b8b9" d="M 351.5,284.5 C 351.5,289.167 351.5,293.833 351.5,298.5C 348.403,299.924 345.236,301.257 342,302.5C 337.389,300.45 333.223,297.783 329.5,294.5C 336.586,290.623 343.92,287.29 351.5,284.5 Z"/></g>
<g><path style="opacity:1" fill="#ddedf6" d="M 331.5,300.5 C 327.788,297.789 324.788,294.456 322.5,290.5C 322.81,289.262 323.31,289.262 324,290.5C 326.741,293.729 329.241,297.062 331.5,300.5 Z"/></g>
<g><path style="opacity:1" fill="#af7f7f" d="M 154.5,295.5 C 162.097,297.467 170.097,298.134 178.5,297.5C 170.35,298.493 162.017,298.826 153.5,298.5C 153.263,297.209 153.596,296.209 154.5,295.5 Z"/></g>
<g><path style="opacity:1" fill="#1682bb" d="M 322.5,290.5 C 324.788,294.456 327.788,297.789 331.5,300.5C 333.827,303.092 336.661,305.092 340,306.5C 340.817,312.016 340.651,317.35 339.5,322.5C 328.667,317.167 321.167,308.834 317,297.5C 316.238,293.413 316.404,289.413 317.5,285.5C 318.268,284.737 318.768,283.737 319,282.5C 319.705,285.476 320.871,288.142 322.5,290.5 Z"/></g>
<g><path style="opacity:1" fill="#1f81ba" d="M 333.5,322.5 C 333.821,327.695 333.487,332.695 332.5,337.5C 320.181,331.688 312.515,322.188 309.5,309C 309.808,304.077 311.308,299.577 314,295.5C 316.414,307.419 322.914,316.419 333.5,322.5 Z"/></g>
<g><path style="opacity:1" fill="#2cbcea" d="M 388.5,330.5 C 392.881,332.684 396.881,335.35 400.5,338.5C 399.833,344.167 399.167,349.833 398.5,355.5C 393.955,352.734 389.622,349.734 385.5,346.5C 385.856,340.923 386.856,335.59 388.5,330.5 Z"/></g>
<g><path style="opacity:1" fill="#53add6" d="M 217.5,342.5 C 238.994,343.497 260.66,343.831 282.5,343.5C 260.663,344.828 238.663,344.828 216.5,343.5C 216.624,342.893 216.957,342.56 217.5,342.5 Z"/></g>
<g><path style="opacity:1" fill="#27abdc" d="M 388.5,330.5 C 386.856,335.59 385.856,340.923 385.5,346.5C 383.266,345.553 380.932,344.886 378.5,344.5C 377.274,344.52 376.274,344.853 375.5,345.5C 375.822,351.358 375.489,357.025 374.5,362.5C 368.878,359.528 363.545,356.195 358.5,352.5C 358.5,347.5 358.5,342.5 358.5,337.5C 363.032,338.763 367.365,340.597 371.5,343C 373.833,343.667 376.167,343.667 378.5,343C 374.374,341.034 370.374,338.868 366.5,336.5C 365.167,330.833 365.167,325.167 366.5,319.5C 374.173,322.67 381.506,326.336 388.5,330.5 Z"/></g>
<g><path style="opacity:1" fill="#3fcdf6" d="M 417.5,317.5 C 417.5,326.5 417.5,335.5 417.5,344.5C 414.482,344.335 411.482,344.502 408.5,345C 422.36,358.937 425.86,375.104 419,393.5C 417.136,378.102 410.302,365.435 398.5,355.5C 399.167,349.833 399.833,344.167 400.5,338.5C 402.905,339.398 404.905,340.898 406.5,343C 409.817,343.498 413.15,343.665 416.5,343.5C 416.174,334.651 416.507,325.984 417.5,317.5 Z"/></g>
<g><path style="opacity:1" fill="#30bce9" d="M 375.5,345.5 C 384.029,349.259 391.695,354.259 398.5,360.5C 398.5,367.833 398.5,375.167 398.5,382.5C 396.399,379.203 395.065,375.537 394.5,371.5C 391.833,371.5 389.167,371.5 386.5,371.5C 382.5,368.5 378.5,365.5 374.5,362.5C 375.489,357.025 375.822,351.358 375.5,345.5 Z"/></g>
<g><path style="opacity:1" fill="#3c9ccd" d="M 211.5,362.5 C 214.127,362.293 215.793,363.46 216.5,366C 213.84,371.429 210.84,371.762 207.5,367C 208.344,364.993 209.677,363.493 211.5,362.5 Z"/></g>
<g><path style="opacity:1" fill="#6d1815" d="M 345.5,363.5 C 347.5,363.5 349.5,363.5 351.5,363.5C 352.32,367.198 350.987,369.531 347.5,370.5C 343.167,369.172 342.501,366.838 345.5,363.5 Z"/></g>
<g><path style="opacity:1" fill="#2995ca" d="M 138.5,371.5 C 141.572,371.183 144.572,371.516 147.5,372.5C 151.046,380.582 153.713,388.915 155.5,397.5C 153.304,397.59 151.137,397.923 149,398.5C 145.993,397.021 142.826,396.354 139.5,396.5C 139.5,397.5 139.5,398.5 139.5,399.5C 136.5,399.5 133.5,399.5 130.5,399.5C 132.551,389.96 135.217,380.627 138.5,371.5 Z"/></g>
<g><path style="opacity:1" fill="#2795ca" d="M 253.5,371.5 C 257.605,371.234 261.605,371.734 265.5,373C 266.022,373.561 266.355,374.228 266.5,375C 265.38,376.737 264.38,378.571 263.5,380.5C 265.045,381.452 266.712,381.785 268.5,381.5C 269.215,395.952 262.548,401.452 248.5,398C 242.819,391.876 241.986,385.042 246,377.5C 248.114,374.879 250.614,372.879 253.5,371.5 Z"/></g>
<g><path style="opacity:1" fill="#660b0a" d="M 279.5,371.5 C 282.572,371.183 285.572,371.516 288.5,372.5C 291.462,379.886 294.129,387.386 296.5,395C 295.222,397.171 293.222,398.338 290.5,398.5C 287.776,395.857 284.442,394.857 280.5,395.5C 280.67,396.822 280.337,397.989 279.5,399C 276.854,399.497 274.187,399.664 271.5,399.5C 273.545,389.988 276.211,380.655 279.5,371.5 Z"/></g>
<g><path style="opacity:1" fill="#670d0d" d="M 307.5,371.5 C 310.833,371.5 314.167,371.5 317.5,371.5C 317.5,373.833 317.5,376.167 317.5,378.5C 314.15,378.335 310.817,378.502 307.5,379C 306.663,380.011 306.33,381.178 306.5,382.5C 309.786,381.793 313.119,381.46 316.5,381.5C 316.5,384.167 316.5,386.833 316.5,389.5C 313.167,389.5 309.833,389.5 306.5,389.5C 306.5,392.833 306.5,396.167 306.5,399.5C 303.833,399.5 301.167,399.5 298.5,399.5C 298.5,390.5 298.5,381.5 298.5,372.5C 301.713,372.81 304.713,372.477 307.5,371.5 Z"/></g>
<g><path style="opacity:1" fill="#670d0c" d="M 386.5,371.5 C 389.167,371.5 391.833,371.5 394.5,371.5C 395.065,375.537 396.399,379.203 398.5,382.5C 398.557,383.609 398.89,384.609 399.5,385.5C 400.812,389.416 401.812,393.416 402.5,397.5C 399.518,397.963 396.518,398.296 393.5,398.5C 393.5,397.5 393.5,396.5 393.5,395.5C 391.167,395.5 388.833,395.5 386.5,395.5C 386.67,396.822 386.337,397.989 385.5,399C 382.854,399.497 380.187,399.664 377.5,399.5C 379.019,392.091 380.852,384.758 383,377.5C 383.424,374.975 384.59,372.975 386.5,371.5 Z"/></g>
<g><path style="opacity:1" fill="#3ed1f9" d="M 398.5,360.5 C 415.126,374.693 419.292,392.026 411,412.5C 409.864,402.242 406.031,393.242 399.5,385.5C 398.89,384.609 398.557,383.609 398.5,382.5C 398.5,375.167 398.5,367.833 398.5,360.5 Z"/></g>
<g><path style="opacity:1" fill="#2695ca" d="M 52.5,372.5 C 56.5,372.5 60.5,372.5 64.5,372.5C 64.5,374.833 64.5,377.167 64.5,379.5C 50.9099,380.929 50.5766,381.929 63.5,382.5C 63.5,384.833 63.5,387.167 63.5,389.5C 60.1667,389.5 56.8333,389.5 53.5,389.5C 53.5,390.5 53.5,391.5 53.5,392.5C 57.1352,391.886 60.8019,391.552 64.5,391.5C 64.7683,394.119 64.435,396.619 63.5,399C 57.5112,399.699 51.5112,400.199 45.5,400.5C 45.5,391.5 45.5,382.5 45.5,373.5C 48.0593,373.802 50.3926,373.468 52.5,372.5 Z"/></g>
<g><path style="opacity:1" fill="#2695ca" d="M 89.5,372.5 C 92.1667,372.5 94.8333,372.5 97.5,372.5C 97.5,378.5 97.5,384.5 97.5,390.5C 101.167,390.5 104.833,390.5 108.5,390.5C 108.768,393.119 108.435,395.619 107.5,398C 101.502,398.591 95.5015,399.091 89.5,399.5C 89.5,390.5 89.5,381.5 89.5,372.5 Z"/></g>
<g><path style="opacity:1" fill="#2995ca" d="M 120.5,399.5 C 117.167,399.5 113.833,399.5 110.5,399.5C 110.5,391.167 110.5,382.833 110.5,374.5C 116.238,372.772 122.238,372.105 128.5,372.5C 128.5,374.833 128.5,377.167 128.5,379.5C 115.272,381.125 115.272,382.125 128.5,382.5C 128.5,384.833 128.5,387.167 128.5,389.5C 125.167,389.5 121.833,389.5 118.5,389.5C 118.281,390.675 118.614,391.675 119.5,392.5C 122.758,391.583 126.091,391.249 129.5,391.5C 129.768,394.119 129.435,396.619 128.5,399C 125.854,399.497 123.187,399.664 120.5,399.5 Z"/></g>
<g><path style="opacity:1" fill="#1f93c9" d="M 183.5,372.5 C 185.527,372.338 187.527,372.505 189.5,373C 191.788,375.743 193.955,378.577 196,381.5C 196.498,378.518 196.665,375.518 196.5,372.5C 199.5,372.5 202.5,372.5 205.5,372.5C 205.5,381.167 205.5,389.833 205.5,398.5C 203.181,399.167 200.847,399.334 198.5,399C 195.301,395.434 192.467,391.6 190,387.5C 189.501,391.486 189.334,395.486 189.5,399.5C 186.833,399.5 184.167,399.5 181.5,399.5C 180.905,390.235 181.572,381.235 183.5,372.5 Z"/></g>
<g><path style="opacity:1" fill="#1a91c8" d="M 207.5,372.5 C 210.167,372.5 212.833,372.5 215.5,372.5C 215.5,381.167 215.5,389.833 215.5,398.5C 212.873,399.092 210.206,399.425 207.5,399.5C 207.5,390.5 207.5,381.5 207.5,372.5 Z"/></g>
<g><path style="opacity:1" fill="#1f93c9" d="M 219.5,372.5 C 221.527,372.338 223.527,372.505 225.5,373C 227.788,375.743 229.955,378.577 232,381.5C 232.498,378.518 232.665,375.518 232.5,372.5C 235.5,372.5 238.5,372.5 241.5,372.5C 241.5,381.167 241.5,389.833 241.5,398.5C 239.181,399.167 236.847,399.334 234.5,399C 231.301,395.434 228.467,391.6 226,387.5C 225.501,391.486 225.334,395.486 225.5,399.5C 222.833,399.5 220.167,399.5 217.5,399.5C 216.905,390.235 217.572,381.235 219.5,372.5 Z"/></g>
<g><path style="opacity:1" fill="#630303" d="M 343.5,372.5 C 346.167,372.5 348.833,372.5 351.5,372.5C 351.5,381.167 351.5,389.833 351.5,398.5C 348.833,398.833 346.167,399.167 343.5,399.5C 343.5,390.5 343.5,381.5 343.5,372.5 Z"/></g>
<g><path style="opacity:1" fill="#670c0b" d="M 363.5,372.5 C 366.518,372.335 369.518,372.502 372.5,373C 373.428,373.388 374.095,374.055 374.5,375C 373.6,380.716 370.266,383.049 364.5,382C 360.928,384.626 360.595,387.626 363.5,391C 366.035,391.617 368.368,391.117 370.5,389.5C 377.413,393.545 377.08,396.711 369.5,399C 356.583,401.065 351.416,395.565 354,382.5C 356.022,377.98 359.189,374.647 363.5,372.5 Z"/></g>
<g><path style="opacity:1" fill="#2895ca" d="M 161.5,372.5 C 177.796,370.611 182.796,377.111 176.5,392C 177.289,393.626 178.289,395.126 179.5,396.5C 178.167,398.5 176.5,400.167 174.5,401.5C 172.395,398.973 170.061,396.64 167.5,394.5C 166.4,399.933 163.067,401.933 157.5,400.5C 157.5,391.5 157.5,382.5 157.5,373.5C 159.099,373.768 160.432,373.434 161.5,372.5 Z"/></g>
<g><path style="opacity:1" fill="#670d0c" d="M 323.5,372.5 C 328.777,371.931 333.777,372.765 338.5,375C 342.571,380.7 342.238,386.2 337.5,391.5C 338.711,393.422 340.044,395.255 341.5,397C 339.759,398.62 337.925,400.12 336,401.5C 333.81,399.612 331.977,397.445 330.5,395C 329.552,394.517 328.552,394.351 327.5,394.5C 327.739,396.467 327.406,398.301 326.5,400C 324.19,400.497 321.857,400.663 319.5,400.5C 319.5,391.5 319.5,382.5 319.5,373.5C 321.099,373.768 322.432,373.434 323.5,372.5 Z"/></g>
<g><path style="opacity:1" fill="#f9fcfd" d="M 166.5,380.5 C 171.241,380.161 172.574,382.161 170.5,386.5C 169.264,387.246 167.93,387.579 166.5,387.5C 166.5,385.167 166.5,382.833 166.5,380.5 Z"/></g>
<g><path style="opacity:1" fill="#f3ecec" d="M 327.5,380.5 C 333.555,379.942 334.888,382.109 331.5,387C 330.207,387.49 328.873,387.657 327.5,387.5C 327.5,385.167 327.5,382.833 327.5,380.5 Z"/></g>
<g><path style="opacity:1" fill="#eff7fb" d="M 255.5,380.5 C 264.662,381.934 264.329,382.601 254.5,382.5C 254.5,384.833 254.5,387.167 254.5,389.5C 255.873,389.343 257.207,389.51 258.5,390C 253.502,391.33 251.336,389.496 252,384.5C 253.032,382.973 254.199,381.64 255.5,380.5 Z"/></g>
<g><path style="opacity:1" fill="#2193c9" d="M 66.5,384.5 C 73.5,384.5 80.5,384.5 87.5,384.5C 87.5,385.833 87.5,387.167 87.5,388.5C 80.5,388.5 73.5,388.5 66.5,388.5C 66.5,387.167 66.5,385.833 66.5,384.5 Z"/></g>
<g><path style="opacity:1" fill="#78bede" d="M 110.5,374.5 C 110.5,382.833 110.5,391.167 110.5,399.5C 113.833,399.5 117.167,399.5 120.5,399.5C 117.038,400.482 113.371,400.815 109.5,400.5C 109.174,391.651 109.507,382.984 110.5,374.5 Z"/></g>
<g><path style="opacity:1" fill="#d8bdbc" d="M 388.5,384.5 C 390.185,385.184 391.185,386.517 391.5,388.5C 390.675,389.386 389.675,389.719 388.5,389.5C 388.5,387.833 388.5,386.167 388.5,384.5 Z"/></g>
<g><path style="opacity:1" fill="#b5dbed" d="M 142.5,384.5 C 143.339,385.641 144.006,386.974 144.5,388.5C 143.5,389.833 142.5,389.833 141.5,388.5C 142.246,387.264 142.579,385.93 142.5,384.5 Z"/></g>
<g><path style="opacity:1" fill="#ceaeae" d="M 283.5,384.5 C 284.931,385.78 285.598,387.447 285.5,389.5C 284.5,389.5 283.5,389.5 282.5,389.5C 282.366,387.708 282.699,386.042 283.5,384.5 Z"/></g>
</svg>
